<?xml version="1.0" encoding="utf-8" ?>
<svg baseProfile="full" height="200mm" version="1.1" viewBox="0,0,200,200" width="200mm" xmlns="http://www.w3.org/2000/svg" xmlns:ev="http://www.w3.org/2001/xml-events" xmlns:xlink="http://www.w3.org/1999/xlink"><defs /><rect fill="#1a1a1a" height="200" width="200" x="0" y="0" /><text alignment-baseline="middle" fill="#e1ed5e" style="dominant-baseline: central; font-size:9.0px; font-family:Arial;" text-anchor="middle" x="100.0" y="100.0">2023</text><line stroke="#e1ed5e" stroke-width="0.3" x1="100.0" x2="100.0" y1="15.0" y2="10.0" /><path d="M 100.0 14.0 a86.0,86.0 0 0,1 42.46469731375804,11.215312516191453" fill="none" id="id1" stroke="none" /><text fill="#e1ed5e" style="font-size:6.75px; font-family:Arial;" text-anchor="middle"><textPath startOffset="22.20632615414155" xlink:href="#id1">January</textPath></text><line stroke="#e1ed5e" stroke-width="0.3" x1="143.23703022742887" x2="145.7803849466894" y1="26.81831364943548" y2="22.513508569990506" /><path d="M 143.74570117128098 25.957352633546492 a86.0,86.0 0 0,1 28.547481713284135,27.462654790039103" fill="none" id="id2" stroke="none" /><text fill="#e1ed5e" style="font-size:6.75px; font-family:Arial;" text-anchor="middle"><textPath startOffset="19.985693538727396" xlink:href="#id2">February</textPath></text><line stroke="#e1ed5e" stroke-width="0.3" x1="172.23445277983987" x2="176.4835382374775" y1="55.19839476539836" y2="52.563006222186495" /><path d="M 173.08426987136738 54.67131705675599 a86.0,86.0 0 0,1 12.851231095245387,41.99856678651699" fill="none" id="id3" stroke="none" /><text fill="#e1ed5e" style="font-size:6.75px; font-family:Arial;" text-anchor="middle"><textPath startOffset="22.20632615414155" xlink:href="#id3">March</textPath></text><line stroke="#e1ed5e" stroke-width="0.3" x1="184.98032266829074" x2="189.97916517819016" y1="98.17113171792111" y2="98.06355123074" /><path d="M 185.9800911702706 98.14961562048488 a86.0,86.0 0 0,1 -9.607161424134198,41.387399972396054" fill="none" id="id4" stroke="none" /><text fill="#e1ed5e" style="font-size:6.75px; font-family:Arial;" text-anchor="middle"><textPath startOffset="21.466115282336823" xlink:href="#id4">April</textPath></text><path d="M 119.54520255179757 107.68017299344265 l 9.151746565745665 3.596125270679637 a30.83293354833939,30.83293354833939 0 0,0 -0.19835470081696152,0.4923001004770819 l -9.088489250671312 -3.7531247389995324" fill="#ff7e0b" stroke="none" /><path d="M 119.41010516605496 108.01547362559984 l 0.7834487741560314 0.323528024837205 a21.847621592800497,21.847621592800497 0 0,0 -0.14653409831560357,0.34636332294520356 l -0.7777636946481189 -0.33696587344857204" fill="#ff0000" stroke="none" /><path d="M 119.26925614724726 108.34839909993367 l 9.006940049621871 3.9022539131154588 a30.815933713096648,30.815933713096648 0 0,0 -0.21506427704687822,0.48491316942970736 l -8.93843468784372 -4.056715419037854" fill="#ff7e0b" stroke="none" /><path d="M 118.81262510543309 109.33194174019688 l 1.473563827370511 0.7309565629685453 a22.64489751968979,22.64489751968979 0 0,0 -0.17622187024863437,0.3477024681737179 l -1.4607632873356076 -0.7562132428449575" fill="#ff0c01" stroke="none" /><line stroke="#e1ed5e" stroke-width="0.3" x1="174.80103733775053" x2="179.2010983576182" y1="140.37084112569926" y2="142.7455964860345" /><path d="M 175.68104954172406 140.8457921977663 a86.0,86.0 0 0,1 -30.038265399797805,32.042727171017184" fill="none" id="id5" stroke="none" /><text fill="#e1ed5e" style="font-size:6.75px; font-family:Arial;" text-anchor="middle"><textPath startOffset="22.206326154141568" xlink:href="#id5">May</textPath></text><path d="M 118.48025628344425 109.97397251340804 l 10.597981569066866 5.719832844643727 a33.042993859873306,33.042993859873306 0 0,0 -0.2744513157862298,0.4982088579255331 l -10.497953843829126 -5.901412220967065" fill="#ff9b0e" stroke="none" /><path d="M 118.30583269289576 110.29060199501025 l 7.132789359981546 4.009689023668381 a29.182560120181986,29.182560120181986 0 0,0 -0.24992500879894786,0.43576531908265015 l -7.062712355030218 -4.131874188609347" fill="#ff6809" stroke="none" /><path d="M 118.12598468904814 110.60418214915192 l 7.958840235869125 4.656132784231514 a30.22077601964633,30.22077601964633 0 0,0 -0.2665459842894718,0.44674640136552585 l -7.877513375881426 -4.7924412794831435" fill="#ff760a" stroke="none" /><path d="M 117.75023020441432 111.22182372390056 l 3.820175810549553 2.4151427359874327 a25.51958600523331,25.51958600523331 0 0,0 -0.23793384897408432,0.36927861742557994 l -3.7780370981984186 -2.480542953334466" fill="#ff3505" stroke="none" /><path d="M 117.55443506779139 111.5257021239791 l 7.7341165602353374 5.077983046515759 a30.252160330863703,30.252160330863703 0 0,0 -0.28955191814859893,0.43284083071199936 l -7.645561536676017 -5.210360791433565" fill="#ff760a" stroke="none" /><path d="M 117.35343817320211 111.8261652097733 l 9.564516166738345 6.518105934423229 a32.57435417101803,32.57435417101803 0 0,0 -0.31975465802823533,0.46063043331897663 l -9.450900601547973 -6.681777629929225" fill="#ff950d" stroke="none" /><path d="M 117.14729908036423 112.12312394758627 l 6.018486621309606 4.255064249189979 a28.370736257363806,28.370736257363806 0 0,0 -0.2853558477493998,0.39633431459617563 l -5.944350981184604 -4.358032169237286" fill="#ff5c08" stroke="none" /><path d="M 116.93607887273984 112.41649034213515 l 6.8464443406329805 5.019391482066407 a29.489292724345542,29.489292724345542 0 0,0 -0.30365368117952946,0.40679372831536037 l -6.759029392758358 -5.136498089891083" fill="#ff6c09" stroke="none" /><path d="M 116.71984013943494 112.70617746262583 l 5.766616210232532 4.382317552980243 a28.24282884315758,28.24282884315758 0 0,0 -0.2974819620277792,0.384535536892938 l -5.690327430986684 -4.480931083986434" fill="#ff5b08" stroke="none" /><path d="M 116.498646956653 112.99209946851258 l 4.144636756089523 3.2637544846824307 a26.275424833718414,26.275424833718414 0 0,0 -0.2828763289548953,0.35293171459518075 l -4.087842515079774 -3.3346140328558613" fill="#ff3f05" stroke="none" /><path d="M 116.0416608686014 113.55231037782055 l 6.255746404985763 5.284977510729146 a29.18934370828366,29.18934370828366 0 0,0 -0.3275565469319098,0.3810222652802818 l -6.163847348483075 -5.391876875170956" fill="#ff6809" stroke="none" /><path d="M 115.56566222782051 114.09645910891815 l 5.464260650987761 4.948503038274182 a28.371962207020733,28.371962207020733 0 0,0 -0.33094352641996916,0.35917383578859113 l -5.37827071657207 -5.041828128864108" fill="#ff5d08" stroke="none" /><path d="M 115.32070863581623 114.36230785411682 l 6.329436189257552 5.933492585361855 a29.675718802175833,29.675718802175833 0 0,0 -0.3525665440125216,0.36966461185466115 l -6.226363093866065 -6.041564313799023" fill="#ff6e0a" stroke="none" /><path d="M 115.07121518719521 114.62390073753431 l 6.942314784605948 6.736266521166179 a30.673314903007274,30.673314903007274 0 0,0 -0.37094170858297393,0.37576199237729374 l -6.825332450967438 -6.854769007524137" fill="#ff7c0b" stroke="none" /><path d="M 114.81725581225074 114.88116024355365 l 5.556189801348984 5.5801527506268584 a28.8746015663615,28.8746015663615 0 0,0 -0.35522641379997427,0.34766381115267836 l -5.4593134351732155 -5.674966664702109" fill="#ff6309" stroke="none" /><path d="M 114.29624159901734 115.38237550388516 l 13.951072097013252 15.010982305502104 a41.49297446522,41.49297446522 0 0,0 -0.5273568370822442,0.48172796716470695 l -13.690615710464144 -15.248903039253394" fill="#f8ff18" stroke="none" /><path d="M 114.0293411484842 115.62618273729858 l 5.017708393396481 5.588831823806765 a28.51082143816219,28.51082143816219 0 0,0 -0.36800362741565046,0.32472041414623365 l -4.920762413074243 -5.674375379725287" fill="#ff5e08" stroke="none" /><path d="M 113.75828350139079 115.86535959552629 l 4.65115873562937 5.363481997530713 a28.09931100331979,28.09931100331979 0 0,0 -0.3681471686386535,0.31374300389611753 l -4.55814609041367 -5.442749391649778" fill="#ff5908" stroke="none" /><path d="M 112.92097659922987 116.55440617244103 l 3.4021802644972667 4.358886771276057 a26.52944160263404,26.52944160263404 0 0,0 -0.3624064116621539,0.27787778266036656 l -3.3266451243416193 -4.416803895763795" fill="#ff4306" stroke="none" /><path d="M 111.7513745106137 117.40417183066458 l 0.5731994824086791 0.8489272702591844 a22.024321803352485,22.024321803352485 0 0,0 -0.31602311440205544,0.2094428880119578 l -0.5585016692666596 -0.8586681793624605" fill="#ff0300" stroke="none" /><line stroke="#e1ed5e" stroke-width="0.3" x1="143.8653032363475" x2="146.44561519142675" y1="172.8068346515853" y2="177.08958963109032" /><path d="M 144.38136562736335 173.6633856474863 a86.0,86.0 0 0,1 -40.68145358897372,12.25698825130547" fill="none" id="id6" stroke="none" /><text fill="#e1ed5e" style="font-size:6.75px; font-family:Arial;" text-anchor="middle"><textPath startOffset="21.466115282336833" xlink:href="#id6">June</textPath></text><path d="M 110.8373102113329 117.98757091392108 l 0.9933286003823204 1.648708793213125 a22.924822691355175,22.924822691355175 0 0,0 -0.33975911297749173,0.20073567268566844 l -0.9648016163764466 -1.6655630381925428" fill="#ff1001" stroke="none" /><path d="M 110.5260780823613 118.17145234162733 l 1.2441520567853879 2.1478132338290306 a23.482139405394957,23.482139405394957 0 0,0 -0.3515066417816288,0.19959464496343837 l -1.2069966480825598 -2.1689110445870976" fill="#ff1802" stroke="none" /><path d="M 109.57404056367764 118.69057910512821 l 1.8707752590927043 3.6521542535179754 a25.103416961694585,25.103416961694585 0 0,0 -0.38628909976104353,0.19369337385035337 l -1.8076322516489003 -3.683815468277631" fill="#ff2f04" stroke="none" /><path d="M 108.59647513512805 119.15986991738527 l 7.328044196414899 16.332784233670466 a38.901398620449875,38.901398620449875 0 0,0 -0.6133070861965872,0.2688558031547373 l -7.045816435560559 -16.456504590119657" fill="#ffe615" stroke="none" /><path d="M 108.2653958097858 119.30500536409082 l 0.36993342955538855 0.8640320447168475 a21.939894736978662,21.939894736978662 0 0,0 -0.3484562414478013,0.1456547371858189 l -0.35500572861012614 -0.8702718249226395" fill="#ff0100" stroke="none" /><path d="M 107.93186726928326 119.44442032107085 l 3.5339431130287013 8.663215475956004 a30.35628432172551,30.35628432172551 0 0,0 -0.4855255292070633,0.19320062817643766 l -3.3842965077797715 -8.72276294853851" fill="#ff780b" stroke="none" /><path d="M 107.2578585660854 119.70592522655815 l 9.282915515328819 25.204188999261582 a47.85933103365069,47.85933103365069 0 0,0 -0.7755044853379821,0.27806831731420323 l -8.8476914693611 -25.360244857615747" fill="#aeff20" stroke="none" /><path d="M 105.53697534728816 120.25689768951611 l 0.7627616665362896 2.7905461143289982 a23.892914270443196,23.892914270443196 0 0,0 -0.39765723269549785,0.10502488940522642 l -0.7146139910292942 -2.803262353037809" fill="#ff1e03" stroke="none" /><path d="M 104.13013068566511 120.58985236759428 l 2.057014912381246 10.254792544669613 a31.45906690312144,31.45906690312144 0 0,0 -0.531856550760169,0.10193157378244586 l -1.8801907470493726 -10.288681316800526" fill="#ff860c" stroke="none" /><path d="M 103.7750983002368 120.6578951692458 l 0.9066189248202765 4.9611525893820465 a26.04331169867325,26.04331169867325 0 0,0 -0.4416834403693558,0.07679232763820747 l -0.8210865129788707 -4.97602349554126" fill="#ff3c05" stroke="none" /><path d="M 103.06178313531738 120.77559828337769 l 0.3534453709437557 2.398288421261985 a23.424192851610794,23.424192851610794 0 0,0 -0.3994063683184596,0.05535408324982183 l -0.31211041143846563 -2.4040170700044095" fill="#ff1702" stroke="none" /><path d="M 102.34483914955558 120.86867818915974 l 0.9473766952561513 8.431494919793254 a29.48455238567209,29.48455238567209 0 0,0 -0.5048420924553427,0.052328947057774945 l -0.802102006195206 -8.446553235306787" fill="#ff6c09" stroke="none" /><path d="M 101.98527174616119 120.90594882070398 l 0.08885459360425434 0.9356852984821397 a21.939894736978662,21.939894736978662 0 0,0 -0.3762751313178718,0.032466601613287106 l -0.07273514454484081 -0.9370761523740903" fill="#ff0100" stroke="none" /><path d="M 101.62511606390274 120.93702456842531 l 0.8811388401969144 11.352066449391009 a32.386211763668044,32.386211763668044 0 0,0 -0.5561749523465797,0.038357081019456396 l -0.6856011270714043 -11.365551874926751" fill="#ff930d" stroke="none" /><path d="M 101.26447882468166 120.96189622390904 l 0.513392533311869 8.51076411510683 a29.52623467400766,29.52623467400766 0 0,0 -0.5075868101019239,0.026236440219121797 l -0.3668176547964655 -8.518340362088153" fill="#ff6c0a" stroke="none" /><path d="M 100.90346689309514 120.98055641714683 l 0.05098498873247008 1.1839874163673827 a22.1850846683644,22.1850846683644 0 0,0 -0.3816675993835597,0.013145403831554025 l -0.030597037674258094 -1.1846896186250304" fill="#ff0500" stroke="none" /><line stroke="#e1ed5e" stroke-width="0.3" x1="102.19456741930631" x2="102.32365962044197" y1="184.97166512339345" y2="189.96999836594603" /><path d="M 102.22038585953345 185.97133177190398 a86.0,86.0 0 0,1 -42.740103519485714,-10.115201625700543" fill="none" id="id7" stroke="none" /><text fill="#e1ed5e" style="font-size:6.75px; font-family:Arial;" text-anchor="middle"><textPath startOffset="22.20632615414155" xlink:href="#id7">July</textPath></text><path d="M 100.54218724476979 120.99299961872073 l 0.3078990451863242 11.921572483589856 a32.92554788273954,32.92554788273954 0 0,0 -0.566696201771009,0.009756189037926825 l -0.10264315352264727 -11.925106149906942" fill="#ff9a0e" stroke="none" /><path d="M 99.45781275523022 120.99299961872073 l -0.13440962129221845 5.204218940521286 a26.20595435315912,26.20595435315912 0 0,0 -0.4508418082256993,-0.015527903450140192 l 0.22397178119256078 -5.201134238645052" fill="#ff3e05" stroke="none" /><path d="M 99.09653310690486 120.98055641714683 l -0.5280181243440553 12.261781955423517 a33.27314547546739,33.27314547546739 0 0,0 -0.5720001199074982,-0.029565872581028056 l 0.7390063126650425 -12.250876276080287" fill="#ff9e0e" stroke="none" /><path d="M 98.73552117531835 120.96189622390904 l -0.4049679987560937 6.713356521463747 a27.7255598179108,27.7255598179108 0 0,0 -0.476136635647142,-0.032837170089724046 l 0.5204673951821657 -6.705391006857738" fill="#ff5407" stroke="none" /><path d="M 98.37488393609728 120.93702456842531 l -0.18214777632581347 2.3466831401931705 a23.353741611325958,23.353741611325958 0 0,0 -0.40052298777689754,-0.03455880869823077 l 0.22251508184425267 -2.343200079216276" fill="#ff1602" stroke="none" /><path d="M 98.01472825383883 120.90594882070398 l -1.5933328460250795 16.778627408442755 a37.85411069352426,37.85411069352426 0 0,0 -0.6481478233273791,-0.06718317200443763 l 1.881913265958052 -16.74871486798256" fill="#ffd914" stroke="none" /><path d="M 97.2962882734958 120.8252237178851 l -1.0540263542351254 8.118592827895268 a29.18672834901554,29.18672834901554 0 0,0 -0.4976634732656786,-0.06897162267472393 l 1.1936184186876349 -8.099246639727939" fill="#ff6809" stroke="none" /><path d="M 96.93821686468263 120.77559828337769 l -1.1928796164557989 8.09423352883761 a29.181661090433572,29.181661090433572 0 0,0 -0.49631632294445927,-0.0775144023832137 l 1.3320318030087752 -8.07250081910729" fill="#ff6809" stroke="none" /><path d="M 96.58105272829116 120.7198165907248 l -1.756925810697387 10.64748230029457 a31.791462720103368,31.791462720103368 0 0,0 -0.5391696260082284,-0.09374155059644 l 1.9399444081776653 -10.615662171177123" fill="#ff8b0c" stroke="none" /><path d="M 96.22490169976321 120.6578951692458 l -1.0490315723040742 5.740455619003974 a26.83552036698057,26.83552036698057 0 0,0 -0.4536894671475702,-0.08695066616886203 l 1.1476886540233393 -5.721547754486644" fill="#ff4706" stroke="none" /><path d="M 95.51606077576429 120.51570834832081 l -3.492079170443856 15.977575566333346 a37.35474053326864,37.35474053326864 0 0,0 -0.6269901601254718,-0.14270091913984734 l 3.76658947996219 -15.915097913615812" fill="#ffd313" stroke="none" /><path d="M 95.16358092515715 120.4354850818985 l -0.25410884166715586 1.0736946825139222 a22.103354691235822,22.103354691235822 0 0,0 -0.36949095526257536,-0.09081188713326237 l 0.2725530816729418 -1.0691615370666299" fill="#ff0400" stroke="none" /><path d="M 94.46302465271185 120.25689768951611 l -2.526944324303448 9.24476802476442 a30.583902308028605,30.583902308028605 0 0,0 -0.5066279224141197,-0.1431781114437654 l 2.6857034148221812 -9.199901119982133" fill="#ff7b0b" stroke="none" /><path d="M 94.11515582081647 120.15858648285463 l -0.9614553921596787 3.2934740635642115 a24.430942709880636,24.430942709880636 0 0,0 -0.4026743176145869,-0.12132246870947937 l 1.0180046842145114 -3.2764362257490065" fill="#ff2503" stroke="none" /><path d="M 93.08242187328487 119.8279376855182 l -2.7198234606804945 7.79586281587711 a29.256689209437607,29.256689209437607 0 0,0 -0.4740704313669983,-0.16998479007015313 l 2.8536134526772194 -7.747890484766999" fill="#ff6909" stroke="none" /><path d="M 92.7421414339146 119.70592522655815 l -3.3303644015040943 9.042324437113942 a30.63612776341377,30.63612776341377 0 0,0 -0.49328510082870786,-0.18651821640520036 l 3.485519723093085 -8.983657970602108" fill="#ff7b0b" stroke="none" /><path d="M 92.06813273071674 119.44442032107085 l -0.316418149413374 0.775677061344094 a21.83773226556794,21.83773226556794 0 0,0 -0.34683366525809767,-0.14497650020692848 l 0.32972327416893393 -0.7701155181171923" fill="#ff0000" stroke="none" /><path d="M 91.7346041902142 119.30500536409082 l -1.613456610974751 3.768456979727216 a25.099330462838157,25.099330462838157 0 0,0 -0.3957080664847052,-0.17346678755877046 l 1.6780853521171994 -3.740125638873993" fill="#ff2f04" stroke="none" /><path d="M 91.40352486487194 119.15986991738527 l -6.955102883735711 15.501570634441485 a37.99035456539761,37.99035456539761 0 0,0 -0.5943355869941164,-0.2728303176692803 l 7.220906466497247 -15.379553246438132" fill="#ffdb14" stroke="none" /><path d="M 91.07499286063937 119.00905698771935 l -0.45155848484955097 0.9617584431880056 a22.06248970267153,22.06248970267153 0 0,0 -0.3423755193559885,-0.16436105541692392 l 0.4680466722057815 -0.9538431112715193" fill="#ff0300" stroke="none" /><path d="M 90.42595943632237 118.69057910512821 l -10.58890021568635 20.671802652314195 a44.22602490039969,44.22602490039969 0 0,0 -0.6745713390803694,-0.3529038423964477 l 10.943162457293216 -20.48646939097303" fill="#d8ff1c" stroke="none" /><line stroke="#e1ed5e" stroke-width="0.3" x1="58.666819895761336" x2="56.23545636021788" y1="174.27360380694188" y2="178.64263932499728" /><path d="M 58.180547188652646 175.14741091055294 a86.0,86.0 0 0,1 -31.652253787137756,-30.449443065178592" fill="none" id="id8" stroke="none" /><text fill="#e1ed5e" style="font-size:6.75px; font-family:Arial;" text-anchor="middle"><textPath startOffset="22.20632615414155" xlink:href="#id8">August</textPath></text><path d="M 89.7882731507175 118.34994917583269 l -0.655760444299053 1.1783678707832432 a22.34854462262156,22.34854462262156 0 0,0 -0.33453774093511957,-0.1899592602016821 l 0.6759469521553798 -1.166905444786928" fill="#ff0701" stroke="none" /><path d="M 89.1626897886671 117.98757091392108 l -11.28436642741654 18.729586712352724 a42.866283270911524,42.866283270911524 0 0,0 -0.628747946144498,-0.386228341859915 l 11.605093573493345 -18.532569903664427" fill="#e8ff1a" stroke="none" /><path d="M 88.24862548938628 117.40417183066458 l -28.9412457087858 42.8629359786174 a72.71872952696505,72.71872952696505 0 0,0 -1.0313701404084137,-0.7093857871079415 l 29.674772733817104 -42.35840940214436" fill="#3fffbe" stroke="none" /><path d="M 87.65650970185807 116.9893568818739 l -5.637888244892742 7.759887449907328 a30.59174838583295,30.59174838583295 0 0,0 -0.42335342200460385,-0.3131867406481136 l 5.770626637315909 -7.661690760519448" fill="#ff7b0b" stroke="none" /><path d="M 86.79598089348748 116.32954008644616 l -1.3616996395488854 1.6840273154971086 a23.165680933953098,23.165680933953098 0 0,0 -0.3079158829175753,-0.25339380883457957 l 1.3904856510111496 -1.6603383878053481" fill="#ff1302" stroke="none" /><path d="M 86.51685102203217 116.09983520530335 l -17.486703048216974 20.88036243020147 a48.23553411837355,48.23553411837355 0 0,0 -0.6319647948433255,-0.5385741083489174 l 17.843533319637356 -20.5762639316296" fill="#aaff21" stroke="none" /><path d="M 86.24171649860922 115.8653595955263 l -0.7764157543099566 0.8953235435593444 a22.1850846683644,22.1850846683644 0 0,0 -0.28635413575118995,-0.25267423097596003 l 0.7917122429677342 -0.8818261708110955" fill="#ff0500" stroke="none" /><path d="M 85.70375840098266 115.38237550388516 l -0.6537652434390439 0.7034340037076252 a21.96032723126081,21.96032723126081 0 0,0 -0.27467576327160675,-0.2597230785700152 l 0.6657768411014675 -0.6920762883916792" fill="#ff0200" stroke="none" /><path d="M 85.44109423537348 115.13401014063109 l -3.859749160765177 4.012216569272575 a26.567364312021702,26.567364312021702 0 0,0 -0.3268418969171634,-0.31988358723396587 l 3.9282410100581346 -3.9451828791160395" fill="#ff4406" stroke="none" /><path d="M 84.9287848128048 114.62390073753433 l -0.9091636249769105 0.8821796013592429 a22.266814645492982,22.266814645492982 0 0,0 -0.2645440178909324,-0.2773733451255964 l 0.9242141942468004 -0.8663991396511465" fill="#ff0601" stroke="none" /><path d="M 84.67929136418377 114.36230785411682 l -11.926596603060586 11.180517568526566 a37.34771175523558,37.34771175523558 0 0,0 -0.4356407689326235,-0.47280201457954607 l 12.11728377998894 -10.973564299145677" fill="#ffd313" stroke="none" /><path d="M 84.43433777217949 114.09645910891817 l -1.257036203372499 1.1383877653210062 a22.695897025418024,22.695897025418024 0 0,0 -0.2597503809215155,-0.2918323065602073 l 1.276445433942353 -1.1165812890199347" fill="#ff0c01" stroke="none" /><path d="M 84.19399662182784 113.82643327865904 l -3.510501762833168 3.070840694963884 a25.664084604796642,25.664084604796642 0 0,0 -0.28799684629188516,-0.335005396153846 l 3.5628411186958315 -3.009958199648507" fill="#ff3705" stroke="none" /><path d="M 83.95833913139862 113.55231037782056 l -1.0145297313474915 0.8570946561811252 a22.328112128339416,22.328112128339416 0 0,0 -0.24550716215520077,-0.295729192304729 l 1.0291328933962287 -0.839504206762635" fill="#ff0701" stroke="none" /><path d="M 83.72743513129214 113.27417163493432 l -4.670996710919311 3.8103158627555764 a27.027994463118375,27.027994463118375 0 0,0 -0.29097835339006956,-0.3630402358212668 l 4.735892976364241 -3.72934779335605" fill="#ff4a06" stroke="none" /><path d="M 83.50135304334701 112.99209946851258 l -15.707843902407046 12.36937010362828 a40.99344084501013,40.99344084501013 0 0,0 -0.43178426922336305,-0.5581393730764292 l 15.918434988848476 -12.097152736438598" fill="#feff18" stroke="none" /><path d="M 83.28015986056508 112.70617746262583 l -7.272642745959873 5.526816559357828 a30.13438743382142,30.13438743382142 0 0,0 -0.31029627464805193,-0.41569256778355335 l 7.3667002873030105 -5.400811112064966" fill="#ff750a" stroke="none" /><path d="M 83.06392112726016 112.41649034213515 l -5.522635847927938 4.048856596865469 a27.847827863695155,27.847827863695155 0 0,0 -0.2800963801551445,-0.38902937411378957 l 5.59151202045869 -3.9531936173005406" fill="#ff5507" stroke="none" /><path d="M 82.85270091963577 112.12312394758628 l -1.3680805435204333 0.9672316276545128 a22.675464531135876,22.675464531135876 0 0,0 -0.22258569943455042,-0.320651301261394 l 1.3845271501171177 -0.9435390642061061" fill="#ff0c01" stroke="none" /><path d="M 82.6465618267979 111.8261652097733 l -3.911187892216219 2.6654288169385305 a25.733064705493163,25.733064705493163 0 0,0 -0.24629838543185065,-0.36818266801684546 l 3.9564893830587997 -2.597709234715864" fill="#ff3805" stroke="none" /><path d="M 82.44556493220864 111.52570212397912 l -3.5486179662837314 2.329913407821946 a25.245136742035545,25.245136742035545 0 0,0 -0.2353749998796197,-0.36530722680638206 l 3.5881978295403965 -2.2684845810941154" fill="#ff3104" stroke="none" /><path d="M 82.24976979558568 111.22182372390057 l -6.017680151199134 3.804420850090048 a28.11941657769342,28.11941657769342 0 0,0 -0.25513062714084145,-0.4113518063112298 l 6.082275418007931 -3.700272712413554" fill="#ff5908" stroke="none" /><path d="M 82.05923443525364 110.91462005526583 l -12.52965912747557 7.622666285050629 a35.66619920579219,35.66619920579219 0 0,0 -0.31457438971758317,-0.5272447714517606 l 12.659014392891386 -7.405859419712757" fill="#ffbd11" stroke="none" /><line stroke="#e1ed5e" stroke-width="0.3" x1="26.63291911575756" x2="22.317208475507996" y1="142.92168965132927" y2="145.44649492493687" /><path d="M 25.769776987707644 143.4266507060508 a86.0,86.0 0 0,1 -11.730757126820373,-40.83630448921669" fill="none" id="id9" stroke="none" /><text fill="#e1ed5e" style="font-size:6.75px; font-family:Arial;" text-anchor="middle"><textPath startOffset="21.46611528233685" xlink:href="#id9">September</textPath></text><path d="M 81.87401531095188 110.60418214915194 l -1.1639856753398377 0.6809625149780184 a22.34854462262156,22.34854462262156 0 0,0 -0.19139719710847675,-0.33371714607638925 l 1.1755348686006917 -0.6608255230433222" fill="#ff0701" stroke="none" /><path d="M 81.69416730710424 110.29060199501025 l -7.154020232153846 4.021623933114862 a29.206915653366302,29.206915653366302 0 0,0 -0.2425892903384217,-0.4403700267868521 l 7.222185931943785 -3.897883387930187" fill="#ff6809" stroke="none" /><path d="M 81.51974371655577 109.97397251340807 l -1.618275989331625 0.8733991557877726 a22.838924485393036,22.838924485393036 0 0,0 -0.18374185745944704,-0.34757034938635417 l 1.6330703550159582 -0.8454137913152923" fill="#ff0f01" stroke="none" /><path d="M 81.18737489456691 109.33194174019688 l -1.0982538711397034 0.5447852749939475 a22.22594965692869,22.22594965692869 0 0,0 -0.16706160819006657,-0.34419639488537146 l 1.1074687359444888 -0.5257999241432912" fill="#ff0600" stroke="none" /><path d="M 80.58989483394504 108.01547362559985 l -15.319441448020832 6.326219143844512 a37.574267251836005,37.574267251836005 0 0,0 -0.24172310842463288,-0.5999369315420947 l 15.426067170702854 -6.061582844459613" fill="#ffd513" stroke="none" /><path d="M 80.45479744820244 107.68017299344265 l -1.8256330943221335 0.7173718435401156 a22.961519451085906,22.961519451085906 0 0,0 -0.14138361020239604,-0.3691079922089832 l 1.8377109841180386 -0.6858402844979746" fill="#ff1001" stroke="none" /><path d="M 80.32549172779594 107.34259656027581 l -15.464108217480288 5.771260264014897 a37.50594099095652,37.50594099095652 0 0,0 -0.22052732288346677,-0.6067964798588595 l 15.561159801368978 -5.50421598714992" fill="#ffd513" stroke="none" /><path d="M 80.20201598880116 107.00284435728193 l -6.669607849227799 2.3591404895482557 a28.074546820249836,28.074546820249836 0 0,0 -0.157229720151191,-0.4569831643599513 l 6.709228400322219 -2.2439846220990076" fill="#ff5808" stroke="none" /><path d="M 80.0844068197444 106.66101706037122 l -12.210082600540192 4.083813511081985 a33.874923297065116,33.874923297065116 0 0,0 -0.18019482992915992,-0.5545826615570725 l 12.278569681485601 -3.873031949547109" fill="#ffa60f" stroke="none" /><path d="M 79.86692584326677 105.97154293290107 l -1.0969837935718674 0.3253693782188903 a22.144219679800113,22.144219679800113 0 0,0 -0.10524553211693763,-0.3663735042157409 l 1.102421962574909 -0.3064383984985534" fill="#ff0400" stroke="none" /><path d="M 79.76711848015287 105.62410040840567 l -4.124239306418628 1.1464079372401224 a25.280607552109345,25.280607552109345 0 0,0 -0.11293440122438242,-0.42027091958439605 l 4.143361783984785 -1.0752460844801874" fill="#ff3104" stroke="none" /><path d="M 79.4281124754447 104.21870165774334 l -1.1299404745036787 0.2317182488602496 a22.15345516721564,22.15345516721564 0 0,0 -0.07339130289541716,-0.3742206723135825 l 1.1337617103747624 -0.2122338494787122" fill="#ff0500" stroke="none" /><path d="M 79.29508885075956 103.50808413554451 l -0.8863967172116004 0.1501843808473828 a21.899029748414375,21.899029748414375 0 0,0 -0.05977209363661982,-0.3722008841321566 l 0.888850565209511 -0.13490426702201258" fill="#ff0100" stroke="none" /><path d="M 79.23777060512086 103.15116336523772 l -14.64866133763691 2.223283640644138 a35.81641890375452,35.81641890375452 0 0,0 -0.08726576487607726,-0.610336556293111 l 14.684761153529585 -1.9708016123706265" fill="#ffbf11" stroke="none" /><path d="M 79.18660465613746 102.79330883721812 l -1.9238385823224637 0.25819311191660865 a22.941086956803762,22.941086956803762 0 0,0 -0.04915782329966606,-0.39183621851210537 l 1.9279979148689779 -0.22503913911709472" fill="#ff1001" stroke="none" /><path d="M 79.10278846688536 102.07522291339032 l -9.615068824733614 0.9548360606530214 a30.66236308607204,30.66236308607204 0 0,0 -0.04763676070390488,-0.5256676848603503 l 9.630080181714593 -0.7891869872441049" fill="#ff7c0b" stroke="none" /><path d="M 79.07016306316243 101.71520430193888 l -8.537824485643519 0.6996764155959807 a29.566445822754922,29.566445822754922 0 0,0 -0.03720224984293676,-0.5075951417817278 l 8.54860329415079 -0.5526081373174921" fill="#ff6d0a" stroke="none" /><path d="M 79.04373962182676 101.35467743843564 l -5.9339609333603835 0.3835895742808354 a26.946346215966926,26.946346215966926 0 0,0 -0.025937332727268822,-0.46312849956000085 l 5.939684616975184 -0.2813893583853969" fill="#ff4906" stroke="none" /><path d="M 79.0235259727143 100.99374915477108 l -28.72227254106959 1.3607021858709312 a49.754485743308194,49.754485743308194 0 0,0 -0.033164603880554706,-0.8558310625524111 l 28.741439277801344 -0.8660938763045232" fill="#99ff23" stroke="none" /><line stroke="#e1ed5e" stroke-width="0.3" x1="15.007084014347285" x2="10.007500721073583" y1="101.09737516637583" y2="101.16192664675087" /><path d="M 14.007167355692545 101.11028546245083 a86.0,86.0 0 0,1 10.666146001902534,-42.60595125391555" fill="none" id="id10" stroke="none" /><text fill="#e1ed5e" style="font-size:6.75px; font-family:Arial;" text-anchor="middle"><textPath startOffset="22.20632615414155" xlink:href="#id10">October</textPath></text><path d="M 79.00019446554 99.90962569577889 l -8.183056452058642 -0.03521642293512627 a29.183132230021883,29.183132230021883 0 0,0 0.0064855938285846675,-0.5023163893990359 l 8.181237851112341 0.1760690703946341" fill="#ff6809" stroke="none" /><path d="M 79.00486145842228 99.54816195383935 l -25.89039348046921 -0.5571892169884445 a46.89638844312177,46.89638844312177 0 0,0 0.024315343156926933,-0.8069078629739708 l 25.87696644285664 1.0027672273874095" fill="#b9ff1f" stroke="none" /><path d="M 79.21141760316559 97.0276538004421 l -9.69623770489079 -1.3863655896291824 a30.794847378997474,30.794847378997474 0 0,0 0.07954471346413161,-0.5241002755716073 l 9.670937097987355 1.5530649775928818" fill="#ff7d0b" stroke="none" /><path d="M 79.26566170972629 96.67025291283419 l -1.1133633652158752 -0.17879608070365607 a22.12762849444301,22.12762849444301 0 0,0 0.06363077589292777,-0.37555244125176795 l 1.1101207278027245 0.19793431027125202" fill="#ff0400" stroke="none" /><path d="M 79.32604984820605 96.31383870115002 l -6.726380561198248 -1.1993123483406638 a27.83246262799498,27.83246262799498 0 0,0 0.0881550525479484,-0.47092781571096537 l 6.704739784740437 1.3149182415142018" fill="#ff5507" stroke="none" /><path d="M 79.54389044137918 95.25157060432595 l -17.102987005090394 -3.9700768132900968 a38.557724066624196,38.557724066624196 0 0,0 0.15563953797352012,-0.6452263652673164 l 17.03211466685606 4.2638884102168095" fill="#ffe215" stroke="none" /><path d="M 80.14247586403 93.16781622104843 l -9.635329229047844 -3.315133327438 a31.18968489850564,31.18968489850564 0 0,0 0.17903906785846013,-0.5061675544960385 l 9.576837080379574 3.4804985083606494" fill="#ff830c" stroke="none" /><path d="M 80.2630227832202 92.82701384747504 l -25.94376111128839 -9.428710240262891 a48.603972855269184,48.603972855269184 0 0,0 0.2925390071189272,-0.7838590978349338 l 25.777617515667835 9.873892475127166" fill="#a6ff21" stroke="none" /><path d="M 80.38941819471856 92.48833698450439 l -58.83174541584431 -22.534989046486853 a84.0,84.0 0 0,0 0.5288258004732356,-1.3458039804169464 l 58.435126065489385 23.544342031799562" fill="#4dd2ff" stroke="none" /><path d="M 80.52162464483688 92.15188598940014 l -5.268729068599444 -2.1228457541952794 a26.6803151404134,26.6803151404134 0 0,0 0.17530023221042026,-0.4245034169872214 l 5.231407149502823 2.213223741635812" fill="#ff4506" stroke="none" /><path d="M 80.65960295795068 91.81776055985345 l -14.197232550660782 -6.006348052958068 a36.41549963610701,36.41549963610701 0 0,0 0.2492021715918598,-0.5751929704572893 l 14.091739669226243 6.249840168001957" fill="#ffc712" stroke="none" /><path d="M 80.803312248108 91.48605970444005 l -37.74171550515428 -16.73886227748964 a62.287123896158825,62.287123896158825 0 0,0 0.44312152348108486,-0.9763595390067905 l 37.447991664709846 17.3860438253385" fill="#32ff4a" stroke="none" /><path d="M 80.95270993114464 91.15688171328213 l -22.061078798859754 -10.242335190238663 a45.32275946348811,45.32275946348811 0 0,0 0.3346153565378593,-0.7047852784238994 l 21.881505248480142 10.620562884303094" fill="#cbff1d" stroke="none" /><path d="M 81.10775173730289 90.83032412892265 l -6.646161918942497 -3.225828378707727 a28.387654362629423,28.387654362629423 0 0,0 0.21715202043313264,-0.4377652223972935 l 6.589649885555952 3.339753189603982" fill="#ff5d08" stroke="none" /><path d="M 81.26839172434947 90.50648371742162 l -22.73269191471778 -11.521337498806744 a46.485613578073526,46.485613578073526 0 0,0 0.3678795462114257,-0.7106261895727108 l 22.53100293534624 11.91093641063979" fill="#beff1f" stroke="none" /><path d="M 81.43458229118936 90.18545643968196 l -10.261918181843187 -5.424927388535009 a32.60761827170936,32.60761827170936 0 0,0 0.2665935219537271,-0.49395730764125134 l 10.167016560670989 5.600765679508733" fill="#ff960d" stroke="none" /><path d="M 81.6062741919709 89.86733742301443 l -12.228997247129383 -6.736661405812523 a34.96176853292096,34.96176853292096 0 0,0 0.29491476869093786,-0.5246204660269785 l 12.111224837146015 6.946165381774286" fill="#ffb410" stroke="none" /><line stroke="#e1ed5e" stroke-width="0.3" x1="26.266209847984243" x2="21.928928074336255" y1="57.711370442889674" y2="55.22380399835377" /><path d="M 25.398753493254645 57.213857153982495 a86.0,86.0 0 0,1 29.58750427330803,-30.492523968695096" fill="none" id="id11" stroke="none" /><text fill="#e1ed5e" style="font-size:6.75px; font-family:Arial;" text-anchor="middle"><textPath startOffset="21.46611528233685" xlink:href="#id11">November</textPath></text><path d="M 81.78341655067845 89.55222093294921 l -8.330136005018547 -4.777592945518015 a30.602945392699567,30.602945392699567 0 0,0 0.26601293400715464,-0.45470233357770845 l 8.246663396541067 4.920274691449616" fill="#ff7b0b" stroke="none" /><path d="M 81.96595687620814 89.24020034530311 l -8.415602924656698 -5.021070473283203 a30.799669447648057,30.799669447648057 0 0,0 0.27556053843903566,-0.4529490714287231 l 8.327926587931445 5.165187317919001" fill="#ff7d0b" stroke="none" /><path d="M 82.15384107792192 88.93136811851018 l -1.0418329718103105 -0.646170736084877 a22.22594965692869,22.22594965692869 0 0,0 0.204449529568816,-0.3233900571171422 l 1.030555845995532 0.6640084409162347" fill="#ff0600" stroke="none" /><path d="M 82.34701348167596 88.62581576622439 l -14.347467191672866 -9.244369781665215 a38.06775285373837,38.06775285373837 0 0,0 0.3596557262164203,-0.5477803455886835 l 14.186214830098525 9.489968191231567" fill="#ffdc14" stroke="none" /><path d="M 82.54541684631803 88.32363383020206 l -1.4265626819393142 -0.9543091400025036 a22.716329519700167,22.716329519700167 0 0,0 0.2202137580960918,-0.3231365170554972 l 1.409924458174482 0.9787236803284165" fill="#ff0d01" stroke="none" /><path d="M 82.7489923806493 88.02491185347247 l -12.211892846328498 -8.477098642440733 a35.86578380994018,35.86578380994018 0 0,0 0.35641602199889977,-0.5041251869296955 l 12.064164204525719 8.686050329702216" fill="#ffc011" stroke="none" /><path d="M 83.17141714833178 87.43820079747576 l -7.5189826377139015 -5.612590848246324 a30.382764834315175,30.382764834315175 0 0,0 0.3164496034179808,-0.41641058429249933 l 7.421257094071812 5.741186208419849" fill="#ff780b" stroke="none" /><path d="M 83.39014120810768 87.1503855733568 l -8.544510724379574 -6.610150612850984 a31.80290491690137,31.80290491690137 0 0,0 0.33869475761537743,-0.43010794718038126 l 8.429461886170225 6.756250953984414" fill="#ff8b0c" stroke="none" /><path d="M 83.6137871275137 86.86637796730984 l -8.353890215127299 -6.695679925670537 a31.706054894004,31.706054894004 0 0,0 0.34499435017088514,-0.42292228071836474 l 8.237397372880022 6.838486375996983" fill="#ff8a0c" stroke="none" /><path d="M 83.84228863543731 86.58626213691792 l -9.752719294618512 -8.096469674359488 a33.67550215287138,33.67550215287138 0 0,0 0.37410177322649485,-0.44281850172670817 l 9.611906907904892 8.263147125715312" fill="#ffa40f" stroke="none" /><path d="M 84.07557802195018 86.31012108654704 l -0.82118619208034 -0.7059558928088722 a22.082922196953678,22.082922196953678 0 0,0 0.2502816742310675,-0.28611521920818206 l 0.808912654271429 0.7199866682199972" fill="#ff0400" stroke="none" /><path d="M 84.31358615837235 86.03803664274999 l -4.913121787003906 -4.373008837610618 a27.577383369376687,27.577383369376687 0 0,0 0.31865844998802734,-0.3518706194392087 l 4.837119696399833 4.456932244319382" fill="#ff5207" stroke="none" /><path d="M 84.5562425177563 85.77008943001954 l -1.5659917314263867 -1.4429080693054817 a23.12939282410801,23.12939282410801 0 0,0 0.2723019871000735,-0.2904727741313642 l 1.5409224223558573 1.469650260314896" fill="#ff1302" stroke="none" /><path d="M 84.80347519578584 85.50635884689758 l -8.926633263645279 -8.513750406457655 a33.33566890797075,33.33566890797075 0 0,0 0.3996085313093848,-0.41183171809591057 l 8.778760468632775 8.666146320103689" fill="#ff9f0e" stroke="none" /><path d="M 85.05521093208273 85.24692304244772 l -6.1118394379186105 -6.033436615936284 a29.588185996671122,29.588185996671122 0 0,0 0.3609254281113317,-0.3593754996212984 l 6.007078209639966 6.137747966207692" fill="#ff6d0a" stroke="none" /><path d="M 85.31137513191541 84.99185889309783 l -1.7025962154330712 -1.7396321629003018 a23.43416390882048,23.43416390882048 0 0,0 0.2907139223895537,-0.2796665630064088 l 1.6723990494310899 1.768681812669024" fill="#ff1702" stroke="none" /><path d="M 85.57189188830299 84.74124197986013 l -5.665256693318427 -5.991414836657754 a29.245737392502377,29.245737392502377 0 0,0 0.36876384257812433,-0.3427258023409539 l 5.561284966945446 6.088045225073356" fill="#ff6809" stroke="none" /><path d="M 86.37877921826538 84.01681056812374 l -3.420312144750545 -4.013406566245614 a26.273136394358815,26.273136394358815 0 0,0 0.3467334158162781,-0.2903792642269136 l 3.3507211919751563 4.07168698786634" fill="#ff3f05" stroke="none" /><path d="M 86.65592168130627 83.78471172551755 l -0.5737653672397504 -0.6972209402183424 a21.902952787316543,21.902952787316543 0 0,0 0.29318312332937535,-0.23706702954612308 l 0.5616788453458745 0.7069940670285998" fill="#ff0100" stroke="none" /><path d="M 86.93701828274178 83.55741782278169 l -0.6127220713349466 -0.7712429847781225 a21.98500968435364,21.98500968435364 0 0,0 0.2983339064069304,-0.2328543460446193 l 0.5993556097685905 0.7816757200459635" fill="#ff0200" stroke="none" /><path d="M 87.22198572758235 83.33499621200491 l -0.6439641379765584 -0.8398538747822092 a22.058321473837974,22.058321473837974 0 0,0 0.30330596034307694,-0.2284437611384063 l 0.6294120238750914 0.8508142254264698" fill="#ff0300" stroke="none" /><path d="M 88.09926311788651 82.69761687909137 l -3.0612904938564647 -4.450784980273713 a26.401942838313456,26.401942838313456 0 0,0 0.3766618158526474,-0.2543237394458273 l 2.9842239835972775 4.502820632018206" fill="#ff4106" stroke="none" /><path d="M 88.39885842347998 82.49532879139004 l -5.394088132179184 -8.139004131728315 a30.764198637574253,30.764198637574253 0 0,0 0.4439317434527194,-0.28874555470645963 l 5.2531893629421775 8.23064861059431" fill="#ff7d0b" stroke="none" /><path d="M 88.70189139769569 82.29822771554957 l -4.971774000606928 -7.7897296181544 a30.241126783951344,30.241126783951344 0 0,0 0.4412048598707381,-0.2762824427748458 l 4.836949988363947 7.874156402252176" fill="#ff760a" stroke="none" /><path d="M 89.00827224532344 82.1063720568725 l -4.807133202667694 -7.82561712966314 a30.184160989892725,30.184160989892725 0 0,0 0.44505529723162957,-0.26814083682435086 l 4.671715839218415 7.90720457594611" fill="#ff750a" stroke="none" /><line stroke="#e1ed5e" stroke-width="0.3" x1="56.762969772571076" x2="54.21961505331055" y1="26.818313649435495" y2="22.513508569990535" /><path d="M 56.25429882871897 25.957352633546506 a86.0,86.0 0 0,1 42.265352541879196,-11.944610805530505" fill="none" id="id12" stroke="none" /><text fill="#e1ed5e" style="font-size:6.75px; font-family:Arial;" text-anchor="middle"><textPath startOffset="22.20632615414155" xlink:href="#id12">December</textPath></text><path d="M 89.3179101791058 81.91981866633112 l -0.7483259629260979 -1.2665938344697074 a22.47113958831443,22.47113958831443 0 0,0 0.3347164708786978,-0.19388938438621434 l 0.7264127595820798 1.2792873762459689" fill="#ff0901" stroke="none" /><path d="M 89.63071344664047 81.73862282372117 l -1.2634335702353432 -2.2250361048962533 a23.558720393964435,23.558720393964435 0 0,0 0.35436344117811874,-0.19720287135446715 l 1.2249460399851788 2.246454373810905" fill="#ff1902" stroke="none" /><path d="M 89.94658935756843 81.56283822128135 l -16.88455104203291 -30.964934209401775 a56.269182220227265,56.269182220227265 0 0,0 0.8543670227962321,-0.4563732749740107 l 16.34903897270837 31.250986210877535" fill="#55ff2b" stroke="none" /><path d="M 90.58718382345135 81.22770947309562 l -0.5586650511942303 -1.1141641833370413 a22.246382151210835,22.246382151210835 0 0,0 0.34379001014925364,-0.16869626491661682 l 0.5394037740345508 1.1236156083884876" fill="#ff0601" stroke="none" /><path d="M 91.23893434514133 80.91482961587045 l -1.186651575716563 -2.5850105913299135 a23.84436666402882,23.84436666402882 0 0,0 0.3744904047443548,-0.1680229284755086 l 1.1419790525054339 2.605053850321951" fill="#ff1d02" stroke="none" /><path d="M 91.56875222667455 80.76684994638697 l -0.5988482761974646 -1.3660776038266649 a22.491572082596573,22.491572082596573 0 0,0 0.35591974837509066,-0.15238626156051718 l 0.5752447700320656 1.3761833933499683" fill="#ff0a01" stroke="none" /><path d="M 91.90106846888425 80.62456947434976 l -3.728594758171681 -8.920081422802992 a30.668002454493916,30.668002454493916 0 0,0 0.4888131004296311,-0.19939913703126122 l 3.5744977881536695 8.982941446017831" fill="#ff7c0b" stroke="none" /><path d="M 92.23578459929587 80.48803036053334 l -2.602398289921299 -6.539993264243968 a28.038749090267515,28.038749090267515 0 0,0 0.44997764170334104,-0.17458433415879238 l 2.4894374832182815 6.583820302293312" fill="#ff5808" stroke="none" /><path d="M 92.57280143429618 80.3572730644239 l -2.4664283538826677 -6.522968011814394 a27.973692028473167,27.973692028473167 0 0,0 0.45186527378348007,-0.16642579378236985 l 2.353780754326618 6.564457073403085" fill="#ff5708" stroke="none" /><path d="M 92.91201910852362 80.23233633223022 l -0.7109396620081292 -1.9827389974420977 a23.10634497055775,23.10634497055775 0 0,0 0.37555292184634087,-0.13102304025726752 l 0.6767047360985031 1.994682890871575" fill="#ff1202" stroke="none" /><path d="M 93.25333710446033 80.11325718540243 l -3.053127293160236 -8.999524387004268 a30.50331655057983,30.50331655057983 0 0,0 0.49868155001864156,-0.16440746657627633 l 2.897762920899185 9.050745577839779" fill="#ff790b" stroke="none" /><path d="M 93.59665428221793 80.00007090966166 l -2.530848023848188 -7.9047396855090915 a29.30000609731575,29.30000609731575 0 0,0 0.48165669925991583,-0.1496530810447274 l 2.394405951877544 7.947132901436344" fill="#ff6909" stroke="none" /><path d="M 93.94186890950719 79.89281104454417 l -0.6044605371357566 -2.006229653131572 a23.09531142364539,23.09531142364539 0 0,0 0.3816332851775699,-0.11140922101706395 l 0.5698370342347654 2.016337203067335" fill="#ff1202" stroke="none" /><path d="M 94.28887869178378 79.79150937346287 l -4.889569390530566 -17.301474065029385 a38.97912382869916,38.97912382869916 0 0,0 0.6472429883465377,-0.1769159584606415 l 4.591028512960306 17.383076564316323" fill="#ffe715" stroke="none" /><path d="M 94.63758080256005 79.69619591428918 l -2.1616122147714973 -8.184543076929305 a29.46518238109261,29.46518238109261 0 0,0 0.4914948324462908,-0.1252929763795034 l 2.020408493640207 8.220539049477672" fill="#ff6b09" stroke="none" /><path d="M 95.33964822691252 79.52364482259891 l -0.3400807534156915 -1.4942250360050529 a22.532437071160864,22.532437071160864 0 0,0 0.37892829020158986,-0.08281904747132798 l 0.31430973906058063 1.4998575815722492" fill="#ff0a01" stroke="none" /><path d="M 95.692805502759 79.44645832069477 l -1.1667177513928757 -5.56747134279619 a26.688406408149127,26.688406408149127 0 0,0 0.45044131946859906,-0.09035429115347728 l 1.0707100224571402 5.586729590026878" fill="#ff4506" stroke="none" /><path d="M 96.04723909329186 79.375362276772 l -0.18432826852128514 -0.9617843958003164 a21.979288585954638,21.979288585954638 0 0,0 0.3721877264691885,-0.06801492804816762 l 0.16774542094920336 0.9648148051992202" fill="#ff0200" stroke="none" /><path d="M 96.40284397218896 79.31037775812273 l -0.2799956951246929 -1.6104403358357888 a22.63459954257159,22.63459954257159 0 0,0 0.38443336131321065,-0.06343479856882606 l 0.25223312767259654 1.615021397344242" fill="#ff0c01" stroke="none" /><path d="M 97.11714578562143 79.19881850522333 l -0.9175881595882464 -6.620840467705585 a27.68412271950661,27.68412271950661 0 0,0 0.4725881071011481,-0.061355499671221794 l 0.8034853239792404 6.635654290540943" fill="#ff5307" stroke="none" /><path d="M 97.83486435360386 79.11191278185805 l -0.222838775953274 -2.1498310258036994 a23.161349245165283,23.161349245165283 0 0,0 0.39691369600107174,-0.0376917380355837 l 0.1857999528619659 2.1533483083544636" fill="#ff1302" stroke="none" /><path d="M 98.19473922651362 79.07773832637324 l -1.210253608628882 -14.02636287403692 a35.078478940260574,35.078478940260574 0 0,0 0.6020299024912696,-0.046729107199111435 l 0.9686335167752783 14.045117243424494" fill="#ffb610" stroke="none" /><path d="M 98.55514903715128 79.0497635885617 l -0.07537365118693 -1.0929125924836387 a22.095508613431477,22.095508613431477 0 0,0 0.37966181228176554,-0.022902237328270587 l 0.05654979006554144 1.0940480991922157" fill="#ff0400" stroke="none" /><path d="M 98.91598698831166 79.02799685794201 l -0.06433783187850696 -1.244720494828506 a22.246382151210835,22.246382151210835 0 0,0 0.3825945171466811,-0.016475324717283576 l 0.04290248234250178 1.245643546069982" fill="#ff0601" stroke="none" /><path d="M 99.27714615592234 79.0124445844662 l -1.1137653212765313 -32.33739654524079 a53.35657102529607,53.35657102529607 0 0,0 0.9181735050416507,-0.023713712759525673 l 0.5569651810400016 32.35177705014267" fill="#73ff27" stroke="none" /><path d="M 99.63851952072746 79.00311137660856 l -0.03130235030952584 -1.818222561899274 a22.818491991110893,22.818491991110893 0 0,0 0.3927828295820611,-0.0033808058201776343 l 4.454020792378104e-16 1.8184919911108928" fill="#ff0e01" stroke="none" /></svg>