<?xml version="1.0" encoding="utf-8" ?>
<svg baseProfile="full" height="200mm" version="1.1" viewBox="0,0,200,200" width="200mm" xmlns="http://www.w3.org/2000/svg" xmlns:ev="http://www.w3.org/2001/xml-events" xmlns:xlink="http://www.w3.org/1999/xlink"><defs /><rect fill="#1a1a1a" height="200" width="200" x="0" y="0" /><text alignment-baseline="middle" fill="#e1ed5e" style="dominant-baseline: central; font-size:9.0px; font-family:Arial;" text-anchor="middle" x="100.0" y="100.0">2024</text><line stroke="#e1ed5e" stroke-width="0.3" x1="100.0" x2="100.0" y1="15.0" y2="10.0" /><path d="M 100.0 14.0 a86.0,86.0 0 0,1 42.35913384403234,11.155469271406648" fill="none" id="id13" stroke="none" /><text fill="#e1ed5e" style="font-size:6.75px; font-family:Arial;" text-anchor="middle"><textPath startOffset="22.145653131862478" xlink:href="#id13">January</textPath></text><path d="M 100.36049292484886 79.00309439819443 l 0.02889263150448491 -1.682850936788227 a22.68309894528048,22.68309894528048 0 0,0 0.38927080264262354,0.010026235037475583 l -0.05777674821784982 1.6821069844007062" fill="#ff0e01" stroke="none" /><path d="M 100.72087961077811 79.0123766808444 l 0.275661052211966 -8.025570762560513 a29.03030354847018,29.03030354847018 0 0,0 0.4979032142903377,0.021382106367300965 l -0.41339002710313993 8.019656087767382" fill="#ff6709" stroke="none" /><path d="M 101.08105385017728 79.02784411241856 l 0.05350165137935315 -1.0379177436783855 a22.039295756434495,22.039295756434495 0 0,0 0.37766500252266705,0.022719388726831956 l -0.07131100603448257 1.0368463771268617" fill="#ff0500" stroke="none" /><path d="M 101.44090949804482 79.04949213459386 l 0.09355065251349264 -1.3602059560001916 a22.363419219214727,22.363419219214727 0 0,0 0.3827669642964387,0.02962858382401369 l -0.11688661158516479 1.3583996051811242" fill="#ff0901" stroke="none" /><path d="M 102.15924093988457 79.11130261209362 l 3.099521337803071 -29.985057284152962 a51.14482862544472,51.14482862544472 0 0,0 0.8725407578703199,0.09777001186522787 l -3.6137979972741876 29.927431511780764" fill="#8aff24" stroke="none" /><path d="M 102.87502721639298 79.19773525538626 l 0.21665505582703587 -1.5676080573690927 a22.582508905107304,22.582508905107304 0 0,0 0.3835530466115585,0.056369089477340706 l -0.24353320804627637 1.5636578945928696" fill="#ff0d01" stroke="none" /><path d="M 103.23170211078529 79.25015418208739 l 1.0757155232881395 -6.906865325758672 a27.990132510561622,27.990132510561622 0 0,0 0.4741295155491623,0.07801783135617409 l -1.1941225418903723 6.88738149590683" fill="#ff5908" stroke="none" /><path d="M 103.58742460773223 79.30868818359171 l 1.6228426692880005 -9.360125262795977 a30.49976648473494,30.49976648473494 0 0,0 0.5151051336637695,0.09386931440834966 l -1.7832825365028235 9.330887774456261" fill="#ff7b0b" stroke="none" /><path d="M 103.94208987418118 79.37332000966035 l 0.35708876000265244 -1.8684392836811812 a22.902255960517216,22.902255960517216 0 0,0 0.38552514149106787,0.07711582555951442 l -0.38911038702467726 1.8620340614588076" fill="#ff1101" stroke="none" /><path d="M 104.29559338865022 79.4440306129975 l 2.907578578469148 -13.913816053268656 a35.214369150763225,35.214369150763225 0 0,0 0.5906582995212645,0.12873122725928807 l -3.1459992946095467 13.86185336787565" fill="#ffb911" stroke="none" /><path d="M 104.64783097203109 79.52079915486377 l 0.3017591464251735 -1.3296064774484389 a22.363419219214727,22.363419219214727 0 0,0 0.37364784459323497,0.08817987393366913 l -0.32453914475829343 1.3242304598685422" fill="#ff0901" stroke="none" /><path d="M 104.9986988182912 79.60360301121754 l 1.1273127625826345 -4.599820767760652 a25.73594606812661,25.73594606812661 0 0,0 0.42819063476381714,0.10884438493051043 l -1.2061086905718459 4.579791150994874" fill="#ff3905" stroke="none" /><path d="M 105.3480935250658 79.69241777938227 l 0.23907838317661673 -0.907819562387282 a21.938773045605476,21.938773045605476 0 0,0 0.3633673002825819,0.09903737351462928 l -0.2546270843938914 0.9035816947285107" fill="#ff0300" stroke="none" /><path d="M 105.69591212413111 79.78721728523813 l 2.508450239206813 -8.901604963509556 a30.248291384302004,30.248291384302004 0 0,0 0.4985782478685674,0.1451288615973003 l -2.660888499456985 8.85723240760974" fill="#ff770b" stroke="none" /><path d="M 106.38641147887787 79.99465700312896 l 0.23547230040994668 -0.7376136272370181 a21.774287457825647,21.774287457825647 0 0,0 0.355104683725106,0.1167299628156919 l -0.2480997217827951 0.7334627430193047" fill="#ff0100" stroke="none" /><path d="M 106.72888874123014 80.10723608172694 l 3.4067327884105367 -10.071400152189426 a31.631976736108513,31.631976736108513 0 0,0 0.5128812141643433,0.17840670978945591 l -3.5791197746198984 10.011435009831379" fill="#ff8a0c" stroke="none" /><path d="M 107.06938296918511 80.22567764915836 l 2.483602231801343 -6.947077465881093 a28.3776802155394,28.3776802155394 0 0,0 0.45730070646803095,0.16792715368986053 l -2.6024920899234987 6.9034194631825105" fill="#ff5e08" stroke="none" /><path d="M 107.74402155503746 80.48000691201159 l 0.5151927508751021 -1.2986222810190864 a22.397083891294102,22.397083891294102 0 0,0 0.35616220227814915,0.14484806704287437 l -0.5374094143436909 1.2895869573969183" fill="#ff0a01" stroke="none" /><path d="M 108.07796709384702 80.6158196554323 l 2.0683140158788995 -4.963200694829779 a26.376921424517928,26.376921424517928 0 0,0 0.4164600937788458,0.17776204978625412 l -2.1532091848281754 4.926963995384123" fill="#ff4206" stroke="none" /><path d="M 108.73861861582097 80.90454125486305 l 0.6023741616913683 -1.3162962545234442 a22.447580899413165,22.447580899413165 0 0,0 0.34901850047337285,0.16335828119874435 l -0.6248813760362462 1.3057617417541665" fill="#ff0b01" stroke="none" /><path d="M 109.06512990194946 81.05736502329252 l 0.39039100664738924 -0.815767056522883 a21.904367750740356,21.904367750740356 0 0,0 0.33778595202246536,0.16522803580410222 l -0.4043372079319217 0.8089452706215595" fill="#ff0300" stroke="none" /><path d="M 109.71004243097381 81.37971332152246 l 0.3613795864014303 -0.6929930066092853 a21.781559026994792,21.781559026994792 0 0,0 0.3300540805711889,0.17573520753413774 l -0.37322248275917874 0.6866873313525744" fill="#ff0100" stroke="none" /><path d="M 110.34350942703115 81.72400993836675 l 0.38485589992304103 -0.6800034989839275 a21.781357038962316,21.781357038962316 0 0,0 0.32382398703742793,0.18695986608611692 l -0.3964723548208664 0.6732967356216389" fill="#ff0100" stroke="none" /><line stroke="#e1ed5e" stroke-width="0.3" x1="143.13028292997686" x2="145.6673583964461" y1="26.7553504044142" y2="22.446841604673864" /><path d="M 143.63769802327073 25.89364864446614 a86.0,86.0 0 0,1 29.32050498858742,28.57503671076993" fill="none" id="id14" stroke="none" /><text fill="#e1ed5e" style="font-size:6.75px; font-family:Arial;" text-anchor="middle"><textPath startOffset="20.669276256404974" xlink:href="#id14">February</textPath></text><path d="M 110.65571695917076 81.90426304109057 l 3.930798770239072 -6.675355666559148 a28.74671235087352,28.74671235087352 0 0,0 0.4230793878248018,0.2540470163306307 l -4.044810914621308 6.606894649692596" fill="#ff6309" stroke="none" /><path d="M 111.27062007382361 82.28071324371311 l 7.3437979016858135 -11.545670073859817 a34.68334261338315,34.68334261338315 0 0,0 0.49962902199529513,0.3238534957107573 l -7.5409125559381165 11.417902736445164" fill="#ffb210" stroke="none" /><path d="M 111.5731344415666 82.4767994020092 l 0.4916453838812191 -0.7444137738419456 a21.892113810103464,21.892113810103464 0 0,0 0.3118101191430882,0.20979976380295107 l -0.5043517911213082 0.7358643359818757" fill="#ff0300" stroke="none" /><path d="M 111.8722381534696 82.67804972795209 l 3.8977828989299566 -5.686981736192001 a27.894524841856196,27.894524841856196 0 0,0 0.392655165363246,0.27410380056046213 l -3.9948331554669636 5.619233119826412" fill="#ff5708" stroke="none" /><path d="M 112.16784306229584 82.88440491214696 l 0.6046866592747849 -0.8505675132549751 a22.043604834460655,22.043604834460655 0 0,0 0.30653101007022465,0.22190481229341635 l -0.6191986797189775 0.840061929588484" fill="#ff0500" stroke="none" /><path d="M 112.45986205192187 83.09580414077388 l 5.0016472449583915 -6.785695081952701 a29.429835876708214,29.429835876708214 0 0,0 0.4040954862807386,0.30324078640297697 l -5.117395720149896 6.698835268285709" fill="#ff6c0a" stroke="none" /><path d="M 113.03279911837588 83.53348406188908 l 4.2521485131997565 -5.372450739695277 a27.851568720282913,27.851568720282913 0 0,0 0.37234792679128464,0.2999371326962915 l -4.343747210346301 5.298665313205577" fill="#ff5708" stroke="none" /><path d="M 113.31354834802062 83.75963576809568 l 8.644979805988637 -10.545469709251973 a34.63607741378371,34.63607741378371 0 0,0 0.4565788186709955,0.38089428932374325 l -8.824732958821526 10.39551323601636" fill="#ffb110" stroke="none" /><path d="M 113.86319453409587 84.22622945171908 l 5.877885200601177 -6.687954369780177 a29.90383445958583,29.90383445958583 0 0,0 0.3826764833988103,0.34219167115550886 l -5.9918267108233625 6.586067168741281" fill="#ff730a" stroke="none" /><path d="M 114.13192950727249 84.46653392183569 l 2.2683153030704846 -2.4932758684292917 a24.3707089566196,24.3707089566196 0 0,0 0.30703638294731667,0.2841882922689964 l -2.3107814573317658 2.4539698300279205" fill="#ff2603" stroke="none" /><path d="M 114.39649973595853 84.71141617570332 l 2.529890970903743 -2.6866565404356573 a24.690321353341194,24.690321353341194 0 0,0 0.30607476100485315,0.2932126973514479 l -2.5756382177739083 2.642831712778629" fill="#ff2b04" stroke="none" /><path d="M 114.65682725009322 84.96080404539774 l 9.001059054648522 -9.235879540092496 a33.89653189754398,33.89653189754398 0 0,0 0.41322790692112915,0.4096960656913587 l -9.158278881699614 9.080003464172478" fill="#ffa80f" stroke="none" /><path d="M 114.91283532996326 85.21462403516908 l 20.168973911718602 -19.99659055514837 a49.401604575830476,49.401604575830476 0 0,0 0.5919093216955904,0.6073511084248491 l -20.509270034565006 19.64741675465578" fill="#9dff22" stroke="none" /><path d="M 115.41159269507618 85.73525988315684 l 0.6362785868142292 -0.5889299608675093 a21.866999964732248,21.866999964732248 0 0,0 0.25261830795879175,0.2776717726607527 l -0.6462945956148985 0.5779206126490848" fill="#ff0200" stroke="none" /><path d="M 115.6541949942343 86.00192230759917 l 6.7373840122818045 -6.024610328553847 a30.038156501182538,30.038156501182538 0 0,0 0.34041661458865663,0.38733161798585597 l -6.839811690829052 5.908066432756693" fill="#ff750a" stroke="none" /><path d="M 115.8921839302757 86.27271002978787 l 0.7006019960733881 -0.6051633177669851 a21.92577848218284,21.92577848218284 0 0,0 0.2435906342491445,0.28694915464555654 l -0.7108871938296447 0.5930473806718766" fill="#ff0300" stroke="none" /><path d="M 116.1254893667686 86.54754324733833 l 5.272973447177124 -4.398901989434522 a27.866919810751106,27.866919810751106 0 0,0 0.3032891981318699,0.36996350758706714 l -5.347709464547622 4.30773620014896" fill="#ff5708" stroke="none" /><path d="M 116.57777611688842 87.10902102172516 l 0.7175383672890332 -0.5579621743959667 a21.90894614614315,21.90894614614315 0 0,0 0.22832045439687668,0.2988788039905614 l -0.7270107990402166 0.5455624571645235" fill="#ff0300" stroke="none" /><path d="M 116.7966241395341 87.39550010848427 l 21.480530331701132 -16.11939041955232 a47.856059480666325,47.856059480666325 0 0,0 0.48744354636146836,0.6613107868829907 l -21.754075897646427 15.748273323400456" fill="#aeff20" stroke="none" /><path d="M 117.01052211995028 87.68569379921539 l 1.1725765195183409 -0.848854973608614 a22.447580899413165,22.447580899413165 0 0,0 0.22328384401974555,0.31407668921563536 l -1.186975462068047 0.8286010576834746" fill="#ff0b01" stroke="none" /><path d="M 117.21940702142032 87.97951657250589 l 6.20744000132768 -4.333275215011949 a28.570309469177587,28.570309469177587 0 0,0 0.2772820139133665,0.4045627449729852 l -6.2809117520563715 4.226077734968915" fill="#ff6108" stroke="none" /><path d="M 117.42321728460499 88.27688183743584 l 0.8658549423843918 -0.5825858471145464 a22.043604834460655,22.043604834460655 0 0,0 0.20854883612839542,0.3157695184832461 l -0.8757282174335115 0.5676364502922415" fill="#ff0500" stroke="none" /><path d="M 117.62189284568427 88.57770195909679 l 5.975856358576932 -3.873477893381313 a28.12142473167119,28.12142473167119 0 0,0 0.2590951510405967,0.4073406119965416 l -6.041469201243419 3.7703236067060995" fill="#ff5b08" stroke="none" /><path d="M 117.81537515405839 88.88188828441811 l 3.0844222073096788 -1.9249075802413673 a24.635784584572605,24.635784584572605 0 0,0 0.2208211371234439,0.36069473213842534 l -3.1170113088885247 1.8716757319783874" fill="#ff2a04" stroke="none" /><line stroke="#e1ed5e" stroke-width="0.3" x1="172.87174338648825" x2="177.1583165268699" y1="56.24261187166439" y2="53.66864786411523" /><path d="M 173.72905801456457 55.72781907015455 a86.0,86.0 0 0,1 12.242430191666344,42.057860355516425" fill="none" id="id15" stroke="none" /><text fill="#e1ed5e" style="font-size:6.75px; font-family:Arial;" text-anchor="middle"><textPath startOffset="22.145653131862474" xlink:href="#id15">March</textPath></text><path d="M 118.00360718960297 89.18935116829356 l 1.6973281025530926 -1.0191967573856378 a22.9798193649881,22.9798193649881 0 0,0 0.20017205230120907,0.3399359065980314 l -1.7145738649840696 0.9899096824940499" fill="#ff1202" stroke="none" /><path d="M 118.18653347947321 89.5 l 19.68206015907645 -11.363442731049199 a43.726885462098394,43.726885462098394 0 0,0 0.3697350433143108,0.6532863942087938 l -19.874228567412136 11.023899566741289" fill="#ddff1b" stroke="none" /><path d="M 118.36410011445183 89.81374322990088 l 3.0193344803271276 -1.6747739393569498 a24.452716097804956,24.452716097804956 0 0,0 0.2004594662272823,0.3688228396379752 l -3.047639296169751 1.6226962662443714" fill="#ff2703" stroke="none" /><path d="M 118.53625476483649 90.13048839642627 l 0.6345360809111465 -0.33785472269829353 a21.718875407582996,21.718875407582996 0 0,0 0.17239815625631413,0.3305961961704394 l -0.6402423061424052 0.32691228342335593" fill="#ff0000" stroke="none" /><path d="M 118.70294669586156 90.45014215332178 l 1.4610980642002267 -0.7460470823165194 a22.64054679977215,22.64054679977215 0 0,0 0.173771680862905,0.34765976676001265 l -1.4736896582748686 0.7208554593927563" fill="#ff0d01" stroke="none" /><path d="M 118.8641267826498 90.77261029715802 l 4.118782965136604 -2.0147031430947497 a25.585128337211003,25.585128337211003 0 0,0 0.18959888842988856,0.3961887556343269 l -4.152761111526405 1.9437018853953194" fill="#ff3705" stroke="none" /><path d="M 119.16976305983485 91.42560881287824 l 8.656088410336078 -3.871758244943686 a30.482530172630298,30.482530172630298 0 0,0 0.20955450225348607,0.47950171072485304 l -8.721276794606535 3.722594464442984" fill="#ff7b0b" stroke="none" /><path d="M 119.31412917781788 91.75594674310238 l 6.375155620511069 -2.721174844210155 a27.93162331048767,27.93162331048767 0 0,0 0.18444734634795032,0.44260648553630905 l -6.420928811395503 2.6113358492325682" fill="#ff5808" stroke="none" /><path d="M 119.4528033332814 92.08871423366111 l 1.5436274352074164 -0.6277798396179355 a22.66640126792911,22.66640126792911 0 0,0 0.143490543728953,0.3616899051577237 l -1.5541766539024937 0.6011889172466465" fill="#ff0e01" stroke="none" /><path d="M 119.58574465831526 92.42381321644754 l 0.7139165405340372 -0.27615825455261056 a21.76546731374085,21.76546731374085 0 0,0 0.13180474260702704,0.34962773911057365 l -0.7185519669555048 0.2638622352478792" fill="#ff0100" stroke="none" /><path d="M 119.71291397450082 92.76114493625339 l 8.860708330312882 -3.253774832489795 a30.439237404336225,30.439237404336225 0 0,0 0.1759095559705851,0.4920503358664107 l -8.91525805632741 3.1011895402424674" fill="#ff7a0b" stroke="none" /><path d="M 119.83427380445688 93.10060997987247 l 9.286507220226547 -3.230329270874341 a30.83230611553502,30.83230611553502 0 0,0 0.16959908775656288,0.5013895671692988 l -9.340591729555474 3.0704380292308806" fill="#ff7f0b" stroke="none" /><path d="M 120.05942366710727 93.78553927170692 l 2.162869954733788 -0.670062640739691 a23.264285844058826,23.264285844058826 0 0,0 0.11490749239206191,0.3824896705366742 l -2.1740537671294775 0.6328353666122933" fill="#ff1602" stroke="none" /><path d="M 120.16314734710363 94.1308016681162 l 16.373928290436815 -4.766211889158335 a38.05351293524948,38.05351293524948 0 0,0 0.17718713698419483,0.6287746407707505 l -16.45333391949559 4.484429324484571" fill="#ffdd14" stroke="none" /><path d="M 120.26092885502905 94.47779374421319 l 10.287677883927264 -2.803952354535885 a31.662948234421542,31.662948234421542 0 0,0 0.1384281769835805,0.525634335407344 l -10.334295541715575 2.6269375147557423" fill="#ff8a0c" stroke="none" /><path d="M 120.35273937422433 94.82641323984039 l 0.7268656818789537 -0.18476641394749158 a21.74998156458434,21.74998156458434 0 0,0 0.08887712934676423,0.3626490171295486 l -0.7299303377420091 0.17226157220984806" fill="#ff0000" stroke="none" /><path d="M 120.43855184770803 95.1765574152323 l 2.143658419836099 -0.5058975502020604 a23.20254483546525,23.20254483546525 0 0,0 0.08815766962339949,0.3884389585423784 l -2.152026951017165 0.4690242577206557" fill="#ff1502" stroke="none" /><path d="M 120.77682067341334 96.94652285012252 l 28.204281098269455 -4.145058053684338 a49.50724431681556,49.50724431681556 0 0,0 0.11635495129883992,0.8418864654442714 l -28.271280566123508 3.660283280039981" fill="#9bff22" stroke="none" /><path d="M 120.86939407059847 97.66154086499901 l 1.3382120150132777 -0.1499494475253892 a22.34658688317504,22.34658688317504 0 0,0 0.03944450056951817,0.38158976184372057 l -1.340588908064462 0.1269551633987372" fill="#ff0901" stroke="none" /><path d="M 120.93736805541906 98.37931529534042 l 6.985395473908514 -0.5407137884091217 a28.006291553159723,28.006291553159723 0 0,0 0.0329887959753067,0.4796498534354677 l -6.993648231048886 0.4207205108193199" fill="#ff5908" stroke="none" /><path d="M 120.96210409425399 98.7389718711861 l 5.85716359154248 -0.3523524170469318 a26.867752343435228,26.867752343435228 0 0,0 0.023743941827076315,0.4606261282002442 l -5.862349122826128 0.251754495469957" fill="#ff4906" stroke="none" /><path d="M 120.98066250479742 99.09900007780936 l 3.785133507073164 -0.1625499192208202 a24.78862219581297,24.78862219581297 0 0,0 0.01460795040905063,0.4252945374875344 l -3.787366144479063 0.09754911716916587" fill="#ff2c04" stroke="none" /><path d="M 120.99303781780057 99.45929381324524 l 11.114408591395554 -0.28626773979286235 a32.118094600934704,32.118094600934704 0 0,0 0.009465001207542845,0.5512888691478187 l -11.117685024201762 0.09543195467597725" fill="#ff900d" stroke="none" /><line stroke="#e1ed5e" stroke-width="0.3" x1="184.99686870605535" x2="189.99668451229388" y1="99.2704041080226" y2="99.22748670261217" /><path d="M 185.99683186730306 99.26182062694052 a86.0,86.0 0 0,1 -10.086455211305974,41.156179273409016" fill="none" id="id16" stroke="none" /><text fill="#e1ed5e" style="font-size:6.75px; font-family:Arial;" text-anchor="middle"><textPath startOffset="21.40746469413373" xlink:href="#id16">April</textPath></text><path d="M 120.99922638620191 100.18025310272382 l 7.243427971984322 0.062176117457576126 a28.243694820663485,28.243694820663485 0 0,0 -0.008323239871619627,0.4847869953588823 l -7.241293300514034 -0.18651002878552947" fill="#ff5c08" stroke="none" /><path d="M 120.98066250479742 100.90099992219065 l 6.731241419091709 0.2890684692850517 a27.73744548193383,27.73744548193383 0 0,0 -0.02451251907998388,0.4755363215795877 l -6.725287310555152 -0.40457658424137" fill="#ff5507" stroke="none" /><path d="M 120.96210409425399 101.26102812881392 l 1.6297902133666697 0.09804413211001858 a22.632736595849735,22.632736595849735 0 0,0 -0.026659250065512813,0.3876196450514284 l -1.6278670021360908 -0.12600720131579046" fill="#ff0d01" stroke="none" /><path d="M 120.9064616781168 101.97986365728391 l 1.072471126451569 0.10156413071898955 a22.07726950654003,22.07726950654003 0 0,0 -0.03896912195928132,0.37699090501839017 l -1.0705696120106216 -0.11995955802031112" fill="#ff0500" stroke="none" /><path d="M 120.82617615685814 102.69636545807757 l 0.8847294933895531 0.11454594582080734 a21.892113810103464,21.892113810103464 0 0,0 -0.05145218384409598,0.37228237141915854 l -0.882632792990247 -0.12971662544005094" fill="#ff0300" stroke="none" /><path d="M 120.77682067341334 103.0534771498775 l 6.680031432532974 0.9817345810662869 a27.751786632239643,27.751786632239643 0 0,0 -0.07331560537399187,0.4707387795676452 l -6.662194335020715 -1.0962615425653826" fill="#ff5507" stroke="none" /><path d="M 120.65975698304385 103.76489593502545 l 1.142613622406907 0.2082222644649265 a22.161431186738472,22.161431186738472 0 0,0 -0.07141648651144668,0.3736812351626096 l -1.138870843613301 -0.22780606466085063" fill="#ff0601" stroke="none" /><path d="M 120.592083275326 104.11899336999214 l 61.776249825978006 12.356980109976403 a84.0,84.0 0 0,0 -0.2949691567025421,1.4115341948583637 l -61.555022958451104 -13.415630756120176" fill="#4dd2ff" stroke="none" /><path d="M 120.51834098615036 104.47187691870673 l 1.6117341821270015 0.3512699634443817 a22.649568931889423,22.649568931889423 0 0,0 -0.08605664719836932,0.37918146607304065 l -1.605466673370968 -0.3788857634564393" fill="#ff0d01" stroke="none" /><path d="M 120.35273937422433 105.17358676015961 l 1.076693038064702 0.2736911599006737 a22.110934178619406,22.110934178619406 0 0,0 -0.09666744508721345,0.3670620343426878 l -1.0718361121727582 -0.2921336986161647" fill="#ff0600" stroke="none" /><path d="M 120.26092885502905 105.52220625578681 l 12.99838389149436 3.5427673308724845 a34.4725344368221,34.4725344368221 0 0,0 -0.16051316186873543,0.5696045853599017 l -12.935652237551045 -3.765379840135395" fill="#ffaf10" stroke="none" /><path d="M 120.05942366710727 106.21446072829308 l 0.9807840264552582 0.30384939849183173 a22.026772498420968,22.026772498420968 0 0,0 -0.11499578397019664,0.3602226554187034 l -0.9754235267078066 -0.3206410876019187" fill="#ff0400" stroke="none" /><path d="M 119.94978838288452 106.5578916946017 l 12.81162835407039 4.211436711256671 a34.48606763499801,34.48606763499801 0 0,0 -0.18969731259446204,0.5608063976820319 l -12.737445619903564 -4.430744783412863" fill="#ffaf10" stroke="none" /><path d="M 119.83427380445688 106.89939002012753 l 1.9395511303397825 0.674676564623526 a23.053544996841932,23.053544996841932 0 0,0 -0.13322734765243047,0.3726606027584446 l -1.927683612643409 -0.707872123762892" fill="#ff1302" stroke="none" /><path d="M 119.58574465831526 107.57618678355244 l 0.675046425432397 0.26112245900611936 a21.723790449706584,21.723790449706584 0 0,0 -0.13752330891153547,0.34664857533154125 l -0.6704644415547372 -0.27267205155122476" fill="#ff0000" stroke="none" /><path d="M 119.16976305983485 108.57439118712176 l 2.3392175754937665 1.046302267872 a23.562554838682097,23.562554838682097 0 0,0 -0.168321393976523,0.36781262301383744 l -2.3209117166621875 -1.0863038731005263" fill="#ff1b02" stroke="none" /><path d="M 119.0197475246899 108.90220220490707 l 14.553567795549082 6.811804581034466 a37.068821276927736,37.068821276927736 0 0,0 -0.2746989273174713,0.5740151067828564 l -14.434489610271699 -7.060632189882426" fill="#ffd013" stroke="none" /><path d="M 118.8641267826498 109.22738970284198 l 0.7711377798163264 0.3772021303150971 a21.85844913802409,21.85844913802409 0 0,0 -0.1677688918630313,0.33565016765132377 l -0.7645489747415627 -0.3903841541301666" fill="#ff0200" stroke="none" /><path d="M 118.70294669586154 109.54985784667822 l 3.785806664418331 1.9330598577924618 a25.250770814118642,25.250770814118642 0 0,0 -0.20043332127982996,0.3843573216781045 l -3.752065274163552 -1.9977634225750691" fill="#ff3304" stroke="none" /><line stroke="#e1ed5e" stroke-width="0.3" x1="174.33088141563837" x2="178.70328620479359" y1="141.23008692659167" y2="143.65538615756765" /><path d="M 175.20536237346943 141.71514677278685 a86.0,86.0 0 0,1 -30.301960400862466,31.631185727798858" fill="none" id="id17" stroke="none" /><text fill="#e1ed5e" style="font-size:6.75px; font-family:Arial;" text-anchor="middle"><textPath startOffset="22.145653131862474" xlink:href="#id17">May</textPath></text><path d="M 118.00360718960297 110.81064883170644 l 12.351445923629003 7.416688391272872 a35.40713306308973,35.40713306308973 0 0,0 -0.3173693680601773,0.5183990114923388 l -12.222308591113421 -7.627624518889768" fill="#ffbb11" stroke="none" /><path d="M 117.81537515405839 111.11811171558189 l 11.596285120889085 7.236939572974112 a34.66920345110981,34.66920345110981 0 0,0 -0.31942273872439947,0.5021855999814571 l -11.470344690538795 -7.434938847634241" fill="#ffb210" stroke="none" /><path d="M 117.62189284568427 111.42229804090321 l 5.211430372649487 3.377986204835891 a27.210458705203276,27.210458705203276 0 0,0 -0.2574311024038408,0.3897834999118669 l -5.152674831324919 -3.466949583086819" fill="#ff4e07" stroke="none" /><path d="M 117.423217284605 111.72311816256416 l 3.0668023443163275 2.0634814842960356 a24.69638099431548,24.69638099431548 0 0,0 -0.2396845671505028,0.3497069465326548 l -3.030928040350504 -2.1158231658987345" fill="#ff2b04" stroke="none" /><path d="M 117.21940702142032 112.02048342749411 l 1.0489550595019952 0.7322520974877219 a22.279257539016285,22.279257539016285 0 0,0 -0.22160954837443086,0.31172158271271216 l -1.0362304125976038 -0.750150906909938" fill="#ff0801" stroke="none" /><path d="M 117.01052211995028 112.31430620078461 l 2.977253590721222 2.1553020004322914 a24.675508897626266,24.675508897626266 0 0,0 -0.2513353104258828,0.34098461893670584 l -2.939816260711511 -2.2060929286378745" fill="#ff2a04" stroke="none" /><path d="M 116.79662413953412 112.60449989151573 l 5.484892583870076 4.115965649052346 a27.85749370256888,27.85749370256888 0 0,0 -0.29031225774629127,0.3800280645385688 l -5.4134283487694805 -4.209514626831792" fill="#ff5708" stroke="none" /><path d="M 116.57777611688842 112.89097897827486 l 0.9168545804248767 0.7129516672837362 a22.161431186738472,22.161431186738472 0 0,0 -0.23610743340478146,0.2983140290856251 l -0.9044807163785336 -0.7285856402840442" fill="#ff0601" stroke="none" /><path d="M 114.65682725009322 115.03919595460226 l 5.597372651591012 5.743397442149256 a29.019800170781416,29.019800170781416 0 0,0 -0.3597453542449961,0.3446279115975685 l -5.497954811480705 -5.838637484052405" fill="#ff6709" stroke="none" /><path d="M 114.39649973595853 115.28858382429668 l 1.407802857372087 1.4950378486277591 a23.053544996841932,23.053544996841932 0 0,0 -0.29044198437324836,0.2688287646888217 l -1.3819311016848714 -1.5189843594489603" fill="#ff1302" stroke="none" /><path d="M 113.86319453409587 115.77377054828091 l 0.5555951166225401 0.6321652535276121 a21.841616801984397,21.841616801984397 0 0,0 -0.283754345654178,0.24510024551642057 l -0.5446612912055065 -0.6416096315087504" fill="#ff0200" stroke="none" /><path d="M 113.03279911837588 116.46651593811092 l 0.4909764453341826 0.6203326997446932 a21.791119793865334,21.791119793865334 0 0,0 -0.2953112375522122,0.22963580449465318 l -0.4802552631467397 -0.6286695558601395" fill="#ff0100" stroke="none" /><path d="M 112.45986205192187 116.90419585922612 l 3.748349168905265 5.085355538921767 a27.31751236241569,27.31751236241569 0 0,0 -0.37986820757948914,0.2749952876867195 l -3.6604999509518077 -5.148951597981563" fill="#ff4f07" stroke="none" /><path d="M 112.16784306229584 117.11559508785304 l 2.679737201650641 3.7693859668054306 a25.624852650264668,25.624852650264668 0 0,0 -0.3607062967317791,0.2518010089815225 l -2.6146358137451036 -3.8148317915920753" fill="#ff3805" stroke="none" /><path d="M 111.8722381534696 117.32195027204791 l 0.5233839341824892 0.7636328014906252 a21.92577848218284,21.92577848218284 0 0,0 -0.3122896062087495,0.21012238409955503 l -0.5101980398767364 -0.7725048596473014" fill="#ff0300" stroke="none" /><path d="M 110.96478420261333 117.91015095944535 l 0.5624775079651039 0.9187647374351976 a22.07726950654003,22.07726950654003 0 0,0 -0.32492194424404236,0.19510629175281013 l -0.5466228071636249 -0.9282850297239311" fill="#ff0500" stroke="none" /><line stroke="#e1ed5e" stroke-width="0.3" x1="143.1302829299769" x2="145.66735839644613" y1="173.24464959558577" y2="177.55315839532614" /><path d="M 143.63769802327073 174.10635135553383 a86.0,86.0 0 0,1 -40.68552437913181,11.842963189579606" fill="none" id="id18" stroke="none" /><text fill="#e1ed5e" style="font-size:6.75px; font-family:Arial;" text-anchor="middle"><textPath startOffset="21.407464694133747" xlink:href="#id18">June</textPath></text><path d="M 110.34350942703117 118.27599006163325 l 3.212825470447587 5.67675475929021 a27.522866862099885,27.522866862099885 0 0,0 -0.41317827318490596,0.22918302319510225 l -3.1149030091065866 -5.731070697918455" fill="#ff5207" stroke="none" /><path d="M 110.02825361518725 118.45085714620011 l 2.285698337297557 4.205427497058455 a25.786443076245675,25.786443076245675 0 0,0 -0.3907397422830838,0.20804690426223416 l -2.2131697792279197 -4.2440448690432575" fill="#ff3a05" stroke="none" /><path d="M 109.71004243097381 118.62028667847754 l 0.34245136547344396 0.656695647200392 a21.74062278574627,21.74062278574627 0 0,0 -0.33239629330935966,0.16972391578111679 l -0.33112785045050197 -0.662477514654345" fill="#ff0000" stroke="none" /><path d="M 109.3889696526874 118.78422872680471 l 6.138809322033707 12.281730869405491 a34.73047315429427,34.73047315429427 0 0,0 -0.5355765604427165,0.26197733379622906 l -5.927072512328921 -12.385301953298944" fill="#ffb210" stroke="none" /><path d="M 108.73861861582097 119.09545874513695 l 3.9255183160268707 8.57796596378046 a30.43351441008273,30.43351441008273 0 0,0 -0.4769172236361127,0.21331900799024756 l -3.777687689535131 -8.644088722680559" fill="#ff7a0b" stroke="none" /><path d="M 108.4095320186766 119.2426549942271 l 3.677118314886883 8.413966312177394 a30.182375956370585,30.182375956370585 0 0,0 -0.4765436769119904,0.20340815863509196 l -3.5321395628044616 -8.47584912047189" fill="#ff770a" stroke="none" /><path d="M 108.07796709384702 119.3841803445677 l 5.850251834169862 14.038474692607368 a36.208688905299674,36.208688905299674 0 0,0 -0.575796672669905,0.23417149409027269 l -5.608400700309516 -14.136833443276933" fill="#ffc512" stroke="none" /><path d="M 107.407793817531 119.65005319985036 l 0.5225124660356014 1.3860263943748208 a22.481245571492543,22.481245571492543 0 0,0 -0.3622808278914615,0.13303453811408616 l -0.49864248649001286 -1.3947917814976287" fill="#ff0b01" stroke="none" /><path d="M 107.06938296918513 119.77432235084164 l 1.2334601870357493 3.450207670413678 a24.66406290911928,24.66406290911928 0 0,0 -0.39990338373683726,0.13910715572299898 l -1.1740510312538903 -3.4708732587052675" fill="#ff2a04" stroke="none" /><path d="M 106.38641147887787 120.00534299687104 l 0.4504687486103334 1.411086939062123 a22.481245571492543,22.481245571492543 0 0,0 -0.3686489284407986,0.11420838037731382 l -0.42617918729791054 -1.4186119072460812" fill="#ff0b01" stroke="none" /><path d="M 106.0420521117495 120.11202640906438 l 4.097519168056999 13.639308664576859 a35.24150287645921,35.24150287645921 0 0,0 -0.5808806366338647,0.1690858874790098 l -3.862778519041527 -13.707638246358387" fill="#ffb911" stroke="none" /><path d="M 105.3480935250658 120.30758222061773 l 1.202336385881403 4.565467095646298 a25.721133612411684,25.721133612411684 0 0,0 -0.42794418744852175,0.10878173898668514 l -1.1237869052074838 -4.585434066468253" fill="#ff3905" stroke="none" /><path d="M 104.9986988182912 120.39639698878246 l 0.29248589589327695 1.1934422663012783 a22.228760530897222,22.228760530897222 0 0,0 -0.37139796821466137,0.08764890923442255 l -0.27195577393873643 -1.1982873191819259" fill="#ff0701" stroke="none" /><path d="M 104.64783097203109 120.47920084513623 l 0.838666901768333 3.695321113619658 a24.789295489254556,24.789295489254556 0 0,0 -0.4157962636594848,0.09062086040964071 l -0.7751082214897124 -3.7091734321630176" fill="#ff2c04" stroke="none" /><path d="M 104.29559338865022 120.5559693870025 l 0.7664316369207976 3.6676528340417893 a24.746878002434542,24.746878002434542 0 0,0 -0.4165765879046295,0.08332698448870038 l -0.7033585634852094 -3.680269215193351" fill="#ff2b04" stroke="none" /><path d="M 103.94208987418118 120.62667999033965 l 0.2717378097921293 1.4218470463011144 a22.447580899413165,22.447580899413165 0 0,0 -0.3791132028964081,0.06908705449297695 l -0.24728987334466404 -1.426302274725455" fill="#ff0b01" stroke="none" /><path d="M 102.875027216393 120.80226474461374 l 2.602183554287462 18.828103922536386 a40.007073856015666,40.007073856015666 0 0,0 -0.6811150564180637,0.08818398045180408 l -2.278590675978623 -18.869999499188587" fill="#fff517" stroke="none" /><path d="M 102.51750503828377 120.84855314841334 l 0.1775734851984759 1.470563191576866 a22.481245571492543,22.481245571492543 0 0,0 -0.3835344369315143,0.04297583363445703 l -0.15230314666616235 -1.4733947857182939" fill="#ff0b01" stroke="none" /><path d="M 102.15924093988457 120.88869738790638 l 0.7712077517550214 7.460735414955354 a28.500488939284963,28.500488939284963 0 0,0 -0.4870875201928532,0.04612769458524881 l -0.643020668177153 -7.472874865045787" fill="#ff6008" stroke="none" /><path d="M 101.80034050326958 120.92268563240118 l 0.8084512996848477 9.395429565514478 a30.430147942874793,30.430147942874793 0 0,0 -0.5208351744878942,0.0403159364972215 l -0.6470471304217178 -9.407923269006753" fill="#ff7a0b" stroke="none" /><path d="M 101.44090949804482 120.95050786540614 l 0.08662097454953022 1.2594499592594355 a22.262425202976598,22.262425202976598 0 0,0 -0.38148854497712764,0.022949403546198992 l -0.06498807743993747 -1.2607513406303261" fill="#ff0801" stroke="none" /><path d="M 100.72087961077811 120.9876233191556 l 0.5468521375844502 15.921003317751202 a36.930392145337336,36.930392145337336 0 0,0 -0.6337724588250455,0.01632373039365216 l -0.2734663646886609 -15.9280447654949" fill="#ffce13" stroke="none" /><line stroke="#e1ed5e" stroke-width="0.3" x1="101.45913802915013" x2="101.54496967792366" y1="184.9874750549273" y2="189.98673829345242" /><path d="M 101.47630435890484 185.9873277026323 a86.0,86.0 0 0,1 -42.54439059252881,-10.42667462771756" fill="none" id="id19" stroke="none" /><text fill="#e1ed5e" style="font-size:6.75px; font-family:Arial;" text-anchor="middle"><textPath startOffset="22.145653131862474" xlink:href="#id19">July</textPath></text><path d="M 100.0 121.0 l 1.4429566517223579e-16 1.1782635227781597 a22.17826352277816,22.17826352277816 0 0,0 -0.38071938501880503,-0.0032680180285993513 l 0.02022646016995276 -1.1780899029439953" fill="#ff0701" stroke="none" /><path d="M 99.63950707515114 120.99690560180557 l -0.11802081719281224 6.874120923966693 a27.875133990738476,27.875133990738476 0 0,0 -0.47837272184553326,-0.012321184409873086 l 0.2360068531090894 -6.871082022206773" fill="#ff5708" stroke="none" /><path d="M 98.91894614982273 120.97215588758144 l -0.9730673500158705 18.87724663327576 a39.90230939650465,39.90230939650465 0 0,0 -0.6837653047281311,-0.04113362279340684 l 1.2969770068764481 -18.85776103265766" fill="#fff316" stroke="none" /><path d="M 98.55909050195518 120.95050786540614 l -0.5321114917114386 7.736784307064591 a28.755061189549203,28.755061189549203 0 0,0 -0.4921647880313936,-0.038096667261291794 l 0.6648452745180683 -7.726509872808245" fill="#ff6309" stroke="none" /><path d="M 98.19965949673042 120.92268563240118 l -0.12698792369746328 1.4757921636535678 a22.481245571492543,22.481245571492543 0 0,0 -0.3842156595836841,-0.03638562243009023 l 0.15230314666616263 -1.4733947857182939" fill="#ff0b01" stroke="none" /><path d="M 97.84075906011543 120.88869738790638 l -0.7037097663007006 6.8077536349211085 a27.84402783373713,27.84402783373713 0 0,0 -0.47502454893600393,-0.053227491514672036 l 0.8204702168375038 -6.794670382899465" fill="#ff5708" stroke="none" /><path d="M 97.48249496171623 120.84855314841334 l -0.13519799441247593 1.1196333390414752 a22.127766514659093,22.127766514659093 0 0,0 -0.37672225147680344,-0.04877423769589873 l 0.1543980677800734 -1.1171475051451796" fill="#ff0601" stroke="none" /><path d="M 97.12497278360702 120.80226474461374 l -1.0139574600482442 7.336491078565365 a28.40622785746271,28.40622785746271 0 0,0 -0.4824661105306929,-0.07090590361502773 l 1.139748676186622 -7.318004101651455" fill="#ff5e08" stroke="none" /><path d="M 96.76829788921471 120.74984581791261 l -1.7618753104072886 11.312503376882892 a32.44888366878665,32.44888366878665 0 0,0 -0.5496570438953075,-0.09044585740393524 l 1.9558098573556597 -11.28059152098329" fill="#ff950d" stroke="none" /><path d="M 96.41257539226777 120.69131181640829 l -3.274693015812059 18.887559099399287 a40.169337575438256,40.169337575438256 0 0,0 -0.67841280067954,-0.12362941140323673 l 3.598440550042656 -18.828561514064685" fill="#fff717" stroke="none" /><path d="M 96.05791012581884 120.62667999033965 l -3.3371930836052925 17.461604376992867 a38.77764003167685,38.77764003167685 0 0,0 -0.6527634301911037,-0.1305709677442974 l 3.6364529993273544 -17.401744012585706" fill="#ffe515" stroke="none" /><path d="M 95.70440661134978 120.55596938700252 l -0.41317069375784204 1.9771713391060868 a23.019880324762557,23.019880324762557 0 0,0 -0.3861174769195739,-0.08415250697468181 l 0.4470505872965524 -1.969787373997686" fill="#ff1302" stroke="none" /><path d="M 95.00130118170881 120.39639698878247 l -0.24841267870387854 1.013608500146292 a22.043604834460655,22.043604834460655 0 0,0 -0.36675804035200027,-0.09322845966131899 l 0.26577601228125747 -1.00919480864971" fill="#ff0500" stroke="none" /><path d="M 94.6519064749342 120.30758222061772 l -3.5799171512310246 13.593528525799112 a35.05702047346422,35.05702047346422 0 0,0 -0.5806420832611446,-0.1582565817934772 l 3.8127406354268643 -13.530071449861492" fill="#ffb710" stroke="none" /><path d="M 94.30408787586889 120.21278271476187 l -5.133996430872471 18.218742152981903 a39.92829852334992,39.92829852334992 0 0,0 -0.6581324169759929,-0.19157275485709743 l 5.445988860230071 -18.12792570382229" fill="#fff417" stroke="none" /><path d="M 93.95794788825049 120.11202640906438 l -4.64477198811 15.46093531819966 a37.143556848943945,37.143556848943945 0 0,0 -0.6090824633047064,-0.18869530407824056 l 4.909495084286339 -15.37892342631477" fill="#ffd113" stroke="none" /><path d="M 93.61358852112213 120.00534299687104 l -6.260287054551051 19.610260034038777 a41.58527368309681,41.58527368309681 0 0,0 -0.6781909850074443,-0.2229348473565619 l 6.596000777206238 -19.499904265280197" fill="#f6ff19" stroke="none" /><path d="M 93.27111125876986 119.89276391827306 l -0.5986754156063095 1.7698774885900612 a22.868389300405365,22.868389300405365 0 0,0 -0.3707883123531147,-0.12897942254150888 l 0.6289695000044461 -1.7593396334799618" fill="#ff1101" stroke="none" /><path d="M 92.25597844496254 119.51999308798841 l -7.004883412259878 17.656882127417585 a39.995627867508674,39.995627867508674 0 0,0 -0.6360172142019905,-0.2586626640723858 l 7.30695508765231 -17.534032206765907" fill="#fff417" stroke="none" /><path d="M 91.92203290615298 119.3841803445677 l -4.617577083534295 11.08050403056851 a33.00414877006388,33.00414877006388 0 0,0 -0.521096100286197,-0.22242493892268783 l 4.807108258990923 -10.99960444198642" fill="#ff9c0e" stroke="none" /><path d="M 91.59046798132341 119.24265499422711 l -0.505543103124571 1.1567815541378947 a22.262425202976598,22.262425202976598 0 0,0 -0.3488697978204055,-0.15604502312038412 l 0.5253263038006115 -1.1479327801076558" fill="#ff0801" stroke="none" /><path d="M 90.93487009805054 118.94263497670748 l -0.7556705012531356 1.579060710958527 a22.75056294812755,22.75056294812755 0 0,0 -0.350835077822344,-0.17161101713285684 l 0.782665828337549 -1.565855943728449" fill="#ff0f01" stroke="none" /><path d="M 90.6110303473126 118.78422872680471 l -8.475367844939887 16.956413113720966 a39.9565768478966,39.9565768478966 0 0,0 -0.6109032923509007,-0.31193157393266174 l 8.765198359004371 -16.808423588115467" fill="#fff417" stroke="none" /><path d="M 90.28995756902619 118.62028667847754 l -0.34245136547344407 0.6566956472003919 a21.74062278574627,21.74062278574627 0 0,0 -0.3294337772471418,-0.1754049309528076 l 0.3536739585071477 -0.6507202485250111" fill="#ff0000" stroke="none" /><line stroke="#e1ed5e" stroke-width="0.3" x1="58.13341422392154" x2="55.67067388415222" y1="173.97424548756322" y2="178.32567169271397" /><path d="M 57.64086615596768 174.84453072859336 a86.0,86.0 0 0,1 -31.369924170532247,-30.572349798747897" fill="none" id="id20" stroke="none" /><text fill="#e1ed5e" style="font-size:6.75px; font-family:Arial;" text-anchor="middle"><textPath startOffset="22.145653131862474" xlink:href="#id20">August</textPath></text><path d="M 89.34428304082925 118.09573695890944 l -9.334267710827834 15.85162723882328 a39.39572341105419,39.39572341105419 0 0,0 -0.5798060780038357,-0.3481568906595713 l 9.605006545389097 -15.689056347627789" fill="#ffed16" stroke="none" /><path d="M 89.03521579738668 117.91015095944536 l -8.997530836786789 14.69679043119778 a38.232272343990964,38.232272343990964 0 0,0 -0.5568000152701645,-0.34748439027965566 l 9.248494980846665 -14.540170244076577" fill="#ffdf14" stroke="none" /><path d="M 88.72937992617639 117.7192867562869 l -3.2919351908850936 5.1754688959731805 a27.133703252862297,27.133703252862297 0 0,0 -0.39087309924121705,-0.2533592205333478 l 3.3802939223833204 -5.118195833735937" fill="#ff4d07" stroke="none" /><path d="M 88.4268655584334 117.5232005979908 l -3.0261237194288886 4.581937005711685 a26.49104466286701,26.49104466286701 0 0,0 -0.3773128471834062,-0.25387292252234983 l 3.1043328547093005 -4.529314409132214" fill="#ff4406" stroke="none" /><path d="M 88.1277618465304 117.32195027204791 l -4.550204763067255 6.638884733831954 a29.048549800737206,29.048549800737206 0 0,0 -0.4088997102562503,-0.2854437545107147 l 4.66349956449727 -6.559796163516111" fill="#ff6709" stroke="none" /><path d="M 87.83215693770417 117.11559508785305 l -3.9519199086797174 5.55887026404703 a27.82046256328157,27.82046256328157 0 0,0 -0.386862065174225,-0.2800583012343922 l 4.046762984227897 -5.490211191439572" fill="#ff5608" stroke="none" /><path d="M 87.2517909369889 116.68781488649013 l -12.020932291322136 15.735786246451255 a40.801964093153885,40.801964093153885 0 0,0 -0.5529444390600995,-0.429972940267672 l 12.289286675017465 -15.52711225456279" fill="#fffe18" stroke="none" /><path d="M 86.96720088162412 116.46651593811092 l -9.72634784514364 12.288922767623172 a36.67225143983268,36.67225143983268 0 0,0 -0.49027173052719825,-0.3949282015978674 l 9.9358703460261 -12.120146272231892" fill="#ffcb12" stroke="none" /><path d="M 86.13680546590413 115.77377054828092 l -0.6333784329496961 0.720668389021479 a21.959443154262214,21.959443154262214 0 0,0 -0.28101287462068414,-0.25128344529718905 l 0.6456563343937511 -0.7096894138409077" fill="#ff0300" stroke="none" /><path d="M 85.86807049272751 115.53346607816431 l -15.635304412111985 17.1859384511032 a44.234010082302106,44.234010082302106 0 0,0 -0.557285817294045,-0.5158154326932042 l 15.928020000719998 -16.915005272277618" fill="#d7ff1c" stroke="none" /><path d="M 85.34317274990678 115.03919595460226 l -13.889461558610357 14.251811153913145 a40.900534253002306,40.900534253002306 0 0,0 -0.49861272570332466,-0.49435110408282906 l 14.132066204443644 -14.011280039601658" fill="#ffff18" stroke="none" /><path d="M 84.3458050057657 113.99807769240083 l -0.8908696957493568 0.7966211753142245 a22.195095858817847,22.195095858817847 0 0,0 -0.25153272613224326,-0.2861980691128157 l 0.9044134858401925 -0.7812108283901087" fill="#ff0701" stroke="none" /><path d="M 84.1078160697243 113.72728997021213 l -10.270060969349245 8.871034060299166 a34.570902608638036,34.570902608638036 0 0,0 -0.38407521538387673,-0.45243963797881365 l 10.420830748240233 -8.693427639870798" fill="#ffb010" stroke="none" /><path d="M 83.64595745247003 113.17365903436017 l -10.764526499193035 8.671140566900496 a34.82257969710345,34.82257969710345 0 0,0 -0.3709990499953163,-0.4687451800863195 l 10.911791979829914 -8.485075442899495" fill="#ffb410" stroke="none" /><path d="M 83.4222238831116 112.89097897827486 l -10.33350920678512 8.03539926086778 a34.09003643265623,34.09003643265623 0 0,0 -0.355263669771755,-0.46505154784822933 l 10.469924853911172 -7.856826799778681" fill="#ffaa0f" stroke="none" /><path d="M 83.20337586046588 112.60449989151573 l -2.703887793260018 2.0290478082795214 a24.380539040866775,24.380539040866775 0 0,0 -0.24833086010947522,-0.3369085050611094 l 2.7383206729533236 -1.9823329939495322" fill="#ff2603" stroke="none" /><path d="M 82.78059297857968 112.02048342749411 l -12.364419743477214 8.63132525017633 a36.079079917794076,36.079079917794076 0 0,0 -0.3501565130241206,-0.5108888170563637 l 12.510765993316658 -8.417801698049916" fill="#ffc412" stroke="none" /><path d="M 82.37810715431573 111.42229804090323 l -8.062914445802344 5.226283730400371 a30.608570704895484,30.608570704895484 0 0,0 -0.2820103293340638,-0.4433670783838195 l 8.151442466762298 -5.087102977337879" fill="#ff7c0b" stroke="none" /><path d="M 82.18462484594161 111.11811171558189 l -17.757132885341342 11.081764232322891 a41.93134651207279,41.93134651207279 0 0,0 -0.37584870033777285,-0.6139206058753522 l 17.94474955013452 -10.775306510322983" fill="#f2ff19" stroke="none" /><line stroke="#e1ed5e" stroke-width="0.3" x1="26.387840678322732" x2="22.057713659400548" y1="142.50000000000003" y2="145.00000000000006" /><path d="M 25.521815274538298 143.00000000000003 a86.0,86.0 0 0,1 -11.493303480769221,-40.785679425670985" fill="none" id="id21" stroke="none" /><text fill="#e1ed5e" style="font-size:6.75px; font-family:Arial;" text-anchor="middle"><textPath startOffset="21.40746469413373" xlink:href="#id21">September</textPath></text><path d="M 81.81346652052679 110.50000000000001 l -0.8454793756935548 0.4881377451509512 a21.9762754903019,21.9762754903019 0 0,0 -0.18582158515124134,-0.328328935881849 l 0.8537343258661745 -0.4735520391699806" fill="#ff0400" stroke="none" /><path d="M 81.4637452351635 109.86951160357371 l -10.859083329032922 5.7818502324091074 a33.30241776468715,33.30241776468715 0 0,0 -0.26434496785707884,-0.5069163310564567 l 10.95673636586495 -5.594587658248148" fill="#ffa00e" stroke="none" /><path d="M 81.29705330413844 109.54985784667822 l -10.005697405911913 5.10898038887525 a32.23457436632934,32.23457436632934 0 0,0 -0.24740816637846103,-0.4949820649172237 l 10.091925485502111 -4.936466467794274" fill="#ff920d" stroke="none" /><path d="M 81.1358732173502 109.22738970284198 l -7.260489002200054 3.551468998719667 a29.08255111953737,29.08255111953737 0 0,0 -0.2155165802686285,-0.45034676343457364 l 7.320384840428594 -3.426309733219988" fill="#ff6809" stroke="none" /><path d="M 80.9802524753101 108.90220220490708 l -1.2500969572142635 0.585108497072013 a22.380251555254414,22.380251555254414 0 0,0 -0.1598754958923788,-0.34935681145805914 l 1.2599569179616983 -0.563562703399265" fill="#ff0a01" stroke="none" /><path d="M 80.83023694016515 108.57439118712176 l -12.297794132436888 5.50064689381263 a34.47192847272467,34.47192847272467 0 0,0 -0.23697992823790523,-0.5422564525007064 l 12.39040794269176 -5.288728371536074" fill="#ffaf10" stroke="none" /><path d="M 80.68587082218212 108.24405325689762 l -5.280893544668666 2.2540994328781867 a26.741846469858363,26.741846469858363 0 0,0 -0.17659061784488447,-0.42375319727053795 l 5.318810007050035 -2.163113726166367" fill="#ff4706" stroke="none" /><path d="M 80.5471966667186 107.91128576633889 l -6.243115404616656 2.539020684676985 a27.739667350291064,27.739667350291064 0 0,0 -0.17560705397841098,-0.44264449104364806 l 6.2857811335611915 -2.431475176419772" fill="#ff5507" stroke="none" /><path d="M 80.41425534168474 107.57618678355246 l -7.691761548950154 2.9753386049915878 a29.24717136600552,29.24717136600552 0 0,0 -0.17711156109413959,-0.4698094579214858 l 7.74170379385873 -2.8428608668759567" fill="#ff6a09" stroke="none" /><path d="M 80.28708602549918 107.23885506374661 l -12.648132608596692 4.644569488768197 a34.47394835304943,34.47394835304943 0 0,0 -0.19922631000190294,-0.5572714467328469 l 12.725999088642538 -4.426763085654429" fill="#ffaf10" stroke="none" /><path d="M 80.16572619554312 106.89939002012753 l -1.9188201903892665 0.6674652675721404 a23.03159563064618,23.03159563064618 0 0,0 -0.12668976475189525,-0.3745357781930422 l 1.929995376713529 -0.6344278149049366" fill="#ff1302" stroke="none" /><path d="M 80.05021161711548 106.5578916946017 l -1.151319572507574 0.37846161159570707 a22.211928194857535,22.211928194857535 0 0,0 -0.1159624314656387,-0.36325066493034974 l 1.1576467197504676 -0.3586419129739656" fill="#ff0701" stroke="none" /><path d="M 79.94057633289273 106.21446072829308 l -9.007777753791691 2.790632573951867 a30.430147942874793,30.430147942874793 0 0,0 -0.1503012822604263,-0.5003040858021794 l 9.054355356055748 -2.635590884558964" fill="#ff7a0b" stroke="none" /><path d="M 79.83685265289637 105.86919833188381 l -11.025290570217019 3.2093014006837226 a32.48288498758682,32.48288498758682 0 0,0 -0.1512488321835423,-0.5367287475934746 l 11.078757894475135 -3.0195647291872523" fill="#ff950d" stroke="none" /><path d="M 79.56144815229197 104.8234425847677 l -6.5601334151496955 1.548173623658126 a27.740340643732655,27.740340643732655 0 0,0 -0.10539894666953706,-0.4644072064367701 l 6.585743223376899 -1.4353320832823298" fill="#ff5507" stroke="none" /><path d="M 79.48165901384964 104.47187691870673 l -11.772895887079505 2.5658478635921047 a33.04925943065024,33.04925943065024 0 0,0 -0.11605371647502534,-0.5553590452512865 l 11.815207314378897 -2.363372367055409" fill="#ff9d0e" stroke="none" /><path d="M 79.407916724674 104.11899336999214 l -1.3204299636096233 0.26412297351982694 a22.34658688317504,22.34658688317504 0 0,0 -0.07201316139158923,-0.3768032902663076 l 1.3247694172833695 -0.2414171182202048" fill="#ff0901" stroke="none" /><path d="M 79.34024301695615 103.76489593502545 l -17.230613425896134 3.139991748131092 a38.51438229601614,38.51438229601614 0 0,0 -0.11294834585114348,-0.6514560440145101 l 17.281976589239513 -2.8437426711959892" fill="#ffe215" stroke="none" /><path d="M 79.2786578344484 103.40968896794605 l -1.1626286484130695 0.1913101016642827 a22.17826352277816,22.17826352277816 0 0,0 -0.05859128415276298,-0.3761980748120101 l 1.1657414247041 -0.17132384492082256" fill="#ff0701" stroke="none" /><path d="M 79.13060592940153 102.33845913500099 l -6.692398287081397 0.74989718707447 a27.734281002758365,27.734281002758365 0 0,0 -0.048954449667306284,-0.47358989263445506 l 6.704285129230369 -0.6349027721570836" fill="#ff5507" stroke="none" /><path d="M 79.0935383218832 101.97986365728391 l -8.14903779545144 0.7717223517519024 a29.185497686756104,29.185497686756104 0 0,0 -0.04295323825052844,-0.49918173766424273 l 8.161084656399709 -0.6317195667119977" fill="#ff6909" stroke="none" /><path d="M 79.03789590574601 101.26102812881392 l -20.164369390367074 1.2130383899781019 a41.200823127950336,41.200823127950336 0 0,0 -0.03641056144455419,-0.7063551648646892 l 20.1822215412682 -0.8667114317366819" fill="#fbff18" stroke="none" /><line stroke="#e1ed5e" stroke-width="0.3" x1="15.003131293944662" x2="10.003315487706104" y1="100.72959589197737" y2="100.7725132973878" /><path d="M 14.003168132696942 100.73817937305945 a86.0,86.0 0 0,1 10.791469493833604,-42.45332614584628" fill="none" id="id22" stroke="none" /><text fill="#e1ed5e" style="font-size:6.75px; font-family:Arial;" text-anchor="middle"><textPath startOffset="22.145653131862435" xlink:href="#id22">October</textPath></text><path d="M 79.00696218219943 99.45929381324524 l -11.825709202997732 -0.30458832039076045 a32.82963111000439,32.82963111000439 0 0,0 0.019346521941154278,-0.5632528774097547 l 11.818737994059727 0.5075474623646538" fill="#ff9a0e" stroke="none" /><path d="M 79.01933749520258 99.09900007780938 l -15.245874690671846 -0.6547234581788031 a36.25992653620449,36.25992653620449 0 0,0 0.032044123949213445,-0.6216474439581845 l 15.232388977266062 0.9163426955136995" fill="#ffc612" stroke="none" /><path d="M 79.06263194458094 98.37931529534042 l -8.060727494824722 -0.6239512877030491 a29.084840317238772,29.084840317238772 0 0,0 0.0428050975533559,-0.4974601182091142 l 8.048828774573622 0.762232453287844" fill="#ff6809" stroke="none" /><path d="M 79.0935383218832 98.0201363427161 l -12.657505322717629 -1.1986789140200205 a33.71413670421792,33.71413670421792 0 0,0 0.05950963748435642,-0.5757017598699148 l 12.63506329275161 1.415785196172848" fill="#ffa50f" stroke="none" /><path d="M 79.17382384314186 97.30363454192245 l -10.550649603810054 -1.36599282257703 a31.638709670524392,31.638709670524392 0 0,0 0.07435922911229291,-0.5380263398479936 l 10.525645858142553 1.5469074706250905" fill="#ff8a0c" stroke="none" /><path d="M 79.22317932658666 96.9465228501225 l -4.776875289458909 -0.7020361668155509 a25.8281872696241,25.8281872696241 0 0,0 0.06823377573772091,-0.43810978784418 l 4.7641200215829205 0.7839341365911808" fill="#ff3b05" stroke="none" /><path d="M 79.34024301695615 96.23510406497455 l -8.737516691692457 -1.5922666032213564 a29.881413787980964,29.881413787980964 0 0,0 0.09629457442303241,-0.5038539035953432 l 8.708895824987266 1.7420230718500143" fill="#ff720a" stroke="none" /><path d="M 79.407916724674 95.88100663000787 l -6.607431537902552 -1.3216713594932108 a27.73832076340789,27.73832076340789 0 0,0 0.0974041557610331,-0.466114146017857 l 6.583769671317151 1.434901956796477" fill="#ff5507" stroke="none" /><path d="M 79.56144815229197 95.17655741523228 l -13.107160979904522 -3.0932543023084507 a34.46721541863356,34.46721541863356 0 0,0 0.14084366710326335,-0.5746902248005629 l 13.052129786284961 3.3178003517171315" fill="#ffaf10" stroke="none" /><path d="M 79.73907114497095 94.47779374421319 l -12.994551265396282 -3.541722731586527 a34.46856200551673,34.46856200551673 0 0,0 0.16049466518667593,-0.5695389471605701 l 12.931838108135024 3.7642696026501103" fill="#ffaf10" stroke="none" /><path d="M 80.05021161711548 93.44210830539832 l -16.396709578462033 -5.38992411847552 a38.25987737509605,38.25987737509605 0 0,0 0.21045588598463008,-0.6221754313532957 l 16.301768270905036 5.6706012243029775" fill="#ffdf14" stroke="none" /><path d="M 80.68587082218212 91.75594674310238 l -9.714664391271345 -4.146612558981351 a31.562627511625,31.562627511625 0 0,0 0.21697971462845012,-0.4964920497440707 l 9.642050794625918 4.312766678501288" fill="#ff890c" stroke="none" /><path d="M 80.83023694016515 91.42560881287825 l -21.08184499658743 -9.429641116730794 a44.09463833989349,44.09463833989349 0 0,0 0.3149943222658236,-0.6883194415750695 l 20.916866209466562 9.790149540520535" fill="#d9ff1c" stroke="none" /><path d="M 81.1358732173502 90.77261029715801 l -10.243128971740607 -5.010427669816849 a32.40289772672622,32.40289772672622 0 0,0 0.24870008894212933,-0.4975667754691711 l 10.155608969586734 5.18552630144979" fill="#ff940d" stroke="none" /><path d="M 81.29705330413844 90.45014215332179 l -11.991725801475884 -6.1230606386627855 a34.46452224486721,34.46452224486721 0 0,0 0.27356941737395496,-0.5246054292943237 l 11.88484831512699 6.328012311061596" fill="#ffaf10" stroke="none" /><line stroke="#e1ed5e" stroke-width="0.3" x1="26.387840678322718" x2="22.05771365940052" y1="57.49999999999999" y2="54.99999999999999" /><path d="M 25.521815274538284 56.99999999999999 a86.0,86.0 0 0,1 29.574782752854787,-30.34633250058573" fill="none" id="id23" stroke="none" /><text fill="#e1ed5e" style="font-size:6.75px; font-family:Arial;" text-anchor="middle"><textPath startOffset="21.40746469413373" xlink:href="#id23">November</textPath></text><line stroke="#e1ed5e" stroke-width="0.3" x1="56.869717070023135" x2="54.33264160355391" y1="26.7553504044142" y2="22.446841604673864" /><path d="M 56.362301976729285 25.89364864446614 a86.0,86.0 0 0,1 42.16139366436587,-11.88097634709845" fill="none" id="id24" stroke="none" /><text fill="#e1ed5e" style="font-size:6.75px; font-family:Arial;" text-anchor="middle"><textPath startOffset="22.145653131862474" xlink:href="#id24">December</textPath></text></svg>