<?xml version="1.0" encoding="utf-8" ?>
<svg baseProfile="full" height="200mm" version="1.1" viewBox="0,0,200,200" width="200mm" xmlns="http://www.w3.org/2000/svg" xmlns:ev="http://www.w3.org/2001/xml-events" xmlns:xlink="http://www.w3.org/1999/xlink"><defs /><rect fill="#1a1a1a" height="200" width="200" x="0" y="0" /><text alignment-baseline="middle" fill="#e1ed5e" style="dominant-baseline: central; font-size:9.0px; font-family:Arial;" text-anchor="middle" x="100.0" y="100.0">2024</text><line stroke="#e1ed5e" stroke-width="0.3" x1="100.0" x2="100.0" y1="15.0" y2="10.0" /><path d="M 100.0 14.0 a86.0,86.0 0 0,1 42.35913384403234,11.155469271406648" fill="none" id="id13" stroke="none" /><text fill="#e1ed5e" style="font-size:6.75px; font-family:Arial;" text-anchor="middle"><textPath startOffset="22.145653131862478" xlink:href="#id13">January</textPath></text><path d="M 100.36049292484886 79.00309439819443 l 0.03128742442081686 -1.822335618273105 a22.822604183182325,22.822604183182325 0 0,0 0.3916648898024911,0.01008789823030197 l -0.06256562829404931 1.8215300026927579" fill="#ff0f01" stroke="none" /><path d="M 100.72087961077811 79.0123766808444 l 0.2985094775983266 -8.690777737865533 a29.695902805183323,29.695902805183323 0 0,0 0.5093190098156379,0.021872349746302314 l -0.44765424801480075 8.6843728196934" fill="#ff6f0a" stroke="none" /><path d="M 101.08105385017728 79.02784411241856 l 0.05793618603624122 -1.1239465313265569 a22.12543876196505,22.12543876196505 0 0,0 0.3791411476209744,0.02280818995035449 l -0.077221685789678 1.1227863635515105" fill="#ff0500" stroke="none" /><path d="M 101.44090949804482 79.04949213459386 l 0.10130468626852686 -1.4729479050219034 a22.476427502577888,22.476427502577888 0 0,0 0.3847011871958647,0.029778304909309827 l -0.12657486823962505 1.47099183311754" fill="#ff0a01" stroke="none" /><path d="M 102.15924093988457 79.11130261209362 l 3.3564280769015284 -32.47039693792425 a53.64341107699643,53.64341107699643 0 0,0 0.9151670621218078,0.10254637816656939 l -3.913331040624133 32.40799479925071" fill="#6fff27" stroke="none" /><path d="M 102.87502721639298 79.19773525538626 l 0.23461271374758766 -1.6975407244849183 a22.713676642992134,22.713676642992134 0 0,0 0.3857808675190704,0.05669650243151863 l -0.2637186868743401 1.6932631487545173" fill="#ff0e01" stroke="none" /><path d="M 103.23170211078529 79.25015418208739 l 1.1648772154226512 -7.479347349544503 a28.569516213216616,28.569516213216616 0 0,0 0.4839437925681524,0.0796327669048785 l -1.293098511043874 7.4582485841439565" fill="#ff6008" stroke="none" /><path d="M 103.58742460773223 79.30868818359171 l 1.7573535091237178 -10.135948042103713 a31.287163557961716,31.287163557961716 0 0,0 0.5284033428436312,0.09629269110757557 l -1.9310915855184025 10.104287177064771" fill="#ff850c" stroke="none" /><path d="M 103.94208987418118 79.37332000966035 l 0.38668639747722416 -2.023306629719274 a23.0599262335967,23.0599262335967 0 0,0 0.3881792841415865,0.07764672842321832 l -0.4213621671497676 2.0163705046331963" fill="#ff1302" stroke="none" /><path d="M 104.29559338865022 79.4440306129975 l 3.1485759615671762 -15.067075773427467 a36.39254049687587,36.39254049687587 0 0,0 0.6104200246528501,0.13303820327403573 l -3.40675840283916 15.010806112019711" fill="#ffc712" stroke="none" /><path d="M 104.64783097203109 79.52079915486377 l 0.32677073687809566 -1.4398121599321647 a22.476427502577888,22.476427502577888 0 0,0 0.37553598616433903,0.08862547020330673 l -0.35143887678231966 1.4339905460826305" fill="#ff0a01" stroke="none" /><path d="M 104.9986988182912 79.60360301121754 l 1.220751140388563 -4.98108123513345 a26.128489408954508,26.128489408954508 0 0,0 0.43472170930976417,0.11050455854052184 l -1.3060781429237216 4.959391444757661" fill="#ff3e05" stroke="none" /><path d="M 105.3480935250658 79.69241777938227 l 0.2588946196585929 -0.9830650400093258 a22.016584131774987,22.016584131774987 0 0,0 0.364656068996069,0.0993886331583901 l -0.2757320895893547 0.9784759127067937" fill="#ff0300" stroke="none" /><path d="M 105.69591212413111 79.78721728523813 l 2.7163654947933877 -9.639422856881056 a31.014844707486237,31.014844707486237 0 0,0 0.5112132363350356,0.14880672259559424 l -2.881438743510028 9.591372439982948" fill="#ff810b" stroke="none" /><path d="M 106.38641147887787 79.99465700312896 l 0.25498964333271257 -0.7987514259599543 a21.838465001463987,21.838465001463987 0 0,0 0.35615131941318945,0.11707401275519122 l -0.2686637003936444 0.7942564918027415" fill="#ff0100" stroke="none" /><path d="M 106.72888874123014 80.10723608172694 l 3.6891030373182905 -10.906177619180067 a32.513218120102444,32.513218120102444 0 0,0 0.5271696715302954,0.18337697697067812 l -3.875778480893604 10.841242209640798" fill="#ff950d" stroke="none" /><path d="M 107.06938296918511 80.22567764915836 l 2.689457936941281 -7.522892510693436 a28.989186173949374,28.989186173949374 0 0,0 0.46715500409441557,0.17154578827451364 l -2.818202092689821 7.4756158734102005" fill="#ff6609" stroke="none" /><path d="M 107.74402155503746 80.48000691201159 l 0.5578949862235774 -1.4062598092619762 a22.512882502641542,22.512882502641542 0 0,0 0.3580036513095691,0.14559696833294122 l -0.5819530987235862 1.3964755843497414" fill="#ff0b01" stroke="none" /><path d="M 108.07796709384702 80.6158196554323 l 2.2397481669429187 -5.374580248972061 a26.82259261016643,26.82259261016643 0 0,0 0.4234967096440006,0.18076556267604527 l -2.331679951757349 5.335340036636613" fill="#ff4806" stroke="none" /><path d="M 108.73861861582097 80.90454125486305 l 0.6523025102108171 -1.4253987066707263 a22.56756500273702,22.56756500273702 0 0,0 0.3508840320872417,0.16423144419024827 l -0.6766752561695638 1.4139910309099444" fill="#ff0b01" stroke="none" /><path d="M 109.06512990194946 81.05736502329252 l 0.4227489321334684 -0.8833826756829001 a21.979327121709936,21.979327121709936 0 0,0 0.338941896022954,0.16579346593983377 l -0.4378510774184895 0.8759954596458452" fill="#ff0300" stroke="none" /><path d="M 109.71004243097381 81.37971332152246 l 0.39133287305470016 -0.7504323832558161 a21.846339281477736,21.846339281477736 0 0,0 0.33103569016607776,0.17625785935403573 l -0.4041573790073374 0.7436040561792072" fill="#ff0100" stroke="none" /><path d="M 110.34350942703115 81.72400993836675 l 0.4167550428862279 -0.736366228083035 a21.84612055147735,21.84612055147735 0 0,0 0.3247868278190952,0.18751576247059926 l -0.42933433856572045 0.729103568336264" fill="#ff0100" stroke="none" /><line stroke="#e1ed5e" stroke-width="0.3" x1="143.13028292997686" x2="145.6673583964461" y1="26.7553504044142" y2="22.446841604673864" /><path d="M 143.63769802327073 25.89364864446614 a86.0,86.0 0 0,1 29.32050498858742,28.57503671076993" fill="none" id="id14" stroke="none" /><text fill="#e1ed5e" style="font-size:6.75px; font-family:Arial;" text-anchor="middle"><textPath startOffset="20.669276256404974" xlink:href="#id14">February</textPath></text><path d="M 110.65571695917076 81.90426304109057 l 4.25660672058218 -7.228648794663137 a29.388805884647123,29.388805884647123 0 0,0 0.43252939156364484,0.25972147205514484 l -4.380068868703259 7.154513322072071" fill="#ff6b09" stroke="none" /><path d="M 111.27062007382361 82.28071324371311 l 7.952495492668511 -12.502643788867172 a35.81749932587182,35.81749932587182 0 0,0 0.5159670553667228,0.3344436115515975 l -8.165948180292242 12.36428633561168" fill="#ffc011" stroke="none" /><path d="M 111.5731344415666 82.4767994020092 l 0.5323958735859475 -0.8061152091071919 a21.966057501686766,21.966057501686766 0 0,0 0.3128633016490109,0.2105083919949777 l -0.5461554633319594 0.7968571430550954" fill="#ff0300" stroke="none" /><path d="M 111.8722381534696 82.67804972795209 l 4.220854297750393 -6.158352562176745 a28.465984013035847,28.465984013035847 0 0,0 0.40069926708679265,0.27971920829992053 l -4.325948656010946 6.0849885380716975" fill="#ff5f08" stroke="none" /><path d="M 112.16784306229584 82.88440491214696 l 0.6548066813297816 -0.9210676009776491 a22.1301050019732,22.1301050019732 0 0,0 0.30773385252353397,0.2227755774690474 l -0.6705215442272834 0.909691252135527" fill="#ff0500" stroke="none" /><path d="M 112.45986205192187 83.09580414077388 l 5.416213477541199 -7.348133796201576 a30.12855074593874,30.12855074593874 0 0,0 0.4136894074305589,0.31044024369198636 l -5.541555873882524 7.254074525245574" fill="#ff750a" stroke="none" /><path d="M 113.03279911837588 83.53348406188908 l 4.60459183900141 -5.817751368430583 a28.419467432954626,28.419467432954626 0 0,0 0.3799401708912286,0.30605290711644556 l -4.703782780247898 5.73785016752073" fill="#ff5e08" stroke="none" /><path d="M 113.31354834802062 83.75963576809568 l 9.361527081995696 -11.419540877023232 a35.766316505782456,35.766316505782456 0 0,0 0.47147782768046265,0.3933235725410586 l -9.556179243838052 11.257155120570303" fill="#ffbf11" stroke="none" /><path d="M 113.86319453409587 84.22622945171908 l 6.365079239649754 -7.242291753241244 a30.641837146834956,30.641837146834956 0 0,0 0.3921206325589136,0.35063668756998684 l -6.488464899032044 7.13195953578787" fill="#ff7c0b" stroke="none" /><path d="M 114.13192950727249 84.46653392183569 l 2.4563267487900386 -2.6999333820326825 a24.65009333637318,24.65009333637318 0 0,0 0.3105562300541124,0.2874462102027805 l -2.502312750158116 2.657369425697527" fill="#ff2904" stroke="none" /><path d="M 114.39649973595853 84.71141617570332 l 2.739583361687601 -2.9093425927827234 a24.996197106977487,24.996197106977487 0 0,0 0.3098665645561965,0.29684515937956835 l -2.7891224121091094 2.861885303097575" fill="#ff2e04" stroke="none" /><path d="M 114.65682725009322 84.96080404539774 l 9.747120293833742 -10.001404095904435 a34.96547306438416,34.96547306438416 0 0,0 0.42625922004573835,0.42261600074057487 l -9.917371434009443 9.8326080849352" fill="#ffb510" stroke="none" /><path d="M 114.91283532996326 85.21462403516908 l 21.84069826974291 -21.654026756652776 a51.755698263700424,51.755698263700424 0 0,0 0.6201150856572876,0.6362927070417341 l -22.20920015655101 21.2759113575433" fill="#83ff25" stroke="none" /><path d="M 115.41159269507618 85.73525988315684 l 0.6890171354742876 -0.6377439741664443 a21.93886207163928,21.93886207163928 0 0,0 0.2534484942615533,0.2785842928347224 l -0.6998633305777184 0.6258221057740502" fill="#ff0200" stroke="none" /><path d="M 115.6541949942343 86.00192230759917 l 7.295818418116944 -6.5239658177290565 a30.78729259708892,30.78729259708892 0 0,0 0.34890642898936974,0.39699146832013343 l -7.406735911064905 6.397762071597626" fill="#ff7e0b" stroke="none" /><path d="M 115.8921839302757 86.27271002978787 l 0.7586720509627871 -0.6553228481090861 a22.00251250175042,22.00251250175042 0 0,0 0.2444431325314811,0.2879533954785726 l -0.7698097470013804 0.6422026701809616" fill="#ff0300" stroke="none" /><path d="M 116.1254893667686 86.54754324733833 l 5.710028807030595 -4.763509115036812 a28.43609091298365,28.43609091298365 0 0,0 0.30948376317057014,0.37751986971209506 l -5.790959389439792 4.664786963626222" fill="#ff5e08" stroke="none" /><path d="M 116.57777611688842 87.10902102172516 l 0.777012209223903 -0.6042093936088385 a21.984285001718593,21.984285001718593 0 0,0 0.2291055858050231,0.29990656620688183 l -0.7872697723832329 0.5907819141610747" fill="#ff0300" stroke="none" /><path d="M 116.7966241395341 87.39550010848427 l 23.26096427623217 -17.455461243919466 a50.08204921077818,50.08204921077818 0 0,0 0.5101166276804241,0.6920711761835022 l -23.55718292349642 17.053583758467088" fill="#95ff23" stroke="none" /><path d="M 117.01052211995028 87.68569379921539 l 1.2697666263579996 -0.9192131158732105 a22.56756500273702,22.56756500273702 0 0,0 0.2244773139054967,0.3157554540722729 l -1.285359038793457 0.8972804350914336" fill="#ff0b01" stroke="none" /><path d="M 117.21940702142032 87.97951657250589 l 6.721949499759063 -4.692442803738394 a29.19778168431359,29.19778168431359 0 0,0 0.2833717890232684,0.4134479088534662 l -6.801511025597656 4.576360159814879" fill="#ff6909" stroke="none" /><path d="M 117.42321728460499 88.27688183743584 l 0.937622143038 -0.6308740225826959 a22.1301050019732,22.1301050019732 0 0,0 0.20936719181001476,0.3170086132887135 l -0.9483137737687392 0.6146855309549237" fill="#ff0500" stroke="none" /><path d="M 117.62189284568427 88.57770195909679 l 6.471170829130296 -4.194534748974343 a28.711690713464858,28.711690713464858 0 0,0 0.26453353316974665,0.4158906519948274 l -6.542222053925932 4.082830422300844" fill="#ff6209" stroke="none" /><path d="M 117.81537515405839 88.88188828441811 l 3.340077440786616 -2.084455354110292 a24.937140006874372,24.937140006874372 0 0,0 0.22352231543593262,0.3651069039104446 l -3.375367720677951 2.0268113340752927" fill="#ff2d04" stroke="none" /><line stroke="#e1ed5e" stroke-width="0.3" x1="172.87174338648825" x2="177.1583165268699" y1="56.24261187166439" y2="53.66864786411523" /><path d="M 173.72905801456457 55.72781907015455 a86.0,86.0 0 0,1 12.242430191666344,42.057860355516425" fill="none" id="id15" stroke="none" /><text fill="#e1ed5e" style="font-size:6.75px; font-family:Arial;" text-anchor="middle"><textPath startOffset="22.145653131862474" xlink:href="#id15">March</textPath></text><path d="M 118.00360718960297 89.18935116829356 l 1.8380127375284292 -1.1036738384904443 a23.14391855374335,23.14391855374335 0 0,0 0.20160148352833826,0.3423633933252121 l -1.8566879311865352 1.0719592768716757" fill="#ff1402" stroke="none" /><path d="M 118.18653347947321 89.5 l 21.313426213098197 -12.305312361485473 a45.61062472297094,45.61062472297094 0 0,0 0.3856631024443231,0.6814297484943772 l -21.521522680563894 11.937625842891977" fill="#c8ff1d" stroke="none" /><path d="M 118.36410011445183 89.81374322990088 l 3.269594856381899 -1.8135891513187563 a24.738897716528236,24.738897716528236 0 0,0 0.20280553749003571,0.3731393465179282 l -3.3002457434872756 1.7571949713262247" fill="#ff2b04" stroke="none" /><path d="M 118.53625476483649 90.13048839642627 l 0.6871302003317727 -0.3658581289142197 a21.778460071359216,21.778460071359216 0 0,0 0.17287112209747305,0.33150317053374534 l -0.6933093914041905 0.35400871527597616" fill="#ff0000" stroke="none" /><path d="M 118.70294669586156 90.45014215332178 l 1.582202550431253 -0.8078838958897094 a22.776525063101868,22.776525063101868 0 0,0 0.1748153469717051,0.34974779810182266 l -1.595837810614695 0.7806042416241363" fill="#ff0e01" stroke="none" /><path d="M 118.8641267826498 90.77261029715802 l 4.460172162146468 -2.1816937065830966 a25.965171008669348,25.965171008669348 0 0,0 0.19241519902699547,0.4020737616076618 l -4.496966619133375 2.104807442910331" fill="#ff3c05" stroke="none" /><path d="M 119.16976305983485 91.42560881287824 l 9.37355643345465 -4.192672565859792 a31.268498597929124,31.268498597929124 0 0,0 0.21495770274956352,0.4918652908598411 l -9.444148018221185 4.031145205224101" fill="#ff840c" stroke="none" /><path d="M 119.31412917781788 91.75594674310238 l 6.903566385662174 -2.9467219786068144 a28.50615742310599,28.50615742310599 0 0,0 0.18824130029329922,0.45171059386470813 l -6.9531335304919555 2.827778875300828" fill="#ff5f08" stroke="none" /><path d="M 119.4528033332814 92.08871423366111 l 1.6715724459177268 -0.679813961629275 a22.804522503150753,22.804522503150753 0 0,0 0.1443649256349378,0.36389391874934174 l -1.682996046518789 0.6510190256663679" fill="#ff0f01" stroke="none" /><path d="M 119.58574465831526 92.42381321644754 l 0.7730901839544285 -0.29904789102226 a21.82891379144731,21.82891379144731 0 0,0 0.13218895428247052,0.35064690622678046 l -0.7781098220513397 0.28573270460132183" fill="#ff0100" stroke="none" /><path d="M 119.71291397450082 92.76114493625339 l 9.595136467806103 -3.5234670174669995 a31.221617467847267,31.221617467847267 0 0,0 0.18043096127861885,0.5046975112181478 l -9.654207599128666 3.358234549867935" fill="#ff840c" stroke="none" /><path d="M 119.83427380445688 93.10060997987247 l 10.056228098887667 -3.498078148442271 a31.647266048590463,31.647266048590463 0 0,0 0.17408193314238735,0.5146423030030647 l -10.114795453602419 3.3249341709650446" fill="#ff890c" stroke="none" /><path d="M 120.05942366710727 93.78553927170692 l 2.3421414636560467 -0.7256014124605376 a23.451963304281207,23.451963304281207 0 0,0 0.1158344731933304,0.3855752881399307 l -2.3542522568530044 0.6852885207298834" fill="#ff1802" stroke="none" /><path d="M 120.16314734710363 94.1308016681162 l 17.73109672545385 -5.16126384100709 a39.46700938224399,39.46700938224399 0 0,0 0.18376874717630642,0.6521304534706714 l -17.817083964704736 4.856125463633405" fill="#ffed16" stroke="none" /><path d="M 120.26092885502905 94.47779374421319 l 11.140381733976705 -3.036360580672454 a32.54675672016101,32.54675672016101 0 0,0 0.1422921253619103,0.5403063767658933 l -11.190863340143345 2.844673699533762" fill="#ff950d" stroke="none" /><path d="M 120.35273937422433 94.82641323984039 l 0.7871126270496743 -0.20008095181604232 a21.81214449141803,21.81214449141803 0 0,0 0.0891311462282207,0.36368549268936434 l -0.7904312997941862 0.18653963451858305" fill="#ff0000" stroke="none" /><path d="M 120.43855184770803 95.1765574152323 l 2.321337562632837 -0.5478293441068675 a23.38510483416447,23.38510483416447 0 0,0 0.08885130319531588,0.39149523604422515 l -2.330399727385819 0.5078997741236161" fill="#ff1702" stroke="none" /><path d="M 120.77682067341334 96.94652285012252 l 30.54201944425178 -4.488625086102523 a51.87009405390017,51.87009405390017 0 0,0 0.12190826515984944,0.8820674781623318 l -30.61457222596684 3.9636692997401055" fill="#82ff25" stroke="none" /><path d="M 120.86939407059847 97.66154086499901 l 1.449130975565786 -0.1623781484101096 a22.458200002546064,22.458200002546064 0 0,0 0.03964151158393446,0.3834956646942132 l -1.4517048796313865 0.137477961432965" fill="#ff0a01" stroke="none" /><path d="M 120.93736805541906 98.37931529534042 l 7.564386542828519 -0.5855313589389708 a28.58701461324717,28.58701461324717 0 0,0 0.033672833507052635,0.4895956090214518 l -7.573323337500638 0.45559232576318476" fill="#ff6008" stroke="none" /><path d="M 120.96210409425399 98.7389718711861 l 6.342640100549494 -0.3815574782842739 a27.35410651109447,27.35410651109447 0 0,0 0.024173749461025226,0.46896428147482083 l -6.348255439467092 0.27262140343272234" fill="#ff4f07" stroke="none" /><path d="M 120.98066250479742 99.09900007780936 l 4.0988678551785815 -0.17602302204428333 a25.10264570716335,25.10264570716335 0 0,0 0.014793004658732048,0.43068219005511155 l -4.101285546834162 0.10563456742505184" fill="#ff3004" stroke="none" /><path d="M 120.99303781780057 99.45929381324524 l 12.03563679311756 -0.3099953104478196 a33.039628321021574,33.039628321021574 0 0,0 0.009736571419966337,0.567106472549905 l -12.03918479613619 0.10334192192884821" fill="#ff9c0e" stroke="none" /><line stroke="#e1ed5e" stroke-width="0.3" x1="184.99686870605535" x2="189.99668451229388" y1="99.2704041080226" y2="99.22748670261217" /><path d="M 185.99683186730306 99.26182062694052 a86.0,86.0 0 0,1 -10.086455211305974,41.156179273409016" fill="none" id="id16" stroke="none" /><text fill="#e1ed5e" style="font-size:6.75px; font-family:Arial;" text-anchor="middle"><textPath startOffset="21.40746469413373" xlink:href="#id16">April</textPath></text><path d="M 120.99922638620191 100.18025310272382 l 7.843806307013313 0.06732964338785749 a28.84409527369604,28.84409527369604 0 0,0 -0.008500174122656887,0.49509252845169904 l -7.841494701291988 -0.2019690878086276" fill="#ff6409" stroke="none" /><path d="M 120.98066250479742 100.90099992219065 l 7.289166690317311 0.3130281810361709 a28.295884982738848,28.295884982738848 0 0,0 -0.025006030961869888,0.48511032024541745 l -7.282719069898868 -0.438110294658319" fill="#ff5c08" stroke="none" /><path d="M 120.96210409425399 101.26102812881392 l 1.764876906922838 0.10617061214450559 a22.768067503087103,22.768067503087103 0 0,0 -0.02681865723584569,0.3899373903230035 l -1.762794288521926 -0.13645142662185258" fill="#ff0e01" stroke="none" /><path d="M 120.9064616781168 101.97986365728391 l 1.1613639037051071 0.10998236914637166 a22.16656000203685,22.16656000203685 0 0,0 -0.03912673077081435,0.37851562729878424 l -1.1593047804526266 -0.1299025187280873" fill="#ff0600" stroke="none" /><path d="M 120.82617615685814 102.69636545807757 l 0.958061128942041 0.12404019419356725 a21.966057501686766,21.966057501686766 0 0,0 -0.05162597082722866,0.3735398074572178 l -0.9557906415596021 -0.1404683098508701" fill="#ff0300" stroke="none" /><path d="M 120.77682067341334 103.0534771498775 l 7.233712115894115 1.0631065744788886 a28.311414812765964,28.311414812765964 0 0,0 -0.07479404996508598,0.48023145440705833 l -7.214396573790761 -1.1871262108173974" fill="#ff5c08" stroke="none" /><path d="M 120.65975698304385 103.76489593502545 l 1.2373202263595342 0.22548096254806235 a22.25769750219598,22.25769750219598 0 0,0 -0.07172671024932024,0.37530445684723807 l -1.2332672238280549 -0.24668798442861495" fill="#ff0701" stroke="none" /><path d="M 120.592083275326 104.11899336999214 l 61.776249825978006 12.356980109976403 a84.0,84.0 0 0,0 -0.2949691567025421,1.4115341948583637 l -61.555022958451104 -13.415630756120176" fill="#4dd2ff" stroke="none" /><line stroke="#e1ed5e" stroke-width="0.3" x1="174.33088141563837" x2="178.70328620479359" y1="141.23008692659167" y2="143.65538615756765" /><path d="M 175.20536237346943 141.71514677278685 a86.0,86.0 0 0,1 -30.301960400862466,31.631185727798858" fill="none" id="id17" stroke="none" /><text fill="#e1ed5e" style="font-size:6.75px; font-family:Arial;" text-anchor="middle"><textPath startOffset="22.145653131862474" xlink:href="#id17">May</textPath></text><line stroke="#e1ed5e" stroke-width="0.3" x1="143.1302829299769" x2="145.66735839644613" y1="173.24464959558577" y2="177.55315839532614" /><path d="M 143.63769802327073 174.10635135553383 a86.0,86.0 0 0,1 -40.68552437913181,11.842963189579606" fill="none" id="id18" stroke="none" /><text fill="#e1ed5e" style="font-size:6.75px; font-family:Arial;" text-anchor="middle"><textPath startOffset="21.407464694133747" xlink:href="#id18">June</textPath></text><line stroke="#e1ed5e" stroke-width="0.3" x1="101.45913802915013" x2="101.54496967792366" y1="184.9874750549273" y2="189.98673829345242" /><path d="M 101.47630435890484 185.9873277026323 a86.0,86.0 0 0,1 -42.54439059252881,-10.42667462771756" fill="none" id="id19" stroke="none" /><text fill="#e1ed5e" style="font-size:6.75px; font-family:Arial;" text-anchor="middle"><textPath startOffset="22.145653131862474" xlink:href="#id19">July</textPath></text><line stroke="#e1ed5e" stroke-width="0.3" x1="58.13341422392154" x2="55.67067388415222" y1="173.97424548756322" y2="178.32567169271397" /><path d="M 57.64086615596768 174.84453072859336 a86.0,86.0 0 0,1 -31.369924170532247,-30.572349798747897" fill="none" id="id20" stroke="none" /><text fill="#e1ed5e" style="font-size:6.75px; font-family:Arial;" text-anchor="middle"><textPath startOffset="22.145653131862474" xlink:href="#id20">August</textPath></text><line stroke="#e1ed5e" stroke-width="0.3" x1="26.387840678322732" x2="22.057713659400548" y1="142.50000000000003" y2="145.00000000000006" /><path d="M 25.521815274538298 143.00000000000003 a86.0,86.0 0 0,1 -11.493303480769221,-40.785679425670985" fill="none" id="id21" stroke="none" /><text fill="#e1ed5e" style="font-size:6.75px; font-family:Arial;" text-anchor="middle"><textPath startOffset="21.40746469413373" xlink:href="#id21">September</textPath></text><line stroke="#e1ed5e" stroke-width="0.3" x1="15.003131293944662" x2="10.003315487706104" y1="100.72959589197737" y2="100.7725132973878" /><path d="M 14.003168132696942 100.73817937305945 a86.0,86.0 0 0,1 10.791469493833604,-42.45332614584628" fill="none" id="id22" stroke="none" /><text fill="#e1ed5e" style="font-size:6.75px; font-family:Arial;" text-anchor="middle"><textPath startOffset="22.145653131862435" xlink:href="#id22">October</textPath></text><line stroke="#e1ed5e" stroke-width="0.3" x1="26.387840678322718" x2="22.05771365940052" y1="57.49999999999999" y2="54.99999999999999" /><path d="M 25.521815274538284 56.99999999999999 a86.0,86.0 0 0,1 29.574782752854787,-30.34633250058573" fill="none" id="id23" stroke="none" /><text fill="#e1ed5e" style="font-size:6.75px; font-family:Arial;" text-anchor="middle"><textPath startOffset="21.40746469413373" xlink:href="#id23">November</textPath></text><line stroke="#e1ed5e" stroke-width="0.3" x1="56.869717070023135" x2="54.33264160355391" y1="26.7553504044142" y2="22.446841604673864" /><path d="M 56.362301976729285 25.89364864446614 a86.0,86.0 0 0,1 42.16139366436587,-11.88097634709845" fill="none" id="id24" stroke="none" /><text fill="#e1ed5e" style="font-size:6.75px; font-family:Arial;" text-anchor="middle"><textPath startOffset="22.145653131862474" xlink:href="#id24">December</textPath></text></svg>