<?xml version="1.0" encoding="utf-8" ?>
<svg baseProfile="full" height="200mm" version="1.1" viewBox="0,0,200,200" width="200mm" xmlns="http://www.w3.org/2000/svg" xmlns:ev="http://www.w3.org/2001/xml-events" xmlns:xlink="http://www.w3.org/1999/xlink"><defs /><rect fill="#1a1a1a" height="200" width="200" x="0" y="0" /><text alignment-baseline="middle" fill="#e1ed5e" style="dominant-baseline: central; font-size:9.0px; font-family:Arial;" text-anchor="middle" x="100.0" y="100.0">2026</text><line stroke="#e1ed5e" stroke-width="0.3" x1="100.0" x2="100.0" y1="15.0" y2="10.0" /><path d="M 100.0 14.0 a86.0,86.0 0 0,1 42.46469731375804,11.215312516191453" fill="none" id="id37" stroke="none" /><text fill="#e1ed5e" style="font-size:6.75px; font-family:Arial;" text-anchor="middle"><textPath startOffset="22.20632615414155" xlink:href="#id37">January</textPath></text><line stroke="#e1ed5e" stroke-width="0.3" x1="143.23703022742887" x2="145.7803849466894" y1="26.81831364943548" y2="22.513508569990506" /><path d="M 143.74570117128098 25.957352633546492 a86.0,86.0 0 0,1 28.547481713284135,27.462654790039103" fill="none" id="id38" stroke="none" /><text fill="#e1ed5e" style="font-size:6.75px; font-family:Arial;" text-anchor="middle"><textPath startOffset="19.985693538727396" xlink:href="#id38">February</textPath></text><path d="M 110.68208982089419 81.91981866633111 l 0.23533406910662072 -0.3983193096837012 a21.462645000566503,21.462645000566503 0 0,0 0.31645947864189355,0.19066329499246648 l -0.24215561396615176 0.3942094052326201" fill="#ff0000" stroke="none" /><path d="M 110.99172775467656 82.1063720568725 l 1.354088068419871 -2.2043439065550547 a23.58702272031064,23.58702272031064 0 0,0 0.3441243816220695,0.21549065620170846 l -1.391831602414204 2.180708909030402" fill="#ff1f03" stroke="none" /><path d="M 111.60114157652 82.49532879139004 l 1.9184429390933093 -2.894690376788008 a24.47270149710943,24.47270149710943 0 0,0 0.3491384039868562,0.23573980889217808 l -1.9679860374867075 2.86123865559716" fill="#ff2b04" stroke="none" /><path d="M 111.90073688211348 82.69761687909136 l 0.25593931211366755 -0.37210805328770946 a21.451629643410158,21.451629643410158 0 0,0 0.30243616869514367,0.21187586359322563 l -0.26230662039246216 0.36764734693054824" fill="#ff0000" stroke="none" /><path d="M 112.19680574252982 82.90503203632743 l 0.31988612242983255 -0.44835042308603534 a21.550767857817267,21.550767857817267 0 0,0 0.30012490458051844,0.21805350689129627 l -0.3275563433641397 0.4427776813780642" fill="#ff0100" stroke="none" /><path d="M 112.48926042617603 83.11751280151076 l 2.4314114300308054 -3.2866855955476053 a25.08828371643463,25.08828371643463 0 0,0 0.3449684961295919,0.2598231193378628 l -2.48762607991878 3.2443458867038952" fill="#ff3404" stroke="none" /><path d="M 112.77801427241765 83.33499621200491 l 1.5673872770052784 -2.044176376053318 a23.575919240297043,23.575919240297043 0 0,0 0.3199223555083368,0.24970447299857387 l -1.6023421876730455 2.01689351383152" fill="#ff1e03" stroke="none" /><path d="M 113.34407831869373 83.78471172551755 l 0.3499756871491798 -0.4252790279441019 a21.550767857817267,21.550767857817267 0 0,0 0.2844110897398935,0.23818610843208887 l -0.35724431384819066 0.41919176211819364" fill="#ff0100" stroke="none" /><path d="M 113.6212207817346 84.01681056812373 l 0.3858238589560449 -0.4527271030876479 a21.594829286442646,21.594829286442646 0 0,0 0.2808419902519981,0.24354340648360573 l -0.3935596478548071 0.446018703184371" fill="#ff0200" stroke="none" /><path d="M 113.89432698308785 84.25364557470407 l 0.4008477894817483 -0.45427830879889675 a21.605844643598992,21.605844643598992 0 0,0 0.27674927680172196,0.24846823322884393 l -0.40860805387946036 0.4473110668007554" fill="#ff0200" stroke="none" /><path d="M 114.16331599549186 84.49514656593476 l 0.43089576590925016 -0.4717098522626159 a21.63889071506803,21.63889071506803 0 0,0 0.2728479840369002,0.2535824651147755 l -0.43895163374099716 0.4642228010731999" fill="#ff0300" stroke="none" /><path d="M 114.42810811169701 84.74124197986012 l 2.8020553221172713 -2.963374254492169 a25.078369894993923,25.078369894993923 0 0,0 0.31111121812056175,0.29928874533888533 l -2.852649783850251 2.914702422390982" fill="#ff3404" stroke="none" /><path d="M 114.68862486808459 84.99185889309783 l 3.6973714044631594 -3.777798960839295 a26.286049592187,26.286049592187 0 0,0 0.32064499335926955,0.31926804185714147 l -3.7618521979897515 3.713595068332035" fill="#ff4506" stroke="none" /><path d="M 115.68641384162765 86.03803664274999 l 1.3606092539061938 -1.2110337479533442 a22.821499459373264,22.821499459373264 0 0,0 0.2586525026992655,0.29568452319134775 l -1.3812536201833074 1.1874336685590487" fill="#ff1402" stroke="none" /><path d="M 115.9244219780498 86.31012108654704 l 1.0658105764447823 -0.9162541507828997 a22.40551551172104,22.40551551172104 0 0,0 0.24890328420163238,0.2946229803575235 l -1.081424474133532 0.8977722207962697" fill="#ff0e01" stroke="none" /><path d="M 116.38621287248628 86.86637796730983 l 2.759415042877538 -2.2116833515158802 a24.536370261473106,24.536370261473106 0 0,0 0.2613075755244796,0.33183408471632564 l -2.7970766989959817 2.1638568728465164" fill="#ff2c04" stroke="none" /><path d="M 116.60985879189232 87.15038557335679 l 2.0917784404078836 -1.6182284727385192 a23.644655068952638,23.644655068952638 0 0,0 0.24626928327056258,0.3240615094231552 l -2.11932366390256 1.5819821874343305" fill="#ff1f03" stroke="none" /><path d="M 117.04232023915458 87.72973835380427 l 0.44696962906452453 -0.32181265341583776 a21.550767857817267,21.550767857817267 0 0,0 0.21416063264107485,0.30291502710138224 l -0.45244288150948225 0.31407112598266235" fill="#ff0100" stroke="none" /><path d="M 117.2510076193507 88.02491185347247 l 2.8875266652240374 -2.0044270517114304 a24.51504453001842,24.51504453001842 0 0,0 0.2376506328263474,0.34872297912481487 l -2.921601763719118 1.954426049316209" fill="#ff2c04" stroke="none" /><line stroke="#e1ed5e" stroke-width="0.3" x1="172.23445277983987" x2="176.4835382374775" y1="55.19839476539836" y2="52.563006222186495" /><path d="M 173.08426987136738 54.67131705675599 a86.0,86.0 0 0,1 12.851231095245387,41.99856678651699" fill="none" id="id39" stroke="none" /><text fill="#e1ed5e" style="font-size:6.75px; font-family:Arial;" text-anchor="middle"><textPath startOffset="22.20632615414155" xlink:href="#id39">March</textPath></text><path d="M 117.84615892207809 88.93136811851018 l 7.904386258148579 -4.902497065198474 a30.30127945996075,30.30127945996075 0 0,0 0.2711015096305126,0.4456196004902001 l -7.9876035660653155 4.765709691501192" fill="#ff7b0b" stroke="none" /><path d="M 118.21658344932153 89.55222093294921 l 3.8386100348130254 -2.2015626409783406 a25.42513333827567,25.42513333827567 0 0,0 0.21446990904745475,0.38151803699987075 l -3.875937585152913 2.135161094043676" fill="#ff3905" stroke="none" /><path d="M 118.56541770881063 90.18545643968196 l 3.9084550034527363 -2.0661911564061093 a25.420991563984888,25.420991563984888 0 0,0 0.2011775713166928,0.38861103424899085 l -3.9434420079295456 1.9986073998967735" fill="#ff3905" stroke="none" /><path d="M 118.73160827565052 90.50648371742162 l 2.044685115785149 -1.036283225326944 a23.292295824235463,23.292295824235463 0 0,0 0.17817495711859863,0.3591898411678383 l -2.0622200858571555 1.0009337956601558" fill="#ff1a02" stroke="none" /><path d="M 119.85752413597 93.16781622104841 l 3.898447817325037 -1.3413007461675819 a25.12273975361968,25.12273975361968 0 0,0 0.1371733965722651,0.4101309959916031 l -3.9209585076690723 1.2739966472536648" fill="#ff3405" stroke="none" /><path d="M 119.97218684219823 93.5106431181261 l 8.614434009277092 -2.7989992815127303 a30.057751943948265,30.057751943948265 0 0,0 0.15564836638856736,0.4934478562034353 l -8.661337859433866 2.650301258882876" fill="#ff780b" stroke="none" /><path d="M 120.18372546131832 94.20196356495316 l 0.4658362650899937 -0.13381749781199762 a21.484675714879195,21.484675714879195 0 0,0 0.09904765901389936,0.35632712862865584 l -0.46807069467025614 0.12577906576438988" fill="#ff0000" stroke="none" /><path d="M 120.6074358757038 95.95851677861258 l 1.2647478640002991 -0.24803946024498938 a22.28884084872103,22.28884084872103 0 0,0 0.07059648161623985,0.37712922769040574 l -1.268830069526398 0.22623215509202085" fill="#ff0c01" stroke="none" /><path d="M 120.67395015179393 96.31383870115 l 2.185132636572845 -0.3896087249242948 a23.219594467003585,23.219594467003585 0 0,0 0.06677086124369884,0.39408540274204834 l -2.191515359336767 0.3519375338664086" fill="#ff1902" stroke="none" /><path d="M 120.91429891909075 98.10471618934814 l 5.582838311303061 -0.5059248273075602 a26.60571525686414,26.60571525686414 0 0,0 0.03740702268145036,0.45646042522767066 l -5.590719817804006 0.4097504848721208" fill="#ff4906" stroke="none" /><path d="M 120.96714384426684 98.82574320788733 l 4.785591160998439 -0.268015184462682 a25.793090328726233,25.793090328726233 0 0,0 0.021010795620571628,0.4435046877891792 l -4.789495564852507 0.18559939005050308" fill="#ff3e05" stroke="none" /><line stroke="#e1ed5e" stroke-width="0.3" x1="184.98032266829074" x2="189.97916517819016" y1="98.17113171792111" y2="98.06355123074" /><path d="M 185.9800911702706 98.14961562048488 a86.0,86.0 0 0,1 -9.607161424134198,41.387399972396054" fill="none" id="id40" stroke="none" /><text fill="#e1ed5e" style="font-size:6.75px; font-family:Arial;" text-anchor="middle"><textPath startOffset="21.466115282336823" xlink:href="#id40">April</textPath></text><path d="M 120.95626037817324 101.35467743843564 l 6.3385336650358965 0.4097424060321494 a27.351763366349097,27.351763366349097 0 0,0 -0.0344156054636973,0.4695735932263038 l -6.330541500907862 -0.5187891357552236" fill="#ff5307" stroke="none" /><path d="M 120.8583938346157 102.4346265915055 l 2.9164977672730426 0.34041849408776476 a23.93629766502404,23.93629766502404 0 0,0 -0.051290346149727384,0.40883452383505753 l -2.910205911876467 -0.3905707722102172" fill="#ff2403" stroke="none" /><path d="M 120.81339534386255 102.79330883721812 l 4.372667246232657 0.5868437061480024 a25.411870848259433,25.411870848259433 0 0,0 -0.06191535654260751,0.4330358594523178 l -4.361917838673448 -0.6620250375807295" fill="#ff3805" stroke="none" /><path d="M 120.70491114924044 103.5080841355445 l 18.37712876287318 3.113682227622549 a39.63904178282331,39.63904178282331 0 0,0 -0.11977324873265176,0.6717519861623484 l -18.32080907180134 -3.4295529645181158" fill="#fff216" stroke="none" /><path d="M 120.49622156327973 104.57218783832717 l 4.80668994442155 1.0722507677155009 a25.924834000316125,25.924834000316125 0 0,0 -0.1009086314062001,0.4347117430736615 l -4.787520747084797 -1.1548311681377272" fill="#ff4006" stroke="none" /><path d="M 120.41448212921028 104.9243191809786 l 2.8334830947030873 0.6834841591332975 a23.914751626426227,23.914751626426227 0 0,0 -0.09997355305923877,0.39934464871969166 l -2.821298227348788 -0.7321566472503851" fill="#ff2303" stroke="none" /><path d="M 120.13307415673323 105.97154293290107 l 8.362151710710036 2.4802445748324584 a29.722224164965986,29.722224164965986 0 0,0 -0.14970550372498417,0.48924624807572376 l -8.318219434478918 -2.6238177954602393" fill="#ff730a" stroke="none" /><path d="M 119.9155931802556 106.66101706037122 l 5.496385140020439 1.838334156390773 a26.79566407566816,26.79566407566816 0 0,0 -0.15006741839350735,0.4361661628529899 l -5.463926890683701 -1.9326730223330633" fill="#ff4c07" stroke="none" /><path d="M 119.79798401119884 107.00284435728193 l 5.251162069387005 1.8574149088098453 a26.569981438248956,26.569981438248956 0 0,0 -0.15622609967453327,0.429867129864347 l -5.2184117087072455 -1.9475298356803235" fill="#ff4806" stroke="none" /><path d="M 119.41010516605496 108.01547362559984 l 5.351584210028839 2.2099561915656043 a26.78993608994686,26.78993608994686 0 0,0 -0.1796826767709413,0.424716770481844 l -5.312750552065588 -2.3017474877136115" fill="#ff4c07" stroke="none" /><path d="M 119.12269723197855 108.67885076344098 l 4.1352296793877885 1.8767771525421595 a25.54119114127493,25.54119114127493 0 0,0 -0.18514369561179433,0.3987830491914167 l -4.1023113669361635 -1.9476802690124069" fill="#ff3a05" stroke="none" /><path d="M 118.81262510543309 109.33194174019688 l 5.330767002617703 2.644309702670127 a26.950584058715002,26.950584058715002 0 0,0 -0.20972858556724655,0.4138143962802457 l -5.284459747264187 -2.7356783106530673" fill="#ff4e07" stroke="none" /><line stroke="#e1ed5e" stroke-width="0.3" x1="174.80103733775053" x2="179.2010983576182" y1="140.37084112569926" y2="142.7455964860345" /><path d="M 175.68104954172406 140.8457921977663 a86.0,86.0 0 0,1 -30.038265399797805,32.042727171017184" fill="none" id="id41" stroke="none" /><text fill="#e1ed5e" style="font-size:6.75px; font-family:Arial;" text-anchor="middle"><textPath startOffset="22.206326154141568" xlink:href="#id41">May</textPath></text><path d="M 117.75023020441432 111.22182372390056 l 1.7316077526172708 1.0947349265350983 a23.048636123937104,23.048636123937104 0 0,0 -0.21489575518375803,0.3335229842540291 l -1.7125071340564624 -1.1243795107105805" fill="#ff1702" stroke="none" /><path d="M 117.55443506779139 111.5257021239791 l 3.96261517420365 2.601731240763708 a25.740392860090278,25.740392860090278 0 0,0 -0.24636852525648542,0.36828751753797817 l -3.917243543536444 -2.669555672507493" fill="#ff3d05" stroke="none" /><path d="M 117.35343817320211 111.8261652097733 l 12.16396857420719 8.289602355987798 a35.7200420751674,35.7200420751674 0 0,0 -0.35063319378596824,0.5051132671080126 l -12.019474473259086 -8.49775688528283" fill="#ffc212" stroke="none" /><path d="M 116.71984013943494 112.70617746262583 l 50.159520418304794 38.11853238787748 a84.0,84.0 0 0,0 -0.8847727311277263,1.1436880235469893 l -49.495940869959 -38.97629840553772" fill="#4dd2ff" stroke="none" /><path d="M 116.27256486870786 113.27417163493432 l 3.420361295284903 2.7901233304902675 a25.414029858262076,25.414029858262076 0 0,0 -0.27943815014750656,0.33660125316429124 l -3.371827145243853 -2.848585840768329" fill="#ff3805" stroke="none" /><path d="M 116.0416608686014 113.55231037782055 l 4.950725031860702 4.182469806374319 a27.480951475078715,27.480951475078715 0 0,0 -0.30838533615353597,0.3587218160071364 l -4.877997186136387 -4.267068721542983" fill="#ff5507" stroke="none" /><path d="M 115.80600337817218 113.82643327865902 l 3.3278984943429757 2.9111069629230943 a25.421476239699764,25.421476239699764 0 0,0 -0.29094413538508934,0.3268788203827507 l -3.277295509309548 -2.967959953046712" fill="#ff3905" stroke="none" /><path d="M 115.56566222782051 114.09645910891815 l 2.2933687563202643 2.0769035343294657 a24.094037579502903,24.094037579502903 0 0,0 -0.2810438595707284,0.3050176027276348 l -2.2572784887538138 -2.1160723918584354" fill="#ff2603" stroke="none" /><path d="M 115.32070863581623 114.36230785411682 l 8.794549349947873 8.244398363329683 a33.0546340733322,33.0546340733322 0 0,0 -0.3927102213267637,0.41175509702633706 l -8.651332577242146 -8.394560576938527" fill="#ffa00e" stroke="none" /><line stroke="#e1ed5e" stroke-width="0.3" x1="143.8653032363475" x2="146.44561519142675" y1="172.8068346515853" y2="177.08958963109032" /><path d="M 144.38136562736335 173.6633856474863 a86.0,86.0 0 0,1 -40.68145358897372,12.25698825130547" fill="none" id="id42" stroke="none" /><text fill="#e1ed5e" style="font-size:6.75px; font-family:Arial;" text-anchor="middle"><textPath startOffset="21.466115282336833" xlink:href="#id42">June</textPath></text><line stroke="#e1ed5e" stroke-width="0.3" x1="102.19456741930631" x2="102.32365962044197" y1="184.97166512339345" y2="189.96999836594603" /><path d="M 102.22038585953345 185.97133177190398 a86.0,86.0 0 0,1 -42.740103519485714,-10.115201625700543" fill="none" id="id43" stroke="none" /><text fill="#e1ed5e" style="font-size:6.75px; font-family:Arial;" text-anchor="middle"><textPath startOffset="22.20632615414155" xlink:href="#id43">July</textPath></text><line stroke="#e1ed5e" stroke-width="0.3" x1="58.666819895761336" x2="56.23545636021788" y1="174.27360380694188" y2="178.64263932499728" /><path d="M 58.180547188652646 175.14741091055294 a86.0,86.0 0 0,1 -31.652253787137756,-30.449443065178592" fill="none" id="id44" stroke="none" /><text fill="#e1ed5e" style="font-size:6.75px; font-family:Arial;" text-anchor="middle"><textPath startOffset="22.20632615414155" xlink:href="#id44">August</textPath></text><line stroke="#e1ed5e" stroke-width="0.3" x1="26.63291911575756" x2="22.317208475507996" y1="142.92168965132927" y2="145.44649492493687" /><path d="M 25.769776987707644 143.4266507060508 a86.0,86.0 0 0,1 -11.730757126820373,-40.83630448921669" fill="none" id="id45" stroke="none" /><text fill="#e1ed5e" style="font-size:6.75px; font-family:Arial;" text-anchor="middle"><textPath startOffset="21.46611528233685" xlink:href="#id45">September</textPath></text><line stroke="#e1ed5e" stroke-width="0.3" x1="15.007084014347285" x2="10.007500721073583" y1="101.09737516637583" y2="101.16192664675087" /><path d="M 14.007167355692545 101.11028546245083 a86.0,86.0 0 0,1 10.666146001902534,-42.60595125391555" fill="none" id="id46" stroke="none" /><text fill="#e1ed5e" style="font-size:6.75px; font-family:Arial;" text-anchor="middle"><textPath startOffset="22.20632615414155" xlink:href="#id46">October</textPath></text><line stroke="#e1ed5e" stroke-width="0.3" x1="26.266209847984243" x2="21.928928074336255" y1="57.711370442889674" y2="55.22380399835377" /><path d="M 25.398753493254645 57.213857153982495 a86.0,86.0 0 0,1 29.58750427330803,-30.492523968695096" fill="none" id="id47" stroke="none" /><text fill="#e1ed5e" style="font-size:6.75px; font-family:Arial;" text-anchor="middle"><textPath startOffset="21.46611528233685" xlink:href="#id47">November</textPath></text><line stroke="#e1ed5e" stroke-width="0.3" x1="56.762969772571076" x2="54.21961505331055" y1="26.818313649435495" y2="22.513508569990535" /><path d="M 56.25429882871897 25.957352633546506 a86.0,86.0 0 0,1 42.265352541879196,-11.944610805530505" fill="none" id="id48" stroke="none" /><text fill="#e1ed5e" style="font-size:6.75px; font-family:Arial;" text-anchor="middle"><textPath startOffset="22.20632615414155" xlink:href="#id48">December</textPath></text></svg>