<?xml version="1.0" encoding="utf-8" ?>
<svg baseProfile="full" height="200mm" version="1.1" viewBox="0,0,200,200" width="200mm" xmlns="http://www.w3.org/2000/svg" xmlns:ev="http://www.w3.org/2001/xml-events" xmlns:xlink="http://www.w3.org/1999/xlink"><defs /><rect fill="#1a1a1a" height="200" width="200" x="0" y="0" /><text alignment-baseline="middle" fill="#e1ed5e" style="dominant-baseline: central; font-size:9.0px; font-family:Arial;" text-anchor="middle" x="100.0" y="100.0">2026</text><line stroke="#e1ed5e" stroke-width="0.3" x1="100.0" x2="100.0" y1="15.0" y2="10.0" /><path d="M 100.0 14.0 a86.0,86.0 0 0,1 42.46469731375804,11.215312516191453" fill="none" id="id37" stroke="none" /><text fill="#e1ed5e" style="font-size:6.75px; font-family:Arial;" text-anchor="middle"><textPath startOffset="22.20632615414155" xlink:href="#id37">January</textPath></text><line stroke="#e1ed5e" stroke-width="0.3" x1="143.23703022742887" x2="145.7803849466894" y1="26.81831364943548" y2="22.513508569990506" /><path d="M 143.74570117128098 25.957352633546492 a86.0,86.0 0 0,1 28.547481713284135,27.462654790039103" fill="none" id="id38" stroke="none" /><text fill="#e1ed5e" style="font-size:6.75px; font-family:Arial;" text-anchor="middle"><textPath startOffset="19.985693538727396" xlink:href="#id38">February</textPath></text><path d="M 110.68208982089419 81.91981866633111 l 2.8047497654260813 -4.747234408690252 a26.513878469617403,26.513878469617403 0 0,0 0.39093821647090476,0.23553590118616027 l -2.886050048114624 4.698251898045478" fill="#ff0200" stroke="none" /><path d="M 110.99172775467656 82.1063720568725 l 16.13824214523829 -26.27172970874688 a51.83255813953488,51.83255813953488 0 0,0 0.7562144332145069,0.4735414087036788 l -16.58807573082506 25.990043958720257" fill="#9eff22" stroke="none" /><path d="M 111.60114157652 82.49532879139004 l 22.864315412688793 -34.49939138050999 a62.38822205551388,62.38822205551388 0 0,0 0.8900580215311527,0.6009711492712303 l -23.454778128626486 34.10070831894009" fill="#30ff37" stroke="none" /><path d="M 111.90073688211348 82.69761687909136 l 3.0503264076434884 -4.4348443858292965 a26.38259564891223,26.38259564891223 0 0,0 0.3719554775523225,0.2605785821340304 l -3.1262130247794615 4.38168096093133" fill="#ff0000" stroke="none" /><path d="M 112.19680574252982 82.90503203632743 l 3.812454908267635 -5.343513366989426 a27.564141035258814,27.564141035258814 0 0,0 0.3838696260212461,0.2788976085139469 l -3.90386985064267 5.277096523658804" fill="#ff1202" stroke="none" /><path d="M 112.48926042617603 83.11751280151076 l 28.977957436938468 -39.171254243536474 a69.72483120780196,69.72483120780196 0 0,0 0.9587291995143022,0.7220949565334237 l -29.64793279021115 38.6666426974972" fill="#3aff92" stroke="none" /><path d="M 112.77801427241765 83.33499621200491 l 18.680376854065525 -24.3628269930925 a51.70022505626406,51.70022505626406 0 0,0 0.7015657634269508,0.5475832064064801 l -19.096975172651906 24.037665397462796" fill="#a0ff22" stroke="none" /><path d="M 113.34407831869373 83.78471172551755 l 4.171067241402139 -5.068544721956254 a27.564141035258814,27.564141035258814 0 0,0 0.3637711399103758,0.3046478681770048 l -4.257695918271633 4.99599569638543" fill="#ff1202" stroke="none" /><path d="M 113.6212207817346 84.01681056812373 l 4.5983115917333635 -5.395675352096264 a28.08927231807952,28.08927231807952 0 0,0 0.3653025934079666,0.3167868092518576 l -4.690507983788094 5.315723549424735" fill="#ff1b02" stroke="none" /><path d="M 113.89432698308785 84.25364557470407 l 4.777369242747134 -5.4141628744140835 a28.220555138784697,28.220555138784697 0 0,0 0.3614771074416478,0.3245377161474858 l -4.869857337784771 5.3311261494973" fill="#ff1d02" stroke="none" /><path d="M 114.16331599549186 84.49514656593476 l 5.135485919845759 -5.621914848560788 a28.614403600900225,28.614403600900225 0 0,0 0.3608032611157489,0.33532730944718275 l -5.231497064756354 5.532682953038965" fill="#ff2303" stroke="none" /><path d="M 114.42810811169701 84.74124197986012 l 33.39535171109744 -35.317977021809625 a69.60667666916729,69.60667666916729 0 0,0 0.8635097918462202,0.8306957355981525 l -33.99834474655608 34.73789819944918" fill="#3aff91" stroke="none" /><path d="M 114.68862486808459 84.99185889309783 l 44.06587460425377 -45.02442332070654 a84.0,84.0 0 0,0 1.0246567993307099,1.0202565973995252 l -44.8343672037518 44.25923087265689" fill="#4dd2ff" stroke="none" /><path d="M 115.68641384162765 86.03803664274999 l 16.215962695996183 -14.43329745408141 a42.70892723180795,42.70892723180795 0 0,0 0.4840510561443762,0.5533540338588211 l -16.462005615718407 14.15202786401964" fill="#ffed16" stroke="none" /><path d="M 115.9244219780498 86.31012108654704 l 12.702504042956015 -10.920066203056669 a37.75116279069768,37.75116279069768 0 0,0 0.4193783622661823,0.49641170217837355 l -12.888593018709313 10.699795551249188" fill="#ffa90f" stroke="none" /><line stroke="#e1ed5e" stroke-width="0.3" x1="172.23445277983987" x2="176.4835382374775" y1="55.19839476539836" y2="52.563006222186495" /><path d="M 173.08426987136738 54.67131705675599 a86.0,86.0 0 0,1 12.851231095245387,41.99856678651699" fill="none" id="id39" stroke="none" /><text fill="#e1ed5e" style="font-size:6.75px; font-family:Arial;" text-anchor="middle"><textPath startOffset="22.20632615414155" xlink:href="#id39">March</textPath></text><line stroke="#e1ed5e" stroke-width="0.3" x1="184.98032266829074" x2="189.97916517819016" y1="98.17113171792111" y2="98.06355123074" /><path d="M 185.9800911702706 98.14961562048488 a86.0,86.0 0 0,1 -9.607161424134198,41.387399972396054" fill="none" id="id40" stroke="none" /><text fill="#e1ed5e" style="font-size:6.75px; font-family:Arial;" text-anchor="middle"><textPath startOffset="21.466115282336823" xlink:href="#id40">April</textPath></text><line stroke="#e1ed5e" stroke-width="0.3" x1="174.80103733775053" x2="179.2010983576182" y1="140.37084112569926" y2="142.7455964860345" /><path d="M 175.68104954172406 140.8457921977663 a86.0,86.0 0 0,1 -30.038265399797805,32.042727171017184" fill="none" id="id41" stroke="none" /><text fill="#e1ed5e" style="font-size:6.75px; font-family:Arial;" text-anchor="middle"><textPath startOffset="22.206326154141568" xlink:href="#id41">May</textPath></text><line stroke="#e1ed5e" stroke-width="0.3" x1="143.8653032363475" x2="146.44561519142675" y1="172.8068346515853" y2="177.08958963109032" /><path d="M 144.38136562736335 173.6633856474863 a86.0,86.0 0 0,1 -40.68145358897372,12.25698825130547" fill="none" id="id42" stroke="none" /><text fill="#e1ed5e" style="font-size:6.75px; font-family:Arial;" text-anchor="middle"><textPath startOffset="21.466115282336833" xlink:href="#id42">June</textPath></text><line stroke="#e1ed5e" stroke-width="0.3" x1="102.19456741930631" x2="102.32365962044197" y1="184.97166512339345" y2="189.96999836594603" /><path d="M 102.22038585953345 185.97133177190398 a86.0,86.0 0 0,1 -42.740103519485714,-10.115201625700543" fill="none" id="id43" stroke="none" /><text fill="#e1ed5e" style="font-size:6.75px; font-family:Arial;" text-anchor="middle"><textPath startOffset="22.20632615414155" xlink:href="#id43">July</textPath></text><line stroke="#e1ed5e" stroke-width="0.3" x1="58.666819895761336" x2="56.23545636021788" y1="174.27360380694188" y2="178.64263932499728" /><path d="M 58.180547188652646 175.14741091055294 a86.0,86.0 0 0,1 -31.652253787137756,-30.449443065178592" fill="none" id="id44" stroke="none" /><text fill="#e1ed5e" style="font-size:6.75px; font-family:Arial;" text-anchor="middle"><textPath startOffset="22.20632615414155" xlink:href="#id44">August</textPath></text><line stroke="#e1ed5e" stroke-width="0.3" x1="26.63291911575756" x2="22.317208475507996" y1="142.92168965132927" y2="145.44649492493687" /><path d="M 25.769776987707644 143.4266507060508 a86.0,86.0 0 0,1 -11.730757126820373,-40.83630448921669" fill="none" id="id45" stroke="none" /><text fill="#e1ed5e" style="font-size:6.75px; font-family:Arial;" text-anchor="middle"><textPath startOffset="21.46611528233685" xlink:href="#id45">September</textPath></text><line stroke="#e1ed5e" stroke-width="0.3" x1="15.007084014347285" x2="10.007500721073583" y1="101.09737516637583" y2="101.16192664675087" /><path d="M 14.007167355692545 101.11028546245083 a86.0,86.0 0 0,1 10.666146001902534,-42.60595125391555" fill="none" id="id46" stroke="none" /><text fill="#e1ed5e" style="font-size:6.75px; font-family:Arial;" text-anchor="middle"><textPath startOffset="22.20632615414155" xlink:href="#id46">October</textPath></text><line stroke="#e1ed5e" stroke-width="0.3" x1="26.266209847984243" x2="21.928928074336255" y1="57.711370442889674" y2="55.22380399835377" /><path d="M 25.398753493254645 57.213857153982495 a86.0,86.0 0 0,1 29.58750427330803,-30.492523968695096" fill="none" id="id47" stroke="none" /><text fill="#e1ed5e" style="font-size:6.75px; font-family:Arial;" text-anchor="middle"><textPath startOffset="21.46611528233685" xlink:href="#id47">November</textPath></text><line stroke="#e1ed5e" stroke-width="0.3" x1="56.762969772571076" x2="54.21961505331055" y1="26.818313649435495" y2="22.513508569990535" /><path d="M 56.25429882871897 25.957352633546506 a86.0,86.0 0 0,1 42.265352541879196,-11.944610805530505" fill="none" id="id48" stroke="none" /><text fill="#e1ed5e" style="font-size:6.75px; font-family:Arial;" text-anchor="middle"><textPath startOffset="22.20632615414155" xlink:href="#id48">December</textPath></text></svg>