<?xml version="1.0" encoding="utf-8" ?>
<svg baseProfile="full" height="200mm" version="1.1" viewBox="0,0,200,200" width="200mm" xmlns="http://www.w3.org/2000/svg" xmlns:ev="http://www.w3.org/2001/xml-events" xmlns:xlink="http://www.w3.org/1999/xlink"><defs /><rect fill="#1a1a1a" height="200" width="200" x="0" y="0" /><text alignment-baseline="middle" fill="#e1ed5e" style="dominant-baseline: central; font-size:9.0px; font-family:Arial;" text-anchor="middle" x="100.0" y="100.0">2026</text><line stroke="#e1ed5e" stroke-width="0.3" x1="100.0" x2="100.0" y1="15.0" y2="10.0" /><path d="M 100.0 14.0 a86.0,86.0 0 0,1 42.46469731375804,11.215312516191453" fill="none" id="id37" stroke="none" /><text fill="#e1ed5e" style="font-size:6.75px; font-family:Arial;" text-anchor="middle"><textPath startOffset="22.20632615414155" xlink:href="#id37">January</textPath></text><line stroke="#e1ed5e" stroke-width="0.3" x1="143.23703022742887" x2="145.7803849466894" y1="26.81831364943548" y2="22.513508569990506" /><path d="M 143.74570117128098 25.957352633546492 a86.0,86.0 0 0,1 28.547481713284135,27.462654790039103" fill="none" id="id38" stroke="none" /><text fill="#e1ed5e" style="font-size:6.75px; font-family:Arial;" text-anchor="middle"><textPath startOffset="19.985693538727396" xlink:href="#id38">February</textPath></text><path d="M 110.68208982089419 81.91981866633111 l 1.5939792388282554 -2.6979209277708445 a24.133615666657192,24.133615666657192 0 0,0 0.355842042367685,0.21439084898274272 l -1.640183347413578 2.6700834693294873" fill="#ff0100" stroke="none" /><path d="M 110.99172775467656 82.1063720568725 l 9.171592862861031 -14.930598173163 a38.52258192877242,38.52258192877242 0 0,0 0.5620276811498204,0.35194168237549894 l -9.427239696383113 14.770512149464558" fill="#ffcc13" stroke="none" /><path d="M 111.60114157652 82.49532879139004 l 12.994116098022122 -19.606495485129102 a44.521516073103484,44.521516073103484 0 0,0 0.6351636768288332,0.42886534990438696 l -13.329684469257497 19.379918222926044" fill="#e6ff1a" stroke="none" /><path d="M 111.90073688211348 82.69761687909136 l 1.7335439422684678 -2.5203852285096984 a24.05900576983202,24.05900576983202 0 0,0 0.33919630576307297,0.237628688794909 l -1.7766713876151916 2.4901716969508536" fill="#ff0000" stroke="none" /><path d="M 112.19680574252982 82.90503203632743 l 2.1666724239209665 -3.036794752379091 a24.73049484125856,24.73049484125856 0 0,0 0.34440709739116826,0.2502264032015664 l -2.2186248376659234 2.99904911436085" fill="#ff0a01" stroke="none" /><path d="M 112.48926042617603 83.11751280151076 l 16.468585935013632 -22.26158169000687 a48.69101554728136,48.69101554728136 0 0,0 0.6695103817470412,0.5042613391260267 l -16.84934247051906 21.974803761374996" fill="#b4ff20" stroke="none" /><path d="M 112.77801427241765 83.33499621200491 l 10.616324224683522 -13.845741571977511 a38.44737515277265,38.44737515277265 0 0,0 0.5217262027672586,0.40721557674374687 l -10.85308298261021 13.66094760601054" fill="#ffcb12" stroke="none" /><path d="M 113.34407831869373 83.78471172551755 l 2.3704769204398652 -2.880526155117963 a24.73049484125856,24.73049484125856 0 0,0 0.32637477392982095,0.27332948713020155 l -2.4197092313288033 2.839295510593942" fill="#ff0a01" stroke="none" /><path d="M 113.6212207817346 84.01681056812373 l 2.6132859698351076 -3.066439151441457 a25.028934428559246,25.028934428559246 0 0,0 0.32550272408109704,0.2822727547660212 l -2.6656824925629685 3.0210014032557644" fill="#ff0f01" stroke="none" /><path d="M 113.89432698308785 84.25364557470407 l 2.715046983165988 -3.0769458736864284 a25.10354432538442,25.10354432538442 0 0,0 0.3215513140916878,0.288691944665915 l -2.7676092848536658 3.0297549202512157" fill="#ff1001" stroke="none" /><path d="M 114.16331599549186 84.49514656593476 l 2.9185697913002278 -3.195014279537644 a25.32737401585993,25.32737401585993 0 0,0 0.31935661731328385,0.2968071710512116 l -2.9731342924083584 3.144302522411792" fill="#ff1302" stroke="none" /><path d="M 114.42810811169701 84.74124197986012 l 18.97905401652484 -20.07170936392814 a48.62386664013871,48.62386664013871 0 0,0 0.6032062866719656,0.5802839698587164 l -19.321743546809223 19.74204230730712" fill="#b5ff20" stroke="none" /><path d="M 114.68862486808459 84.99185889309783 l 25.043264153484756 -25.588021041341765 a56.80379728846318,56.80379728846318 0 0,0 0.6929094895169897,0.6899339159630932 l -25.480009443169067 25.153151274728554" fill="#5aff2a" stroke="none" /><path d="M 115.68641384162765 86.03803664274999 l 9.215762558805212 -8.202648511905123 a33.33749253901032,33.33749253901032 0 0,0 0.3778378320093922,0.43193395786023814 l -9.355592254392453 8.042798997841937" fill="#ff860c" stroke="none" /><path d="M 115.9244219780498 86.31012108654704 l 7.219013965236206 -6.206029154140296 a30.51992439530455,30.51992439530455 0 0,0 0.33904640183810303,0.40132399903617394 l -7.324770980561427 6.080846205475016" fill="#ff5f08" stroke="none" /><path d="M 116.38621287248628 86.86637796730983 l 18.69024024593908 -14.9803101546729 a44.95276127675298,44.95276127675298 0 0,0 0.4787381726466415,0.6079488626386272 l -18.94533249917969 14.656368898081235" fill="#e0ff1b" stroke="none" /><path d="M 116.60985879189232 87.15038557335679 l 14.168162811684066 -10.960684948923895 a38.912940908961716,38.912940908961716 0 0,0 0.405295067306061,0.5333208004209958 l -14.35473381921424 10.715179372621865" fill="#ffd113" stroke="none" /><path d="M 117.04232023915458 87.72973835380427 l 3.0274422731067876 -2.1797213224774277 a24.73049484125856,24.73049484125856 0 0,0 0.24575915139884943,0.34760889099146786 l -3.06451404430952 2.1272859311541668" fill="#ff0a01" stroke="none" /><path d="M 117.2510076193507 88.02491185347247 l 19.557973791906907 -13.576508995500387 a44.808316516499445,44.808316516499445 0 0,0 0.43437509415861403,0.6373918516063815 l -19.788773351734253 13.2378391206236" fill="#e2ff1b" stroke="none" /><line stroke="#e1ed5e" stroke-width="0.3" x1="172.23445277983987" x2="176.4835382374775" y1="55.19839476539836" y2="52.563006222186495" /><path d="M 173.08426987136738 54.67131705675599 a86.0,86.0 0 0,1 12.851231095245387,41.99856678651699" fill="none" id="id39" stroke="none" /><text fill="#e1ed5e" style="font-size:6.75px; font-family:Arial;" text-anchor="middle"><textPath startOffset="22.20632615414155" xlink:href="#id39">March</textPath></text><path d="M 117.84615892207809 88.93136811851018 l 53.538476766234254 -33.20589564446945 a84.0,84.0 0 0,0 0.7515368068551043,1.2353289071716742 l -54.10212937137558 32.279398964090696" fill="#4dd2ff" stroke="none" /><path d="M 118.21658344932153 89.55222093294921 l 25.999910360100206 -14.911759933532933 a50.972586192195095,50.972586192195095 0 0,0 0.4299716260719143,0.7648715452586051 l -26.25273962746455 14.462004878339533" fill="#99ff23" stroke="none" /><path d="M 118.56541770881063 90.18545643968196 l 26.472988611672303 -13.994853440747407 a50.94453287098884,50.94453287098884 0 0,0 0.4031667045344152,0.778789747775806 l -26.709964749366833 13.537090970711256" fill="#9aff23" stroke="none" /><path d="M 118.73160827565052 90.50648371742162 l 13.849187399322375 -7.019017488576028 a36.52631952931814,36.52631952931814 0 0,0 0.279408928383302,0.5632713498568205 l -13.967956340659086 6.779586550220258" fill="#ffb210" stroke="none" /><path d="M 119.85752413597 93.16781622104841 l 26.405207321070403 -9.084980982703884 a48.92439530455049,48.92439530455049 0 0,0 0.26713350315235546,0.7986951730314835 l -26.557678117994527 8.629112706750087" fill="#b1ff20" stroke="none" /><path d="M 119.97218684219823 93.5106431181261 l 58.347816009685516 -18.95835465372053 a82.35052440098912,82.35052440098912 0 0,0 0.4264365684485759,1.351920456282767 l -58.6655080619023 17.951184031011344" fill="#4be2ff" stroke="none" /><line stroke="#e1ed5e" stroke-width="0.3" x1="184.98032266829074" x2="189.97916517819016" y1="98.17113171792111" y2="98.06355123074" /><path d="M 185.9800911702706 98.14961562048488 a86.0,86.0 0 0,1 -9.607161424134198,41.387399972396054" fill="none" id="id40" stroke="none" /><text fill="#e1ed5e" style="font-size:6.75px; font-family:Arial;" text-anchor="middle"><textPath startOffset="21.466115282336823" xlink:href="#id40">April</textPath></text><line stroke="#e1ed5e" stroke-width="0.3" x1="174.80103733775053" x2="179.2010983576182" y1="140.37084112569926" y2="142.7455964860345" /><path d="M 175.68104954172406 140.8457921977663 a86.0,86.0 0 0,1 -30.038265399797805,32.042727171017184" fill="none" id="id41" stroke="none" /><text fill="#e1ed5e" style="font-size:6.75px; font-family:Arial;" text-anchor="middle"><textPath startOffset="22.206326154141568" xlink:href="#id41">May</textPath></text><line stroke="#e1ed5e" stroke-width="0.3" x1="143.8653032363475" x2="146.44561519142675" y1="172.8068346515853" y2="177.08958963109032" /><path d="M 144.38136562736335 173.6633856474863 a86.0,86.0 0 0,1 -40.68145358897372,12.25698825130547" fill="none" id="id42" stroke="none" /><text fill="#e1ed5e" style="font-size:6.75px; font-family:Arial;" text-anchor="middle"><textPath startOffset="21.466115282336833" xlink:href="#id42">June</textPath></text><line stroke="#e1ed5e" stroke-width="0.3" x1="102.19456741930631" x2="102.32365962044197" y1="184.97166512339345" y2="189.96999836594603" /><path d="M 102.22038585953345 185.97133177190398 a86.0,86.0 0 0,1 -42.740103519485714,-10.115201625700543" fill="none" id="id43" stroke="none" /><text fill="#e1ed5e" style="font-size:6.75px; font-family:Arial;" text-anchor="middle"><textPath startOffset="22.20632615414155" xlink:href="#id43">July</textPath></text><line stroke="#e1ed5e" stroke-width="0.3" x1="58.666819895761336" x2="56.23545636021788" y1="174.27360380694188" y2="178.64263932499728" /><path d="M 58.180547188652646 175.14741091055294 a86.0,86.0 0 0,1 -31.652253787137756,-30.449443065178592" fill="none" id="id44" stroke="none" /><text fill="#e1ed5e" style="font-size:6.75px; font-family:Arial;" text-anchor="middle"><textPath startOffset="22.20632615414155" xlink:href="#id44">August</textPath></text><line stroke="#e1ed5e" stroke-width="0.3" x1="26.63291911575756" x2="22.317208475507996" y1="142.92168965132927" y2="145.44649492493687" /><path d="M 25.769776987707644 143.4266507060508 a86.0,86.0 0 0,1 -11.730757126820373,-40.83630448921669" fill="none" id="id45" stroke="none" /><text fill="#e1ed5e" style="font-size:6.75px; font-family:Arial;" text-anchor="middle"><textPath startOffset="21.46611528233685" xlink:href="#id45">September</textPath></text><line stroke="#e1ed5e" stroke-width="0.3" x1="15.007084014347285" x2="10.007500721073583" y1="101.09737516637583" y2="101.16192664675087" /><path d="M 14.007167355692545 101.11028546245083 a86.0,86.0 0 0,1 10.666146001902534,-42.60595125391555" fill="none" id="id46" stroke="none" /><text fill="#e1ed5e" style="font-size:6.75px; font-family:Arial;" text-anchor="middle"><textPath startOffset="22.20632615414155" xlink:href="#id46">October</textPath></text><line stroke="#e1ed5e" stroke-width="0.3" x1="26.266209847984243" x2="21.928928074336255" y1="57.711370442889674" y2="55.22380399835377" /><path d="M 25.398753493254645 57.213857153982495 a86.0,86.0 0 0,1 29.58750427330803,-30.492523968695096" fill="none" id="id47" stroke="none" /><text fill="#e1ed5e" style="font-size:6.75px; font-family:Arial;" text-anchor="middle"><textPath startOffset="21.46611528233685" xlink:href="#id47">November</textPath></text><line stroke="#e1ed5e" stroke-width="0.3" x1="56.762969772571076" x2="54.21961505331055" y1="26.818313649435495" y2="22.513508569990535" /><path d="M 56.25429882871897 25.957352633546506 a86.0,86.0 0 0,1 42.265352541879196,-11.944610805530505" fill="none" id="id48" stroke="none" /><text fill="#e1ed5e" style="font-size:6.75px; font-family:Arial;" text-anchor="middle"><textPath startOffset="22.20632615414155" xlink:href="#id48">December</textPath></text></svg>