<?xml version="1.0" encoding="utf-8" ?>
<svg baseProfile="full" height="200mm" version="1.1" viewBox="0,0,200,200" width="200mm" xmlns="http://www.w3.org/2000/svg" xmlns:ev="http://www.w3.org/2001/xml-events" xmlns:xlink="http://www.w3.org/1999/xlink"><defs /><rect fill="#1a1a1a" height="200" width="200" x="0" y="0" /><text alignment-baseline="middle" fill="#e1ed5e" style="dominant-baseline: central; font-size:9.0px; font-family:Arial;" text-anchor="middle" x="100.0" y="100.0">2025</text><line stroke="#e1ed5e" stroke-width="0.3" x1="100.0" x2="100.0" y1="15.0" y2="10.0" /><path d="M 100.0 14.0 a86.0,86.0 0 0,1 42.46469731375804,11.215312516191453" fill="none" id="id25" stroke="none" /><text fill="#e1ed5e" style="font-size:6.75px; font-family:Arial;" text-anchor="middle"><textPath startOffset="22.20632615414155" xlink:href="#id25">January</textPath></text><path d="M 100.0 79.0 l 0.0 -3.6601676003403085 a24.66016760034031,24.66016760034031 0 0,0 0.42448424776723287,0.0036536699349923873 l -0.06300376849470452 3.659625307013875" fill="#ff2904" stroke="none" /><path d="M 100.36148047927253 79.00311137660856 l 0.05229530942514171 -3.037615723358762 a24.038065845597202,24.038065845597202 0 0,0 0.413653178001466,0.010683441192028768 l -0.10457512262147553 3.0362654900243733" fill="#ff2103" stroke="none" /><path d="M 100.72285384407766 79.0124445844662 l 0.23456312450365374 -6.810376142140692 a27.81441435904921,27.81441435904921 0 0,0 0.478353844642497,0.02059892279434749 l -0.35175780153548225 6.80532949282215" fill="#ff5607" stroke="none" /><path d="M 101.08401301168833 79.027996857942 l 3.2520390350649873 -62.916009426173986 a84.0,84.0 0 0,0 1.4433518046415523,0.08706692247878367 l -4.334552888546152 62.8507092343149" fill="#4dd2ff" stroke="none" /><path d="M 101.44485096284872 79.0497635885617 l 0.5855983008558739 -8.491133798934037 a29.511302988459832,29.511302988459832 0 0,0 0.506483958178161,0.039312903027568916 l -0.7316724483963761 8.479795633718004" fill="#ff6d0a" stroke="none" /><path d="M 101.80526077348638 79.07773832637324 l 0.6308330763504473 -7.311107009927304 a28.33827200918758,28.33827200918758 0 0,0 0.4856300970375462,0.04611642929975011 l -0.7565883004782378 7.299165036112376" fill="#ff5d08" stroke="none" /><path d="M 102.16513564639614 79.11191278185805 l 0.5906551233982441 -5.698329226587231 a26.728859349763688,26.728859349763688 0 0,0 0.4572331550305005,0.05137547249864894 l -0.6886549819384699 5.687317800617981" fill="#ff4706" stroke="none" /><path d="M 102.52436894288641 79.15227682838746 l 0.44732267756409555 -3.6942537169616907 a24.7212374424576,24.7212374424576 0 0,0 0.42200950077054344,0.054788944953785966 l -0.5108469068424851 3.686006448843768" fill="#ff2a04" stroke="none" /><path d="M 102.88285421437855 79.19881850522331 l 2.5746931584870745 -18.577651070917696 a39.75521698549845,39.75521698549845 0 0,0 0.6770332754192301,0.0997771056434907 l -2.89409541433496 18.530579481113236" fill="#fff116" stroke="none" /><path d="M 103.2404852339499 79.25152402106235 l 0.8446154433983102 -5.407981204539729 a26.47353961855415,26.47353961855415 0 0,0 0.44963516152684035,0.07419365427465785 l -0.9375798110640257 5.392641287325446" fill="#ff4306" stroke="none" /><path d="M 103.59715602781102 79.31037775812273 l 1.322755491245674 -7.608041247211502 a28.722174156861016,28.722174156861016 0 0,0 0.48636882203390247,0.0888807934354224 l -1.4535194343824773 7.584144972425341" fill="#ff6209" stroke="none" /><path d="M 103.95276090670814 79.375362276772 l 0.14613820203655112 -0.7625170218144758 a21.776394604985953,21.776394604985953 0 0,0 0.3675374156526615,0.07372454796743452 l -0.15924202715633798 0.7598885177698329" fill="#ff0000" stroke="none" /><path d="M 104.66035177308747 79.52364482259891 l 1.2179182350669846 -5.3512111472527994 a26.488058451746966,26.488058451746966 0 0,0 0.44370816865127216,0.10501138788378803 l -1.3098500906807802 5.329453847228143" fill="#ff4306" stroke="none" /><path d="M 105.36241919743992 79.69619591428918 l 0.7835966267027585 -2.966943054058937 a24.068676385578726,24.068676385578726 0 0,0 0.3996570599639394,0.10924137162104802 l -0.8345515758904087 2.9530151416115955" fill="#ff2103" stroke="none" /><path d="M 105.71112130821622 79.79150937346287 l 0.5859431923537617 -2.0733279633422113 a23.154534350675913,23.154534350675913 0 0,0 0.3826119011306417,0.1116949058491787 l -0.6215453112078306 2.0629347285743287" fill="#ff1402" stroke="none" /><path d="M 106.0581310904928 79.89281104454417 l 4.601957085823514 -15.274086893690072 a36.9522957424866,36.9522957424866 0 0,0 0.6074510953440868,0.18873801224382483 l -4.864193553878319 15.192608746563726" fill="#ffce13" stroke="none" /><path d="M 106.40334571778207 80.00007090966166 l 2.878980281150057 -8.99208070487053 a30.44171821556626,30.44171821556626 0 0,0 0.4976745135171333,0.1640754624747483 l -3.033337616909608 8.941191518136545" fill="#ff790b" stroke="none" /><path d="M 107.08798089147638 80.2323363322302 l 0.6769343478771488 -1.887901606801495 a23.005595320172922,23.005595320172922 0 0,0 0.37161450184411227,0.13686875721297687 l -0.7093311754938375 1.8759695817821935" fill="#ff1202" stroke="none" /><path d="M 107.4271985657038 80.35727306442388 l 1.0976093858299871 -2.9028497430162363 a24.103430842534035,24.103430842534035 0 0,0 0.38682199881905854,0.1500809259014738 l -1.1474145496487127 2.8835261132242156" fill="#ff2203" stroke="none" /><path d="M 107.76421540070413 80.48803036053334 l 1.1279892119547357 -2.834708997809451 a24.050890814917526,24.050890814917526 0 0,0 0.3833438622153042,0.15637558658877768 l -1.1766169437584273 2.814872525037094" fill="#ff2103" stroke="none" /><path d="M 108.09893153111575 80.62456947434976 l 1.9514315198652121 -4.668495553203375 a26.05993435797374,26.05993435797374 0 0,0 0.41238759324156604,0.17656284579577092 l -2.0315028708970932 4.634213179444814" fill="#ff3d05" stroke="none" /><path d="M 108.43124777332544 80.76684994638697 l 20.436590506498966 -46.61943550506147 a71.90212174694597,71.90212174694597 0 0,0 1.1292669272533986,0.5066691529177711 l -21.236039552219143 46.26074602162716" fill="#3effb6" stroke="none" /><path d="M 108.76106565485865 80.91482961587045 l 3.1598964376581313 -6.883541829807511 a28.574172801001723,28.574172801001723 0 0,0 0.4452424730751505,0.20904731115854552 l -3.2779171220328798 6.828129536008962" fill="#ff6008" stroke="none" /><path d="M 109.41281617654863 81.2277094730956 l 4.06845258872364 -8.113849517292964 a30.076720798612644,30.076720798612644 0 0,0 0.46080330879403647,0.23604135246192104 l -4.207516385106432 8.042615639518543" fill="#ff740a" stroke="none" /><line stroke="#e1ed5e" stroke-width="0.3" x1="143.23703022742887" x2="145.7803849466894" y1="26.81831364943548" y2="22.513508569990506" /><path d="M 143.74570117128098 25.957352633546492 a86.0,86.0 0 0,1 28.547481713284135,27.462654790039103" fill="none" id="id26" stroke="none" /><text fill="#e1ed5e" style="font-size:6.75px; font-family:Arial;" text-anchor="middle"><textPath startOffset="19.985693538727396" xlink:href="#id26">February</textPath></text><line stroke="#e1ed5e" stroke-width="0.3" x1="172.23445277983987" x2="176.4835382374775" y1="55.19839476539836" y2="52.563006222186495" /><path d="M 173.08426987136738 54.67131705675599 a86.0,86.0 0 0,1 12.851231095245387,41.99856678651699" fill="none" id="id27" stroke="none" /><text fill="#e1ed5e" style="font-size:6.75px; font-family:Arial;" text-anchor="middle"><textPath startOffset="22.20632615414155" xlink:href="#id27">March</textPath></text><line stroke="#e1ed5e" stroke-width="0.3" x1="184.98032266829074" x2="189.97916517819016" y1="98.17113171792111" y2="98.06355123074" /><path d="M 185.9800911702706 98.14961562048488 a86.0,86.0 0 0,1 -9.607161424134198,41.387399972396054" fill="none" id="id28" stroke="none" /><text fill="#e1ed5e" style="font-size:6.75px; font-family:Arial;" text-anchor="middle"><textPath startOffset="21.466115282336823" xlink:href="#id28">April</textPath></text><line stroke="#e1ed5e" stroke-width="0.3" x1="174.80103733775053" x2="179.2010983576182" y1="140.37084112569926" y2="142.7455964860345" /><path d="M 175.68104954172406 140.8457921977663 a86.0,86.0 0 0,1 -30.038265399797805,32.042727171017184" fill="none" id="id29" stroke="none" /><text fill="#e1ed5e" style="font-size:6.75px; font-family:Arial;" text-anchor="middle"><textPath startOffset="22.206326154141568" xlink:href="#id29">May</textPath></text><line stroke="#e1ed5e" stroke-width="0.3" x1="143.8653032363475" x2="146.44561519142675" y1="172.8068346515853" y2="177.08958963109032" /><path d="M 144.38136562736335 173.6633856474863 a86.0,86.0 0 0,1 -40.68145358897372,12.25698825130547" fill="none" id="id30" stroke="none" /><text fill="#e1ed5e" style="font-size:6.75px; font-family:Arial;" text-anchor="middle"><textPath startOffset="21.466115282336833" xlink:href="#id30">June</textPath></text><line stroke="#e1ed5e" stroke-width="0.3" x1="102.19456741930631" x2="102.32365962044197" y1="184.97166512339345" y2="189.96999836594603" /><path d="M 102.22038585953345 185.97133177190398 a86.0,86.0 0 0,1 -42.740103519485714,-10.115201625700543" fill="none" id="id31" stroke="none" /><text fill="#e1ed5e" style="font-size:6.75px; font-family:Arial;" text-anchor="middle"><textPath startOffset="22.20632615414155" xlink:href="#id31">July</textPath></text><line stroke="#e1ed5e" stroke-width="0.3" x1="58.666819895761336" x2="56.23545636021788" y1="174.27360380694188" y2="178.64263932499728" /><path d="M 58.180547188652646 175.14741091055294 a86.0,86.0 0 0,1 -31.652253787137756,-30.449443065178592" fill="none" id="id32" stroke="none" /><text fill="#e1ed5e" style="font-size:6.75px; font-family:Arial;" text-anchor="middle"><textPath startOffset="22.20632615414155" xlink:href="#id32">August</textPath></text><line stroke="#e1ed5e" stroke-width="0.3" x1="26.63291911575756" x2="22.317208475507996" y1="142.92168965132927" y2="145.44649492493687" /><path d="M 25.769776987707644 143.4266507060508 a86.0,86.0 0 0,1 -11.730757126820373,-40.83630448921669" fill="none" id="id33" stroke="none" /><text fill="#e1ed5e" style="font-size:6.75px; font-family:Arial;" text-anchor="middle"><textPath startOffset="21.46611528233685" xlink:href="#id33">September</textPath></text><line stroke="#e1ed5e" stroke-width="0.3" x1="15.007084014347285" x2="10.007500721073583" y1="101.09737516637583" y2="101.16192664675087" /><path d="M 14.007167355692545 101.11028546245083 a86.0,86.0 0 0,1 10.666146001902534,-42.60595125391555" fill="none" id="id34" stroke="none" /><text fill="#e1ed5e" style="font-size:6.75px; font-family:Arial;" text-anchor="middle"><textPath startOffset="22.20632615414155" xlink:href="#id34">October</textPath></text><line stroke="#e1ed5e" stroke-width="0.3" x1="26.266209847984243" x2="21.928928074336255" y1="57.711370442889674" y2="55.22380399835377" /><path d="M 25.398753493254645 57.213857153982495 a86.0,86.0 0 0,1 29.58750427330803,-30.492523968695096" fill="none" id="id35" stroke="none" /><text fill="#e1ed5e" style="font-size:6.75px; font-family:Arial;" text-anchor="middle"><textPath startOffset="21.46611528233685" xlink:href="#id35">November</textPath></text><line stroke="#e1ed5e" stroke-width="0.3" x1="56.762969772571076" x2="54.21961505331055" y1="26.818313649435495" y2="22.513508569990535" /><path d="M 56.25429882871897 25.957352633546506 a86.0,86.0 0 0,1 42.265352541879196,-11.944610805530505" fill="none" id="id36" stroke="none" /><text fill="#e1ed5e" style="font-size:6.75px; font-family:Arial;" text-anchor="middle"><textPath startOffset="22.20632615414155" xlink:href="#id36">December</textPath></text></svg>