<?xml version="1.0" encoding="utf-8" ?>
<svg baseProfile="full" height="200mm" version="1.1" viewBox="0,0,200,200" width="200mm" xmlns="http://www.w3.org/2000/svg" xmlns:ev="http://www.w3.org/2001/xml-events" xmlns:xlink="http://www.w3.org/1999/xlink"><defs /><rect fill="#1a1a1a" height="200" width="200" x="0" y="0" /><text alignment-baseline="middle" fill="#e1ed5e" style="dominant-baseline: central; font-size:9.0px; font-family:Arial;" text-anchor="middle" x="100.0" y="100.0">2026</text><line stroke="#e1ed5e" stroke-width="0.3" x1="100.0" x2="100.0" y1="15.0" y2="10.0" /><path d="M 100.0 14.0 a86.0,86.0 0 0,1 42.46469731375804,11.215312516191453" fill="none" id="id37" stroke="none" /><text fill="#e1ed5e" style="font-size:6.75px; font-family:Arial;" text-anchor="middle"><textPath startOffset="22.20632615414155" xlink:href="#id37">January</textPath></text><line stroke="#e1ed5e" stroke-width="0.3" x1="143.23703022742887" x2="145.7803849466894" y1="26.81831364943548" y2="22.513508569990506" /><path d="M 143.74570117128098 25.957352633546492 a86.0,86.0 0 0,1 28.547481713284135,27.462654790039103" fill="none" id="id38" stroke="none" /><text fill="#e1ed5e" style="font-size:6.75px; font-family:Arial;" text-anchor="middle"><textPath startOffset="19.985693538727396" xlink:href="#id38">February</textPath></text><path d="M 110.68208982089419 81.91981866633111 l 3.169132660470983 -5.363977848200816 a27.230221518987342,27.230221518987342 0 0,0 0.40150045369406023,0.24189953093143252 l -3.2609951803826807 5.308631707810768" fill="#ff0200" stroke="none" /><path d="M 110.99172775467656 82.1063720568725 l 18.23486390676083 -29.684857342133466 a55.83821202531645,55.83821202531645 0 0,0 0.8146551776349399,0.5101369974983898 l -18.74313823676803 29.366576003312133" fill="#74ff27" stroke="none" /><path d="M 111.60114157652 82.49532879139004 l 25.834764165727417 -38.981426913048 a67.76522943037975,67.76522943037975 0 0,0 0.9667687914193059,0.6527666035292095 l -26.501937651553266 38.530948397220115" fill="#37ff78" stroke="none" /><path d="M 111.90073688211348 82.69761687909136 l 3.4466137274430118 -5.011003249019935 a27.081882911392405,27.081882911392405 0 0,0 0.3818143910240451,0.26748538106262576 l -3.532359258050708 4.950933025193374" fill="#ff0000" stroke="none" /><path d="M 112.19680574252982 82.90503203632743 l 4.307755192744767 -6.037723201455335 a28.416930379746837,28.416930379746837 0 0,0 0.39574592306691775,0.2875262433928517 l -4.411046432165473 5.962677723245808" fill="#ff1502" stroke="none" /><path d="M 112.48926042617603 83.11751280151076 l 32.74266834039244 -44.26024121832683 a76.05498417721519,76.05498417721519 0 0,0 1.0457699622388672,0.7876522544733131 l -33.49968445638969 43.69007237434767" fill="#42ffd9" stroke="none" /><path d="M 112.77801427241765 83.33499621200491 l 21.107263517011766 -27.527956923987603 a55.68868670886076,55.68868670886076 0 0,0 0.7556887027595736,0.5898270190394306 l -21.577984774930773 27.160551515724947" fill="#76ff27" stroke="none" /><path d="M 113.34407831869373 83.78471172551755 l 4.71295713674479 -5.727031629493407 a28.416930379746837,28.416930379746837 0 0,0 0.3750256227383011,0.3140731738837931 l -4.810840296442209 5.645057298215795" fill="#ff1502" stroke="none" /><path d="M 113.6212207817346 84.01681056812373 l 5.195707520157583 -6.0966618820730565 a29.01028481012658,29.01028481012658 0 0,0 0.37728041355567377,0.3271738568525495 l -5.299881732360022 6.006323031800835" fill="#ff1e03" stroke="none" /><path d="M 113.89432698308785 84.25364557470407 l 5.398027690366689 -6.117551236093443 a29.158623417721518,29.158623417721518 0 0,0 0.37349282458063565,0.33532554563345346 l -5.502531502543315 6.023726681690692" fill="#ff2103" stroke="none" /><path d="M 114.16331599549186 84.49514656593476 l 5.802669584500223 -6.352293591601095 a29.60363924050633,29.60363924050633 0 0,0 0.3732766800889326,0.34691999298044857 l -5.911154148384003 6.251469012546005" fill="#ff2803" stroke="none" /><path d="M 114.42810811169701 84.74124197986012 l 37.73395442266011 -39.90636022553592 a75.92147943037975,75.92147943037975 0 0,0 0.9418484553023353,0.9060574677752934 l -38.415286121574866 39.25091967099832" fill="#42ffd8" stroke="none" /><path d="M 114.68862486808459 84.99185889309783 l 44.06587460425377 -45.02442332070654 a84.0,84.0 0 0,0 1.0246567993307099,1.0202565973995252 l -44.8343672037518 44.25923087265689" fill="#4dd2ff" stroke="none" /><line stroke="#e1ed5e" stroke-width="0.3" x1="172.23445277983987" x2="176.4835382374775" y1="55.19839476539836" y2="52.563006222186495" /><path d="M 173.08426987136738 54.67131705675599 a86.0,86.0 0 0,1 12.851231095245387,41.99856678651699" fill="none" id="id39" stroke="none" /><text fill="#e1ed5e" style="font-size:6.75px; font-family:Arial;" text-anchor="middle"><textPath startOffset="22.20632615414155" xlink:href="#id39">March</textPath></text><line stroke="#e1ed5e" stroke-width="0.3" x1="184.98032266829074" x2="189.97916517819016" y1="98.17113171792111" y2="98.06355123074" /><path d="M 185.9800911702706 98.14961562048488 a86.0,86.0 0 0,1 -9.607161424134198,41.387399972396054" fill="none" id="id40" stroke="none" /><text fill="#e1ed5e" style="font-size:6.75px; font-family:Arial;" text-anchor="middle"><textPath startOffset="21.466115282336823" xlink:href="#id40">April</textPath></text><line stroke="#e1ed5e" stroke-width="0.3" x1="174.80103733775053" x2="179.2010983576182" y1="140.37084112569926" y2="142.7455964860345" /><path d="M 175.68104954172406 140.8457921977663 a86.0,86.0 0 0,1 -30.038265399797805,32.042727171017184" fill="none" id="id41" stroke="none" /><text fill="#e1ed5e" style="font-size:6.75px; font-family:Arial;" text-anchor="middle"><textPath startOffset="22.206326154141568" xlink:href="#id41">May</textPath></text><line stroke="#e1ed5e" stroke-width="0.3" x1="143.8653032363475" x2="146.44561519142675" y1="172.8068346515853" y2="177.08958963109032" /><path d="M 144.38136562736335 173.6633856474863 a86.0,86.0 0 0,1 -40.68145358897372,12.25698825130547" fill="none" id="id42" stroke="none" /><text fill="#e1ed5e" style="font-size:6.75px; font-family:Arial;" text-anchor="middle"><textPath startOffset="21.466115282336833" xlink:href="#id42">June</textPath></text><line stroke="#e1ed5e" stroke-width="0.3" x1="102.19456741930631" x2="102.32365962044197" y1="184.97166512339345" y2="189.96999836594603" /><path d="M 102.22038585953345 185.97133177190398 a86.0,86.0 0 0,1 -42.740103519485714,-10.115201625700543" fill="none" id="id43" stroke="none" /><text fill="#e1ed5e" style="font-size:6.75px; font-family:Arial;" text-anchor="middle"><textPath startOffset="22.20632615414155" xlink:href="#id43">July</textPath></text><line stroke="#e1ed5e" stroke-width="0.3" x1="58.666819895761336" x2="56.23545636021788" y1="174.27360380694188" y2="178.64263932499728" /><path d="M 58.180547188652646 175.14741091055294 a86.0,86.0 0 0,1 -31.652253787137756,-30.449443065178592" fill="none" id="id44" stroke="none" /><text fill="#e1ed5e" style="font-size:6.75px; font-family:Arial;" text-anchor="middle"><textPath startOffset="22.20632615414155" xlink:href="#id44">August</textPath></text><line stroke="#e1ed5e" stroke-width="0.3" x1="26.63291911575756" x2="22.317208475507996" y1="142.92168965132927" y2="145.44649492493687" /><path d="M 25.769776987707644 143.4266507060508 a86.0,86.0 0 0,1 -11.730757126820373,-40.83630448921669" fill="none" id="id45" stroke="none" /><text fill="#e1ed5e" style="font-size:6.75px; font-family:Arial;" text-anchor="middle"><textPath startOffset="21.46611528233685" xlink:href="#id45">September</textPath></text><line stroke="#e1ed5e" stroke-width="0.3" x1="15.007084014347285" x2="10.007500721073583" y1="101.09737516637583" y2="101.16192664675087" /><path d="M 14.007167355692545 101.11028546245083 a86.0,86.0 0 0,1 10.666146001902534,-42.60595125391555" fill="none" id="id46" stroke="none" /><text fill="#e1ed5e" style="font-size:6.75px; font-family:Arial;" text-anchor="middle"><textPath startOffset="22.20632615414155" xlink:href="#id46">October</textPath></text><line stroke="#e1ed5e" stroke-width="0.3" x1="26.266209847984243" x2="21.928928074336255" y1="57.711370442889674" y2="55.22380399835377" /><path d="M 25.398753493254645 57.213857153982495 a86.0,86.0 0 0,1 29.58750427330803,-30.492523968695096" fill="none" id="id47" stroke="none" /><text fill="#e1ed5e" style="font-size:6.75px; font-family:Arial;" text-anchor="middle"><textPath startOffset="21.46611528233685" xlink:href="#id47">November</textPath></text><line stroke="#e1ed5e" stroke-width="0.3" x1="56.762969772571076" x2="54.21961505331055" y1="26.818313649435495" y2="22.513508569990535" /><path d="M 56.25429882871897 25.957352633546506 a86.0,86.0 0 0,1 42.265352541879196,-11.944610805530505" fill="none" id="id48" stroke="none" /><text fill="#e1ed5e" style="font-size:6.75px; font-family:Arial;" text-anchor="middle"><textPath startOffset="22.20632615414155" xlink:href="#id48">December</textPath></text></svg>