<?xml version="1.0" encoding="utf-8" ?>
<svg baseProfile="full" height="200mm" version="1.1" viewBox="0,0,200,200" width="200mm" xmlns="http://www.w3.org/2000/svg" xmlns:ev="http://www.w3.org/2001/xml-events" xmlns:xlink="http://www.w3.org/1999/xlink"><defs /><rect fill="#1a1a1a" height="200" width="200" x="0" y="0" /><text alignment-baseline="middle" fill="#e1ed5e" style="dominant-baseline: central; font-size:9.0px; font-family:Arial;" text-anchor="middle" x="100.0" y="100.0">2024</text><line stroke="#e1ed5e" stroke-width="0.3" x1="100.0" x2="100.0" y1="15.0" y2="10.0" /><path d="M 100.0 14.0 a86.0,86.0 0 0,1 42.35913384403234,11.155469271406648" fill="none" id="id13" stroke="none" /><text fill="#e1ed5e" style="font-size:6.75px; font-family:Arial;" text-anchor="middle"><textPath startOffset="22.145653131862478" xlink:href="#id13">January</textPath></text><path d="M 100.36049292484886 79.00309439819443 l 0.02889263150448491 -1.682850936788227 a22.68309894528048,22.68309894528048 0 0,0 0.38927080264262354,0.010026235037475583 l -0.05777674821784982 1.6821069844007062" fill="#ff0e01" stroke="none" /><path d="M 100.72087961077811 79.0123766808444 l 0.275661052211966 -8.025570762560513 a29.03030354847018,29.03030354847018 0 0,0 0.4979032142903377,0.021382106367300965 l -0.41339002710313993 8.019656087767382" fill="#ff6709" stroke="none" /><path d="M 101.08105385017728 79.02784411241856 l 0.05350165137935315 -1.0379177436783855 a22.039295756434495,22.039295756434495 0 0,0 0.37766500252266705,0.022719388726831956 l -0.07131100603448257 1.0368463771268617" fill="#ff0500" stroke="none" /><path d="M 101.44090949804482 79.04949213459386 l 0.09355065251349264 -1.3602059560001916 a22.363419219214727,22.363419219214727 0 0,0 0.3827669642964387,0.02962858382401369 l -0.11688661158516479 1.3583996051811242" fill="#ff0901" stroke="none" /><path d="M 102.15924093988457 79.11130261209362 l 3.099521337803071 -29.985057284152962 a51.14482862544472,51.14482862544472 0 0,0 0.8725407578703199,0.09777001186522787 l -3.6137979972741876 29.927431511780764" fill="#8aff24" stroke="none" /><path d="M 102.87502721639298 79.19773525538626 l 0.21665505582703587 -1.5676080573690927 a22.582508905107304,22.582508905107304 0 0,0 0.3835530466115585,0.056369089477340706 l -0.24353320804627637 1.5636578945928696" fill="#ff0d01" stroke="none" /><path d="M 103.23170211078529 79.25015418208739 l 1.0757155232881395 -6.906865325758672 a27.990132510561622,27.990132510561622 0 0,0 0.4741295155491623,0.07801783135617409 l -1.1941225418903723 6.88738149590683" fill="#ff5908" stroke="none" /><path d="M 103.58742460773223 79.30868818359171 l 1.6228426692880005 -9.360125262795977 a30.49976648473494,30.49976648473494 0 0,0 0.5151051336637695,0.09386931440834966 l -1.7832825365028235 9.330887774456261" fill="#ff7b0b" stroke="none" /><path d="M 103.94208987418118 79.37332000966035 l 0.35708876000265244 -1.8684392836811812 a22.902255960517216,22.902255960517216 0 0,0 0.38552514149106787,0.07711582555951442 l -0.38911038702467726 1.8620340614588076" fill="#ff1101" stroke="none" /><path d="M 104.29559338865022 79.4440306129975 l 2.907578578469148 -13.913816053268656 a35.214369150763225,35.214369150763225 0 0,0 0.5906582995212645,0.12873122725928807 l -3.1459992946095467 13.86185336787565" fill="#ffb911" stroke="none" /><path d="M 104.64783097203109 79.52079915486377 l 0.3017591464251735 -1.3296064774484389 a22.363419219214727,22.363419219214727 0 0,0 0.37364784459323497,0.08817987393366913 l -0.32453914475829343 1.3242304598685422" fill="#ff0901" stroke="none" /><path d="M 104.9986988182912 79.60360301121754 l 1.1273127625826345 -4.599820767760652 a25.73594606812661,25.73594606812661 0 0,0 0.42819063476381714,0.10884438493051043 l -1.2061086905718459 4.579791150994874" fill="#ff3905" stroke="none" /><path d="M 105.3480935250658 79.69241777938227 l 0.23907838317661673 -0.907819562387282 a21.938773045605476,21.938773045605476 0 0,0 0.3633673002825819,0.09903737351462928 l -0.2546270843938914 0.9035816947285107" fill="#ff0300" stroke="none" /><path d="M 105.69591212413111 79.78721728523813 l 2.508450239206813 -8.901604963509556 a30.248291384302004,30.248291384302004 0 0,0 0.4985782478685674,0.1451288615973003 l -2.660888499456985 8.85723240760974" fill="#ff770b" stroke="none" /><path d="M 106.38641147887787 79.99465700312896 l 0.23547230040994668 -0.7376136272370181 a21.774287457825647,21.774287457825647 0 0,0 0.355104683725106,0.1167299628156919 l -0.2480997217827951 0.7334627430193047" fill="#ff0100" stroke="none" /><path d="M 106.72888874123014 80.10723608172694 l 3.4067327884105367 -10.071400152189426 a31.631976736108513,31.631976736108513 0 0,0 0.5128812141643433,0.17840670978945591 l -3.5791197746198984 10.011435009831379" fill="#ff8a0c" stroke="none" /><path d="M 107.06938296918511 80.22567764915836 l 2.483602231801343 -6.947077465881093 a28.3776802155394,28.3776802155394 0 0,0 0.45730070646803095,0.16792715368986053 l -2.6024920899234987 6.9034194631825105" fill="#ff5e08" stroke="none" /><path d="M 107.74402155503746 80.48000691201159 l 0.5151927508751021 -1.2986222810190864 a22.397083891294102,22.397083891294102 0 0,0 0.35616220227814915,0.14484806704287437 l -0.5374094143436909 1.2895869573969183" fill="#ff0a01" stroke="none" /><path d="M 108.07796709384702 80.6158196554323 l 2.0683140158788995 -4.963200694829779 a26.376921424517928,26.376921424517928 0 0,0 0.4164600937788458,0.17776204978625412 l -2.1532091848281754 4.926963995384123" fill="#ff4206" stroke="none" /><path d="M 108.73861861582097 80.90454125486305 l 0.6023741616913683 -1.3162962545234442 a22.447580899413165,22.447580899413165 0 0,0 0.34901850047337285,0.16335828119874435 l -0.6248813760362462 1.3057617417541665" fill="#ff0b01" stroke="none" /><path d="M 109.06512990194946 81.05736502329252 l 0.39039100664738924 -0.815767056522883 a21.904367750740356,21.904367750740356 0 0,0 0.33778595202246536,0.16522803580410222 l -0.4043372079319217 0.8089452706215595" fill="#ff0300" stroke="none" /><path d="M 109.71004243097381 81.37971332152246 l 0.3613795864014303 -0.6929930066092853 a21.781559026994792,21.781559026994792 0 0,0 0.3300540805711889,0.17573520753413774 l -0.37322248275917874 0.6866873313525744" fill="#ff0100" stroke="none" /><path d="M 110.34350942703115 81.72400993836675 l 0.38485589992304103 -0.6800034989839275 a21.781357038962316,21.781357038962316 0 0,0 0.32382398703742793,0.18695986608611692 l -0.3964723548208664 0.6732967356216389" fill="#ff0100" stroke="none" /><line stroke="#e1ed5e" stroke-width="0.3" x1="143.13028292997686" x2="145.6673583964461" y1="26.7553504044142" y2="22.446841604673864" /><path d="M 143.63769802327073 25.89364864446614 a86.0,86.0 0 0,1 29.32050498858742,28.57503671076993" fill="none" id="id14" stroke="none" /><text fill="#e1ed5e" style="font-size:6.75px; font-family:Arial;" text-anchor="middle"><textPath startOffset="20.669276256404974" xlink:href="#id14">February</textPath></text><path d="M 110.65571695917076 81.90426304109057 l 3.930798770239072 -6.675355666559148 a28.74671235087352,28.74671235087352 0 0,0 0.4230793878248018,0.2540470163306307 l -4.044810914621308 6.606894649692596" fill="#ff6309" stroke="none" /><path d="M 111.27062007382361 82.28071324371311 l 7.3437979016858135 -11.545670073859817 a34.68334261338315,34.68334261338315 0 0,0 0.49962902199529513,0.3238534957107573 l -7.5409125559381165 11.417902736445164" fill="#ffb210" stroke="none" /><path d="M 111.5731344415666 82.4767994020092 l 0.4916453838812191 -0.7444137738419456 a21.892113810103464,21.892113810103464 0 0,0 0.3118101191430882,0.20979976380295107 l -0.5043517911213082 0.7358643359818757" fill="#ff0300" stroke="none" /><path d="M 111.8722381534696 82.67804972795209 l 3.8977828989299566 -5.686981736192001 a27.894524841856196,27.894524841856196 0 0,0 0.392655165363246,0.27410380056046213 l -3.9948331554669636 5.619233119826412" fill="#ff5708" stroke="none" /><path d="M 112.16784306229584 82.88440491214696 l 0.6046866592747849 -0.8505675132549751 a22.043604834460655,22.043604834460655 0 0,0 0.30653101007022465,0.22190481229341635 l -0.6191986797189775 0.840061929588484" fill="#ff0500" stroke="none" /><path d="M 112.45986205192187 83.09580414077388 l 5.0016472449583915 -6.785695081952701 a29.429835876708214,29.429835876708214 0 0,0 0.4040954862807386,0.30324078640297697 l -5.117395720149896 6.698835268285709" fill="#ff6c0a" stroke="none" /><path d="M 113.03279911837588 83.53348406188908 l 4.2521485131997565 -5.372450739695277 a27.851568720282913,27.851568720282913 0 0,0 0.37234792679128464,0.2999371326962915 l -4.343747210346301 5.298665313205577" fill="#ff5708" stroke="none" /><path d="M 113.31354834802062 83.75963576809568 l 8.644979805988637 -10.545469709251973 a34.63607741378371,34.63607741378371 0 0,0 0.4565788186709955,0.38089428932374325 l -8.824732958821526 10.39551323601636" fill="#ffb110" stroke="none" /><path d="M 113.86319453409587 84.22622945171908 l 5.877885200601177 -6.687954369780177 a29.90383445958583,29.90383445958583 0 0,0 0.3826764833988103,0.34219167115550886 l -5.9918267108233625 6.586067168741281" fill="#ff730a" stroke="none" /><path d="M 114.13192950727249 84.46653392183569 l 2.2683153030704846 -2.4932758684292917 a24.3707089566196,24.3707089566196 0 0,0 0.30703638294731667,0.2841882922689964 l -2.3107814573317658 2.4539698300279205" fill="#ff2603" stroke="none" /><path d="M 114.39649973595853 84.71141617570332 l 2.529890970903743 -2.6866565404356573 a24.690321353341194,24.690321353341194 0 0,0 0.30607476100485315,0.2932126973514479 l -2.5756382177739083 2.642831712778629" fill="#ff2b04" stroke="none" /><path d="M 114.65682725009322 84.96080404539774 l 9.001059054648522 -9.235879540092496 a33.89653189754398,33.89653189754398 0 0,0 0.41322790692112915,0.4096960656913587 l -9.158278881699614 9.080003464172478" fill="#ffa80f" stroke="none" /><path d="M 114.91283532996326 85.21462403516908 l 20.168973911718602 -19.99659055514837 a49.401604575830476,49.401604575830476 0 0,0 0.5919093216955904,0.6073511084248491 l -20.509270034565006 19.64741675465578" fill="#9dff22" stroke="none" /><path d="M 115.41159269507618 85.73525988315684 l 0.6362785868142292 -0.5889299608675093 a21.866999964732248,21.866999964732248 0 0,0 0.25261830795879175,0.2776717726607527 l -0.6462945956148985 0.5779206126490848" fill="#ff0200" stroke="none" /><path d="M 115.6541949942343 86.00192230759917 l 6.7373840122818045 -6.024610328553847 a30.038156501182538,30.038156501182538 0 0,0 0.34041661458865663,0.38733161798585597 l -6.839811690829052 5.908066432756693" fill="#ff750a" stroke="none" /><path d="M 115.8921839302757 86.27271002978787 l 0.7006019960733881 -0.6051633177669851 a21.92577848218284,21.92577848218284 0 0,0 0.2435906342491445,0.28694915464555654 l -0.7108871938296447 0.5930473806718766" fill="#ff0300" stroke="none" /><path d="M 116.1254893667686 86.54754324733833 l 5.272973447177124 -4.398901989434522 a27.866919810751106,27.866919810751106 0 0,0 0.3032891981318699,0.36996350758706714 l -5.347709464547622 4.30773620014896" fill="#ff5708" stroke="none" /><path d="M 116.57777611688842 87.10902102172516 l 0.7175383672890332 -0.5579621743959667 a21.90894614614315,21.90894614614315 0 0,0 0.22832045439687668,0.2988788039905614 l -0.7270107990402166 0.5455624571645235" fill="#ff0300" stroke="none" /><path d="M 116.7966241395341 87.39550010848427 l 21.480530331701132 -16.11939041955232 a47.856059480666325,47.856059480666325 0 0,0 0.48744354636146836,0.6613107868829907 l -21.754075897646427 15.748273323400456" fill="#aeff20" stroke="none" /><path d="M 117.01052211995028 87.68569379921539 l 1.1725765195183409 -0.848854973608614 a22.447580899413165,22.447580899413165 0 0,0 0.22328384401974555,0.31407668921563536 l -1.186975462068047 0.8286010576834746" fill="#ff0b01" stroke="none" /><path d="M 117.21940702142032 87.97951657250589 l 6.20744000132768 -4.333275215011949 a28.570309469177587,28.570309469177587 0 0,0 0.2772820139133665,0.4045627449729852 l -6.2809117520563715 4.226077734968915" fill="#ff6108" stroke="none" /><path d="M 117.42321728460499 88.27688183743584 l 0.8658549423843918 -0.5825858471145464 a22.043604834460655,22.043604834460655 0 0,0 0.20854883612839542,0.3157695184832461 l -0.8757282174335115 0.5676364502922415" fill="#ff0500" stroke="none" /><path d="M 117.62189284568427 88.57770195909679 l 5.975856358576932 -3.873477893381313 a28.12142473167119,28.12142473167119 0 0,0 0.2590951510405967,0.4073406119965416 l -6.041469201243419 3.7703236067060995" fill="#ff5b08" stroke="none" /><path d="M 117.81537515405839 88.88188828441811 l 3.0844222073096788 -1.9249075802413673 a24.635784584572605,24.635784584572605 0 0,0 0.2208211371234439,0.36069473213842534 l -3.1170113088885247 1.8716757319783874" fill="#ff2a04" stroke="none" /><line stroke="#e1ed5e" stroke-width="0.3" x1="172.87174338648825" x2="177.1583165268699" y1="56.24261187166439" y2="53.66864786411523" /><path d="M 173.72905801456457 55.72781907015455 a86.0,86.0 0 0,1 12.242430191666344,42.057860355516425" fill="none" id="id15" stroke="none" /><text fill="#e1ed5e" style="font-size:6.75px; font-family:Arial;" text-anchor="middle"><textPath startOffset="22.145653131862474" xlink:href="#id15">March</textPath></text><path d="M 118.00360718960297 89.18935116829356 l 1.6973281025530926 -1.0191967573856378 a22.9798193649881,22.9798193649881 0 0,0 0.20017205230120907,0.3399359065980314 l -1.7145738649840696 0.9899096824940499" fill="#ff1202" stroke="none" /><path d="M 118.18653347947321 89.5 l 19.68206015907645 -11.363442731049199 a43.726885462098394,43.726885462098394 0 0,0 0.3697350433143108,0.6532863942087938 l -19.874228567412136 11.023899566741289" fill="#ddff1b" stroke="none" /><path d="M 118.36410011445183 89.81374322990088 l 3.0193344803271276 -1.6747739393569498 a24.452716097804956,24.452716097804956 0 0,0 0.2004594662272823,0.3688228396379752 l -3.047639296169751 1.6226962662443714" fill="#ff2703" stroke="none" /><path d="M 118.53625476483649 90.13048839642627 l 0.6345360809111465 -0.33785472269829353 a21.718875407582996,21.718875407582996 0 0,0 0.17239815625631413,0.3305961961704394 l -0.6402423061424052 0.32691228342335593" fill="#ff0000" stroke="none" /><path d="M 118.70294669586156 90.45014215332178 l 1.4610980642002267 -0.7460470823165194 a22.64054679977215,22.64054679977215 0 0,0 0.173771680862905,0.34765976676001265 l -1.4736896582748686 0.7208554593927563" fill="#ff0d01" stroke="none" /><path d="M 118.8641267826498 90.77261029715802 l 4.118782965136604 -2.0147031430947497 a25.585128337211003,25.585128337211003 0 0,0 0.18959888842988856,0.3961887556343269 l -4.152761111526405 1.9437018853953194" fill="#ff3705" stroke="none" /><path d="M 119.16976305983485 91.42560881287824 l 8.656088410336078 -3.871758244943686 a30.482530172630298,30.482530172630298 0 0,0 0.20955450225348607,0.47950171072485304 l -8.721276794606535 3.722594464442984" fill="#ff7b0b" stroke="none" /><path d="M 119.31412917781788 91.75594674310238 l 6.375155620511069 -2.721174844210155 a27.93162331048767,27.93162331048767 0 0,0 0.18444734634795032,0.44260648553630905 l -6.420928811395503 2.6113358492325682" fill="#ff5808" stroke="none" /><path d="M 119.4528033332814 92.08871423366111 l 1.5436274352074164 -0.6277798396179355 a22.66640126792911,22.66640126792911 0 0,0 0.143490543728953,0.3616899051577237 l -1.5541766539024937 0.6011889172466465" fill="#ff0e01" stroke="none" /><path d="M 119.58574465831526 92.42381321644754 l 0.7139165405340372 -0.27615825455261056 a21.76546731374085,21.76546731374085 0 0,0 0.13180474260702704,0.34962773911057365 l -0.7185519669555048 0.2638622352478792" fill="#ff0100" stroke="none" /><path d="M 119.71291397450082 92.76114493625339 l 8.860708330312882 -3.253774832489795 a30.439237404336225,30.439237404336225 0 0,0 0.1759095559705851,0.4920503358664107 l -8.91525805632741 3.1011895402424674" fill="#ff7a0b" stroke="none" /><path d="M 119.83427380445688 93.10060997987247 l 9.286507220226547 -3.230329270874341 a30.83230611553502,30.83230611553502 0 0,0 0.16959908775656288,0.5013895671692988 l -9.340591729555474 3.0704380292308806" fill="#ff7f0b" stroke="none" /><path d="M 120.05942366710727 93.78553927170692 l 2.162869954733788 -0.670062640739691 a23.264285844058826,23.264285844058826 0 0,0 0.11490749239206191,0.3824896705366742 l -2.1740537671294775 0.6328353666122933" fill="#ff1602" stroke="none" /><path d="M 120.16314734710363 94.1308016681162 l 16.373928290436815 -4.766211889158335 a38.05351293524948,38.05351293524948 0 0,0 0.17718713698419483,0.6287746407707505 l -16.45333391949559 4.484429324484571" fill="#ffdd14" stroke="none" /><path d="M 120.26092885502905 94.47779374421319 l 10.287677883927264 -2.803952354535885 a31.662948234421542,31.662948234421542 0 0,0 0.1384281769835805,0.525634335407344 l -10.334295541715575 2.6269375147557423" fill="#ff8a0c" stroke="none" /><path d="M 120.35273937422433 94.82641323984039 l 0.7268656818789537 -0.18476641394749158 a21.74998156458434,21.74998156458434 0 0,0 0.08887712934676423,0.3626490171295486 l -0.7299303377420091 0.17226157220984806" fill="#ff0000" stroke="none" /><path d="M 120.43855184770803 95.1765574152323 l 2.143658419836099 -0.5058975502020604 a23.20254483546525,23.20254483546525 0 0,0 0.08815766962339949,0.3884389585423784 l -2.152026951017165 0.4690242577206557" fill="#ff1502" stroke="none" /><path d="M 120.77682067341334 96.94652285012252 l 28.204281098269455 -4.145058053684338 a49.50724431681556,49.50724431681556 0 0,0 0.11635495129883992,0.8418864654442714 l -28.271280566123508 3.660283280039981" fill="#9bff22" stroke="none" /><path d="M 120.86939407059847 97.66154086499901 l 1.3382120150132777 -0.1499494475253892 a22.34658688317504,22.34658688317504 0 0,0 0.03944450056951817,0.38158976184372057 l -1.340588908064462 0.1269551633987372" fill="#ff0901" stroke="none" /><path d="M 120.93736805541906 98.37931529534042 l 6.985395473908514 -0.5407137884091217 a28.006291553159723,28.006291553159723 0 0,0 0.0329887959753067,0.4796498534354677 l -6.993648231048886 0.4207205108193199" fill="#ff5908" stroke="none" /><path d="M 120.96210409425399 98.7389718711861 l 5.85716359154248 -0.3523524170469318 a26.867752343435228,26.867752343435228 0 0,0 0.023743941827076315,0.4606261282002442 l -5.862349122826128 0.251754495469957" fill="#ff4906" stroke="none" /><path d="M 120.98066250479742 99.09900007780936 l 3.785133507073164 -0.1625499192208202 a24.78862219581297,24.78862219581297 0 0,0 0.01460795040905063,0.4252945374875344 l -3.787366144479063 0.09754911716916587" fill="#ff2c04" stroke="none" /><path d="M 120.99303781780057 99.45929381324524 l 11.114408591395554 -0.28626773979286235 a32.118094600934704,32.118094600934704 0 0,0 0.009465001207542845,0.5512888691478187 l -11.117685024201762 0.09543195467597725" fill="#ff900d" stroke="none" /><line stroke="#e1ed5e" stroke-width="0.3" x1="184.99686870605535" x2="189.99668451229388" y1="99.2704041080226" y2="99.22748670261217" /><path d="M 185.99683186730306 99.26182062694052 a86.0,86.0 0 0,1 -10.086455211305974,41.156179273409016" fill="none" id="id16" stroke="none" /><text fill="#e1ed5e" style="font-size:6.75px; font-family:Arial;" text-anchor="middle"><textPath startOffset="21.40746469413373" xlink:href="#id16">April</textPath></text><path d="M 120.99922638620191 100.18025310272382 l 7.243427971984322 0.062176117457576126 a28.243694820663485,28.243694820663485 0 0,0 -0.008323239871619627,0.4847869953588823 l -7.241293300514034 -0.18651002878552947" fill="#ff5c08" stroke="none" /><path d="M 120.98066250479742 100.90099992219065 l 6.731241419091709 0.2890684692850517 a27.73744548193383,27.73744548193383 0 0,0 -0.02451251907998388,0.4755363215795877 l -6.725287310555152 -0.40457658424137" fill="#ff5507" stroke="none" /><path d="M 120.96210409425399 101.26102812881392 l 1.6297902133666697 0.09804413211001858 a22.632736595849735,22.632736595849735 0 0,0 -0.026659250065512813,0.3876196450514284 l -1.6278670021360908 -0.12600720131579046" fill="#ff0d01" stroke="none" /><path d="M 120.9064616781168 101.97986365728391 l 1.072471126451569 0.10156413071898955 a22.07726950654003,22.07726950654003 0 0,0 -0.03896912195928132,0.37699090501839017 l -1.0705696120106216 -0.11995955802031112" fill="#ff0500" stroke="none" /><path d="M 120.82617615685814 102.69636545807757 l 0.8847294933895531 0.11454594582080734 a21.892113810103464,21.892113810103464 0 0,0 -0.05145218384409598,0.37228237141915854 l -0.882632792990247 -0.12971662544005094" fill="#ff0300" stroke="none" /><path d="M 120.77682067341334 103.0534771498775 l 6.680031432532974 0.9817345810662869 a27.751786632239643,27.751786632239643 0 0,0 -0.07331560537399187,0.4707387795676452 l -6.662194335020715 -1.0962615425653826" fill="#ff5507" stroke="none" /><path d="M 120.65975698304385 103.76489593502545 l 1.142613622406907 0.2082222644649265 a22.161431186738472,22.161431186738472 0 0,0 -0.07141648651144668,0.3736812351626096 l -1.138870843613301 -0.22780606466085063" fill="#ff0601" stroke="none" /><path d="M 120.592083275326 104.11899336999214 l 61.776249825978006 12.356980109976403 a84.0,84.0 0 0,0 -0.2949691567025421,1.4115341948583637 l -61.555022958451104 -13.415630756120176" fill="#4dd2ff" stroke="none" /><path d="M 120.51834098615036 104.47187691870673 l 1.6117341821270015 0.3512699634443817 a22.649568931889423,22.649568931889423 0 0,0 -0.08605664719836932,0.37918146607304065 l -1.605466673370968 -0.3788857634564393" fill="#ff0d01" stroke="none" /><path d="M 120.35273937422433 105.17358676015961 l 1.076693038064702 0.2736911599006737 a22.110934178619406,22.110934178619406 0 0,0 -0.09666744508721345,0.3670620343426878 l -1.0718361121727582 -0.2921336986161647" fill="#ff0600" stroke="none" /><path d="M 120.26092885502905 105.52220625578681 l 12.99838389149436 3.5427673308724845 a34.4725344368221,34.4725344368221 0 0,0 -0.16051316186873543,0.5696045853599017 l -12.935652237551045 -3.765379840135395" fill="#ffaf10" stroke="none" /><path d="M 120.05942366710727 106.21446072829308 l 0.9807840264552582 0.30384939849183173 a22.026772498420968,22.026772498420968 0 0,0 -0.11499578397019664,0.3602226554187034 l -0.9754235267078066 -0.3206410876019187" fill="#ff0400" stroke="none" /><path d="M 119.94978838288452 106.5578916946017 l 12.81162835407039 4.211436711256671 a34.48606763499801,34.48606763499801 0 0,0 -0.18969731259446204,0.5608063976820319 l -12.737445619903564 -4.430744783412863" fill="#ffaf10" stroke="none" /><path d="M 119.83427380445688 106.89939002012753 l 1.9395511303397825 0.674676564623526 a23.053544996841932,23.053544996841932 0 0,0 -0.13322734765243047,0.3726606027584446 l -1.927683612643409 -0.707872123762892" fill="#ff1302" stroke="none" /><path d="M 119.58574465831526 107.57618678355244 l 0.675046425432397 0.26112245900611936 a21.723790449706584,21.723790449706584 0 0,0 -0.13752330891153547,0.34664857533154125 l -0.6704644415547372 -0.27267205155122476" fill="#ff0000" stroke="none" /><path d="M 119.16976305983485 108.57439118712176 l 0.9526503526051873 0.42610838549700525 a22.043604834460655,22.043604834460655 0 0,0 -0.15747062741739468,0.34410173983055964 l -0.9451952603327365 -0.44239910754225376" fill="#ff0500" stroke="none" /><path d="M 119.0197475246899 108.90220220490707 l 14.553567795549082 6.811804581034466 a37.068821276927736,37.068821276927736 0 0,0 -0.2746989273174713,0.5740151067828564 l -14.434489610271699 -7.060632189882426" fill="#ffd013" stroke="none" /><path d="M 118.8641267826498 109.22738970284198 l 0.7711377798163264 0.3772021303150971 a21.85844913802409,21.85844913802409 0 0,0 -0.1677688918630313,0.33565016765132377 l -0.7645489747415627 -0.3903841541301666" fill="#ff0200" stroke="none" /><path d="M 118.70294669586154 109.54985784667822 l 3.785806664418331 1.9330598577924618 a25.250770814118642,25.250770814118642 0 0,0 -0.20043332127982996,0.3843573216781045 l -3.752065274163552 -1.9977634225750691" fill="#ff3304" stroke="none" /><line stroke="#e1ed5e" stroke-width="0.3" x1="174.33088141563837" x2="178.70328620479359" y1="141.23008692659167" y2="143.65538615756765" /><path d="M 175.20536237346943 141.71514677278685 a86.0,86.0 0 0,1 -30.301960400862466,31.631185727798858" fill="none" id="id17" stroke="none" /><text fill="#e1ed5e" style="font-size:6.75px; font-family:Arial;" text-anchor="middle"><textPath startOffset="22.145653131862474" xlink:href="#id17">May</textPath></text><path d="M 117.81537515405839 111.11811171558189 l 11.596285120889085 7.236939572974112 a34.66920345110981,34.66920345110981 0 0,0 -0.31942273872439947,0.5021855999814571 l -11.470344690538795 -7.434938847634241" fill="#ffb210" stroke="none" /><path d="M 117.62189284568427 111.42229804090321 l 1.7090824888621738 1.1078066207316313 a23.036712660802245,23.036712660802245 0 0,0 -0.21794437206223263,0.32999555739479164 l -1.6898136778792145 -1.136982056465484" fill="#ff1302" stroke="none" /><path d="M 117.423217284605 111.72311816256416 l 3.0668023443163275 2.0634814842960356 a24.69638099431548,24.69638099431548 0 0,0 -0.2396845671505028,0.3497069465326548 l -3.030928040350504 -2.1158231658987345" fill="#ff2b04" stroke="none" /><path d="M 117.21940702142032 112.02048342749411 l 1.0489550595019952 0.7322520974877219 a22.279257539016285,22.279257539016285 0 0,0 -0.22160954837443086,0.31172158271271216 l -1.0362304125976038 -0.750150906909938" fill="#ff0801" stroke="none" /><path d="M 117.01052211995028 112.31430620078461 l 2.977253590721222 2.1553020004322914 a24.675508897626266,24.675508897626266 0 0,0 -0.2513353104258828,0.34098461893670584 l -2.939816260711511 -2.2060929286378745" fill="#ff2a04" stroke="none" /><line stroke="#e1ed5e" stroke-width="0.3" x1="143.1302829299769" x2="145.66735839644613" y1="173.24464959558577" y2="177.55315839532614" /><path d="M 143.63769802327073 174.10635135553383 a86.0,86.0 0 0,1 -40.68552437913181,11.842963189579606" fill="none" id="id18" stroke="none" /><text fill="#e1ed5e" style="font-size:6.75px; font-family:Arial;" text-anchor="middle"><textPath startOffset="21.407464694133747" xlink:href="#id18">June</textPath></text><line stroke="#e1ed5e" stroke-width="0.3" x1="101.45913802915013" x2="101.54496967792366" y1="184.9874750549273" y2="189.98673829345242" /><path d="M 101.47630435890484 185.9873277026323 a86.0,86.0 0 0,1 -42.54439059252881,-10.42667462771756" fill="none" id="id19" stroke="none" /><text fill="#e1ed5e" style="font-size:6.75px; font-family:Arial;" text-anchor="middle"><textPath startOffset="22.145653131862474" xlink:href="#id19">July</textPath></text><line stroke="#e1ed5e" stroke-width="0.3" x1="58.13341422392154" x2="55.67067388415222" y1="173.97424548756322" y2="178.32567169271397" /><path d="M 57.64086615596768 174.84453072859336 a86.0,86.0 0 0,1 -31.369924170532247,-30.572349798747897" fill="none" id="id20" stroke="none" /><text fill="#e1ed5e" style="font-size:6.75px; font-family:Arial;" text-anchor="middle"><textPath startOffset="22.145653131862474" xlink:href="#id20">August</textPath></text><line stroke="#e1ed5e" stroke-width="0.3" x1="26.387840678322732" x2="22.057713659400548" y1="142.50000000000003" y2="145.00000000000006" /><path d="M 25.521815274538298 143.00000000000003 a86.0,86.0 0 0,1 -11.493303480769221,-40.785679425670985" fill="none" id="id21" stroke="none" /><text fill="#e1ed5e" style="font-size:6.75px; font-family:Arial;" text-anchor="middle"><textPath startOffset="21.40746469413373" xlink:href="#id21">September</textPath></text><line stroke="#e1ed5e" stroke-width="0.3" x1="15.003131293944662" x2="10.003315487706104" y1="100.72959589197737" y2="100.7725132973878" /><path d="M 14.003168132696942 100.73817937305945 a86.0,86.0 0 0,1 10.791469493833604,-42.45332614584628" fill="none" id="id22" stroke="none" /><text fill="#e1ed5e" style="font-size:6.75px; font-family:Arial;" text-anchor="middle"><textPath startOffset="22.145653131862435" xlink:href="#id22">October</textPath></text><line stroke="#e1ed5e" stroke-width="0.3" x1="26.387840678322718" x2="22.05771365940052" y1="57.49999999999999" y2="54.99999999999999" /><path d="M 25.521815274538284 56.99999999999999 a86.0,86.0 0 0,1 29.574782752854787,-30.34633250058573" fill="none" id="id23" stroke="none" /><text fill="#e1ed5e" style="font-size:6.75px; font-family:Arial;" text-anchor="middle"><textPath startOffset="21.40746469413373" xlink:href="#id23">November</textPath></text><line stroke="#e1ed5e" stroke-width="0.3" x1="56.869717070023135" x2="54.33264160355391" y1="26.7553504044142" y2="22.446841604673864" /><path d="M 56.362301976729285 25.89364864446614 a86.0,86.0 0 0,1 42.16139366436587,-11.88097634709845" fill="none" id="id24" stroke="none" /><text fill="#e1ed5e" style="font-size:6.75px; font-family:Arial;" text-anchor="middle"><textPath startOffset="22.145653131862474" xlink:href="#id24">December</textPath></text></svg>