<?xml version="1.0" encoding="utf-8" ?>
<svg baseProfile="full" height="200mm" version="1.1" viewBox="0,0,200,200" width="200mm" xmlns="http://www.w3.org/2000/svg" xmlns:ev="http://www.w3.org/2001/xml-events" xmlns:xlink="http://www.w3.org/1999/xlink"><defs /><rect fill="#1a1a1a" height="200" width="200" x="0" y="0" /><text alignment-baseline="middle" fill="#e1ed5e" style="dominant-baseline: central; font-size:9.0px; font-family:Arial;" text-anchor="middle" x="100.0" y="100.0">2025</text><line stroke="#e1ed5e" stroke-width="0.3" x1="100.0" x2="100.0" y1="15.0" y2="10.0" /><path d="M 100.0 14.0 a86.0,86.0 0 0,1 42.46469731375804,11.215312516191453" fill="none" id="id25" stroke="none" /><text fill="#e1ed5e" style="font-size:6.75px; font-family:Arial;" text-anchor="middle"><textPath startOffset="22.20632615414155" xlink:href="#id25">January</textPath></text><path d="M 100.0 79.0 l 0.0 -2.3963522103915125 a23.396352210391512,23.396352210391512 0 0,0 0.40272974334481915,0.0034664220472865113 l -0.04124926407229079 2.3959971649527847" fill="#ff1f03" stroke="none" /><path d="M 100.36148047927253 79.00311137660856 l 0.0342383174809795 -1.9887606109386866 a22.989055310946668,22.989055310946668 0 0,0 0.3956015367337187,0.010217220555612201 l -0.06846648940956597 1.9878765982407147" fill="#ff1a02" stroke="none" /><path d="M 100.72285384407766 79.0124445844662 l 0.15357107194446748 -4.458828584871113 a25.461472450144896,25.461472450144896 0 0,0 0.4378878188683951,0.018856370601968295 l -0.23029972320219416 4.45552448774495" fill="#ff3c05" stroke="none" /><path d="M 101.08401301168833 79.027996857942 l 2.129145924692874 -41.19180723948471 a62.24679679712718,62.24679679712718 0 0,0 1.069571743932018,0.06451948846771514 l -2.8378797174645043 41.14905448163669" fill="#32ff4c" stroke="none" /><path d="M 101.44485096284872 79.0497635885617 l 0.3833976844467488 -5.55923921241033 a26.572444203869587,26.572444203869587 0 0,0 0.45604617065220915,0.03539795998166225 l -0.4790340444612992 5.551815990240203" fill="#ff4c07" stroke="none" /><path d="M 101.80526077348638 79.07773832637324 l 0.4130133922719605 -4.786662622230532 a25.804447847698512,25.804447847698512 0 0,0 0.44220820903318686,0.041992997822932296 l -0.4953467283953915 4.778844079892422" fill="#ff4106" stroke="none" /><path d="M 102.16513564639614 79.11191278185805 l 0.38670844209507044 -3.7307591697170515 a24.75074757903214,24.75074757903214 0 0,0 0.4233948877816382,0.04757334890083178 l -0.4508700333864339 3.7235498673456187" fill="#ff3204" stroke="none" /><path d="M 102.52436894288641 79.15227682838746 l 0.2928671045116364 -2.4186687679452485 a23.43633531147476,23.43633531147476 0 0,0 0.40007528699596107,0.051941254489694756 l -0.3344571200154436 2.4132691902914174" fill="#ff2003" stroke="none" /><path d="M 102.88285421437855 79.19881850522331 l 1.6856800876677769 -12.162993630001182 a33.27924799820449,33.27924799820449 0 0,0 0.5667472091507375,0.08352380630859091 l -1.89479627724717 12.132175339531623" fill="#ffa50f" stroke="none" /><path d="M 103.2404852339499 79.25152402106235 l 0.5529790724692946 -3.540665108354495 a24.583586927103617,24.583586927103617 0 0,0 0.4175355935830484,0.06889695052422079 l -0.6138438721912182 3.530621894890649" fill="#ff3004" stroke="none" /><path d="M 103.59715602781102 79.31037775812273 l 0.8660226501538802 -4.981068751553886 a26.05579282984243,26.05579282984243 0 0,0 0.44121747875352485,0.0806296740510566 l -0.9516352500103059 4.965423596152091" fill="#ff4506" stroke="none" /><path d="M 103.95276090670814 79.375362276772 l 0.09567829720157386 -0.49922832782749743 a21.508314135019706,21.508314135019706 0 0,0 0.36301280977066736,0.07281695459278867 l -0.10425751643936658 0.4975074171575004" fill="#ff0400" stroke="none" /><path d="M 104.66035177308747 79.52364482259891 l 0.7973845390051378 -3.5034971239564765 a24.593092567777198,24.593092567777198 0 0,0 0.4119651156991442,0.0974988328269273 l -0.8575733416668055 3.489252378988681" fill="#ff3004" stroke="none" /><path d="M 105.36241919743992 79.69619591428918 l 0.5130293782940163 -1.9424904326891583 a23.00909637003347,23.00909637003347 0 0,0 0.38206287958503443,0.10443221749947906 l -0.5463901471027616 1.9333716743633858" fill="#ff1a02" stroke="none" /><path d="M 105.71112130821622 79.79150937346287 l 0.38362348872501 -1.357430749171076 a22.41059746912317,22.41059746912317 0 0,0 0.37031888325944506,0.10810623683583102 l -0.4069325897078822 1.3506261834165416" fill="#ff1101" stroke="none" /><path d="M 106.0581310904928 79.89281104454417 l 3.012952202985112 -10.000113624852347 a31.44414445933368,31.44414445933368 0 0,0 0.516903743331391,0.16060450921155564 l -3.184641319027221 9.94676898075827" fill="#ff8d0d" stroke="none" /><path d="M 106.40334571778207 80.00007090966166 l 1.8849002323735315 -5.88721469233592 a27.181597343701522,27.181597343701522 0 0,0 0.44437663271345756,0.14650398914374346 l -1.9859596873294068 5.85389697893294" fill="#ff5407" stroke="none" /><path d="M 107.08798089147638 80.2323363322302 l 0.4431964046330878 -1.2360300626779537 a22.313085438546693,22.313085438546693 0 0,0 0.3604282355857905,0.13274876094525256 l -0.4644069659914547 1.2282180339263764" fill="#ff1001" stroke="none" /><path d="M 107.4271985657038 80.35727306442388 l 0.7186170047610964 -1.9005278330600575 a23.03185049739585,23.03185049739585 0 0,0 0.3696248266111045,0.14340869025888792 l -0.7512249963718679 1.8878764389106228" fill="#ff1a02" stroke="none" /><path d="M 107.76421540070413 80.48803036053334 l 0.738507012934104 -1.8559153335180054 a22.99745196020833,22.99745196020833 0 0,0 0.36655324425942315,0.1495262719372644 l -0.7703441267819147 1.8429281753971616" fill="#ff1a02" stroke="none" /><path d="M 108.09893153111575 80.62456947434976 l 1.2776237994188797 -3.056515673512244 a24.312794988415,24.312794988415 0 0,0 0.384739841341168,0.1647255213093133 l -1.330047398550363 3.03407062424014" fill="#ff2c04" stroke="none" /><path d="M 108.43124777332544 80.76684994638697 l 13.380061838851764 -30.522260048794383 a54.32618209903029,54.32618209903029 0 0,0 0.8532260138900046,0.3828176414911066 l -13.90346997120855 30.287422076786747" fill="#66ff29" stroke="none" /><path d="M 108.76106565485865 80.91482961587045 l 2.0688191470484285 -4.506730969818975 a25.958894705226122,25.958894705226122 0 0,0 0.40449123610140414,0.18991405898494054 l -2.146088594449431 4.470451928194032" fill="#ff4306" stroke="none" /><path d="M 109.41281617654863 81.2277094730956 l 2.6636609080290476 -5.3122270203531965 a26.94262949785133,26.94262949785133 0 0,0 0.41278611798645226,0.2114450823324671 l -2.754707513604256 5.265589412708229" fill="#ff5107" stroke="none" /><path d="M 110.05341064243156 81.56283822128135 l 1.0272004061456368 -1.883804485946277 a23.145660741043905,23.145660741043905 0 0,0 0.3481503176479466,0.19374527483673115 l -1.0594748128656184 1.865843813549366" fill="#ff1c02" stroke="none" /><path d="M 110.36928655335952 81.73862282372117 l 7.0238169618462925 -12.36966208787661 a35.22471598597918,35.22471598597918 0 0,0 0.5246860123045273,0.30393200446550905 l -7.235699706616148 12.246925926021053" fill="#ffbe11" stroke="none" /><line stroke="#e1ed5e" stroke-width="0.3" x1="143.23703022742887" x2="145.7803849466894" y1="26.81831364943548" y2="22.513508569990506" /><path d="M 143.74570117128098 25.957352633546492 a86.0,86.0 0 0,1 28.547481713284135,27.462654790039103" fill="none" id="id26" stroke="none" /><text fill="#e1ed5e" style="font-size:6.75px; font-family:Arial;" text-anchor="middle"><textPath startOffset="19.985693538727396" xlink:href="#id26">February</textPath></text><path d="M 110.68208982089419 81.91981866633111 l 2.4445881610122933 -4.137635797705973 a25.805834086963408,25.805834086963408 0 0,0 0.3804983402960861,0.22924599260340386 l -2.515448567526017 4.094943195643955" fill="#ff4106" stroke="none" /><path d="M 110.99172775467656 82.1063720568725 l 1.1810875650628292 -1.9227133285299007 a23.256500471981465,23.256500471981465 0 0,0 0.3393022060695496,0.21247101031310775 l -1.2140089235046418 1.9020979768938489" fill="#ff1d03" stroke="none" /><path d="M 111.2981086023043 82.29822771554956 l 1.7762917875000566 -2.783077578724319 a24.301625860623545,24.301625860623545 0 0,0 0.3506759029915431,0.22808936199054936 l -1.8239347162758799 2.752089292574242" fill="#ff2c04" stroke="none" /><path d="M 111.60114157652 82.49532879139004 l 34.803424729560035 -52.514013625829904 a84.0,84.0 0 0,0 1.1983812223738326,0.8091523508053196 l -35.70221064634041 51.90714936272591" fill="#4dd2ff" stroke="none" /><path d="M 111.90073688211348 82.69761687909136 l 1.12591053541656 -1.636952033863053 a22.986777917868626,22.986777917868626 0 0,0 0.32407948298986006,0.2270383883897721 l -1.153921157990071 1.6173288027093453" fill="#ff1a02" stroke="none" /><path d="M 112.19680574252982 82.90503203632743 l 1.1609832819971064 -1.627227032311772 a22.99893721656358,22.99893721656358 0 0,0 0.32029270989853226,0.23270627515136588 l -1.1888213082494274 1.6070015223437313" fill="#ff1a02" stroke="none" /><path d="M 112.48926042617603 83.11751280151076 l 0.8684582334647295 -1.1739474163067014 a22.46026444164263,22.46026444164263 0 0,0 0.3088327497680064,0.232606424350904 l -0.8885371369911189 1.15882440244995" fill="#ff1202" stroke="none" /><path d="M 113.06298171725822 83.55741782278167 l 5.213906338107238 -6.562826564733305 a29.381856108364303,29.381856108364303 0 0,0 0.3932923759965882,0.31801508307113785 l -5.326102112668318 6.472105384398037" fill="#ff720a" stroke="none" /><path d="M 113.6212207817346 84.01681056812373 l 2.062239439209775 -2.4198391714621814 a24.17937936087769,24.17937936087769 0 0,0 0.3144542118251494,0.2726915938115111 l -2.103587449681689 2.383982584230999" fill="#ff2a04" stroke="none" /><path d="M 113.89432698308785 84.25364557470407 l 1.4706257467584118 -1.666651019773043 a23.222715840754113,23.222715840754113 0 0,0 0.2974597809211146,0.2670623283148122 l -1.4990965152755167 1.6410896826889334" fill="#ff1d02" stroke="none" /><path d="M 114.42810811169701 84.74124197986012 l 0.19048390459633427 -0.2014503762007791 a21.277247852979425,21.277247852979425 0 0,0 0.26395617121489706,0.2539256275765306 l -0.19392331942364954 0.1981416618619466" fill="#ff0100" stroke="none" /><path d="M 114.94478906791727 85.2469230424477 l 1.4271513018509057 -1.40884377093531 a23.005393130854387,23.005393130854387 0 0,0 0.2757752180283365,0.284210603504242 l -1.4511907835823512 1.3840689718809538" fill="#ff1a02" stroke="none" /><path d="M 115.19652480421416 85.50635884689758 l 1.5049449595485527 -1.4353368602286105 a23.079675752034802,23.079675752034802 0 0,0 0.2717166687728064,0.2898483973499789 l -1.5294289502918221 1.4092190460005767" fill="#ff1b02" stroke="none" /><path d="M 115.4437574822437 85.77008943001954 l 2.6775346907347557 -2.467086085817018 a24.64083860874387,24.64083860874387 0 0,0 0.28472648518883886,0.31440209640732397 l -2.71960481653963 2.420631202140145" fill="#ff3104" stroke="none" /><path d="M 115.68641384162765 86.03803664274999 l 2.0776207457369416 -1.849222200504671 a23.781390067925724,23.781390067925724 0 0,0 0.26953163483787007,0.30812125187391964 l -2.1091442441526596 1.8131853924278034" fill="#ff2503" stroke="none" /><path d="M 115.9244219780498 86.31012108654704 l 6.3461439729579014 -5.4556418234134565 a29.36884526269234,29.36884526269234 0 0,0 0.32625904256787047,0.3861877990009571 l -6.43911362901289 5.345595074783393" fill="#ff720a" stroke="none" /><path d="M 116.15771136456269 86.58626213691792 l 1.1609255802424099 -0.9637720999319014 a22.508842226168237,22.508842226168237 0 0,0 0.24491925668064973,0.3002420491115885 l -1.1773433289994684 0.9436458812122119" fill="#ff1302" stroke="none" /><path d="M 116.38621287248628 86.86637796730983 l 3.455756323810607 -2.769803965516338 a25.428777006911393,25.428777006911393 0 0,0 0.27081153395627455,0.3439031467826156 l -3.502921938360845 2.709908424780684" fill="#ff3c05" stroke="none" /><path d="M 116.60985879189232 87.15038557335679 l 2.4233985142770433 -1.8747743072782825 a24.06392543352983,24.06392543352983 0 0,0 0.250636164998374,0.32980781389683256 l -2.4553106194995307 1.8327817175004164" fill="#ff2904" stroke="none" /><path d="M 116.82858285166822 87.43820079747576 l 1.6032670356598118 -1.1967685423962109 a23.000679917353736,23.000679917353736 0 0,0 0.23410024933073748,0.3193124769999742 l -1.6236298975041756 1.168993621724743" fill="#ff1a02" stroke="none" /><path d="M 117.04232023915458 87.72973835380427 l 1.3012728198502939 -0.9369004776686504 a22.6034629577065,22.6034629577065 0 0,0 0.22462178419065457,0.31771158408794786 l -1.3172072238448314 0.9143623932489093" fill="#ff1402" stroke="none" /><path d="M 117.65298651832404 88.62581576622439 l 1.1692935489395087 -0.7534000116749626 a22.39099208523391,22.39099208523391 0 0,0 0.2059677030258293,0.3257914429359911 l -1.1820888482112935 0.7331609210247653" fill="#ff1101" stroke="none" /><line stroke="#e1ed5e" stroke-width="0.3" x1="172.23445277983987" x2="176.4835382374775" y1="55.19839476539836" y2="52.563006222186495" /><path d="M 173.08426987136738 54.67131705675599 a86.0,86.0 0 0,1 12.851231095245387,41.99856678651699" fill="none" id="id27" stroke="none" /><text fill="#e1ed5e" style="font-size:6.75px; font-family:Arial;" text-anchor="middle"><textPath startOffset="22.20632615414155" xlink:href="#id27">March</textPath></text><path d="M 118.03404312379186 89.2402003453031 l 7.09174554375997 -4.231206542490659 a29.258084745427063,29.258084745427063 0 0,0 0.2543228720859527,0.43472022836512775 l -7.16352809031625 4.108506901771635" fill="#ff700a" stroke="none" /><path d="M 118.73160827565052 90.50648371742162 l 4.48096844157225 -2.2710354730770557 a26.023612275478747,26.023612275478747 0 0,0 0.1990682256589731,0.4013093956207056 l -4.519396680184631 2.1935664889574005" fill="#ff4406" stroke="none" /><path d="M 118.89224826269711 90.83032412892265 l 0.18261160375873203 -0.08863366569618256 a21.20298503521708,21.20298503521708 0 0,0 0.15654043313363195,0.3297140749671553 l -0.18411023073412017 0.08547717508848689" fill="#ff0000" stroke="none" /><path d="M 119.04729006885535 91.15688171328212 l 28.27430208811633 -13.126959107345227 a52.17295645228366,52.17295645228366 0 0,0 0.3711675624353988,0.8178185237015845 l -28.496071967515075 12.63831857480158" fill="#7cff26" stroke="none" /><path d="M 119.47837535516314 92.15188598940014 l 1.3703999929719548 -0.5521536159389338 a22.47745380852735,22.47745380852735 0 0,0 0.14150782741540258,0.36012198577562227 l -1.3797013702690577 0.5284826252675271" fill="#ff1202" stroke="none" /><path d="M 119.61058180528143 92.48833698450437 l 1.2611231703097352 -0.48306227578872657 a22.350474291862774,22.350474291862774 0 0,0 0.1345236854906591,0.3604565961464104 l -1.2692514443020195 0.4612825426129829" fill="#ff1001" stroke="none" /><path d="M 119.7369772167798 92.82701384747503 l 1.8944034739705597 -0.6884808011296404 a23.015631497996555,23.015631497996555 0 0,0 0.13211730810953298,0.3735134211336952 l -1.9059738628899023 0.6557697535693306" fill="#ff1a02" stroke="none" /><path d="M 119.85752413597 93.16781622104841 l 3.3077490830108416 -1.1380648199164194 a24.498055964459468,24.498055964459468 0 0,0 0.13376254258169296,0.3999329767014827 l -3.3268489193643047 1.0809587402926226" fill="#ff2f04" stroke="none" /><path d="M 119.97218684219823 93.5106431181261 l 3.4831160261978207 -1.131733001176164 a24.662364924185916,24.662364924185916 0 0,0 0.12770937822916942,0.40487362872114346 l -3.5020808881951964 1.0716092060286013" fill="#ff3104" stroke="none" /><path d="M 120.08093135843002 93.85539295169968 l 1.517796887948984 -0.46443390941946655 a22.587263761725275,22.587263761725275 0 0,0 0.11056369119466221,0.37276580255328623 l -1.5255664762553485 0.4382387201196504" fill="#ff1402" stroke="none" /><path d="M 120.28053869075195 94.5502522615342 l 1.8713765269992064 -0.5028727368313197 a22.937764458145477,22.937764458145477 0 0,0 0.09918253102355278,0.382190751134459 l -1.879755389893062 0.4705855601480103" fill="#ff1902" stroke="none" /><path d="M 120.37134235888165 94.90015583598534 l 2.348301470214898 -0.5878832792283367 a23.420769824871773,23.420769824871773 0 0,0 0.09453871779953707,0.39192401916027075 l -2.3580729882752545 0.5473740284086598" fill="#ff2003" stroke="none" /><path d="M 120.67395015179393 96.31383870115 l 6.034385382987033 -1.0759297423952983 a27.12955396101367,27.12955396101367 0 0,0 0.07801444102344168,0.4604456470646488 l -6.052011685530697 0.9718983070148116" fill="#ff5307" stroke="none" /><path d="M 120.73433829027371 96.67025291283417 l 1.650831269700411 -0.26510856217030737 a22.671982784228558,22.671982784228558 0 0,0 0.05856292619476439,0.3858565129007009 l -1.6551500893344753 0.23665293687752428" fill="#ff1502" stroke="none" /><path d="M 120.78858239683441 97.02765380044208 l 1.3209598990813083 -0.18887050886166323 a22.33439391638997,22.33439391638997 0 0,0 0.05113938181515967,0.3810477943497654 l -1.3240152799543041 0.1661043724472335" fill="#ff1001" stroke="none" /><path d="M 120.83666639777658 97.38593545837742 l 2.564952933782238 -0.3217862390812388 a23.58505898118015,23.58505898118015 0 0,0 0.04706864268051405,0.40325538615097156 l -2.570111929466341 0.2775871146054146" fill="#ff2203" stroke="none" /><path d="M 120.91429891909075 98.10471618934814 l 4.971041946429856 -0.45048296190028037 a25.991411917696993,25.991411917696993 0 0,0 0.03654332633953046,0.4459211421936364 l -4.9780597565888804 0.3648479024988752" fill="#ff4406" stroke="none" /><path d="M 120.96714384426684 98.82574320788733 l 11.767386179497064 -0.6590279176467556 a32.78582603357339,32.78582603357339 0 0,0 0.026707008786606517,0.563742744805422 l -11.776986796517168 0.4563740662183339" fill="#ff9f0e" stroke="none" /><line stroke="#e1ed5e" stroke-width="0.3" x1="184.98032266829074" x2="189.97916517819016" y1="98.17113171792111" y2="98.06355123074" /><path d="M 185.9800911702706 98.14961562048488 a86.0,86.0 0 0,1 -9.607161424134198,41.387399972396054" fill="none" id="id28" stroke="none" /><text fill="#e1ed5e" style="font-size:6.75px; font-family:Arial;" text-anchor="middle"><textPath startOffset="21.466115282336823" xlink:href="#id28">April</textPath></text><path d="M 120.99513854157772 99.54816195383933 l 2.3471913230674173 -0.050514091120656024 a23.347734819029764,23.347734819029764 0 0,0 0.005188748200851271,0.4018742663570726 l -2.347713078385984 0.010103566703120744" fill="#ff1f03" stroke="none" /><path d="M 120.99980553446 99.90962569577887 l 2.839447198851286 -0.012219782918833608 a23.839473493124913,23.839473493124913 0 0,0 -0.0017660539776226426,0.41036874820853103 l -2.8392368475841603 -0.03665844349338215" fill="#ff2603" stroke="none" /><path d="M 120.99824983174949 100.27111621757518 l 1.9826519835989207 0.025598757556857425 a22.982817234254632,22.982817234254632 0 0,0 -0.008512329131902993,0.3955344862044805 l -1.9819175917820102 -0.059723059551452747" fill="#ff1902" stroke="none" /><path d="M 120.9904718944345 100.63252640178507 l 17.323493820722717 0.522025768066366 a38.33135739228591,38.33135739228591 0 0,0 -0.02555034516239374,0.6593408782348353 l -17.31194134270912 -0.8201438933152075" fill="#ffe515" stroke="none" /><path d="M 120.95626037817324 101.35467743843564 l 2.5527586426267144 0.16501820823622781 a23.558086725768867,23.558086725768867 0 0,0 -0.029642177265657092,0.4044439579704057 l -2.5495399066967197 -0.20893530270340382" fill="#ff2203" stroke="none" /><path d="M 120.92983693683757 101.71520430193887 l 2.03469366468065 0.1667435507175686 a23.04151456541399,23.04151456541399 0 0,0 -0.03579708167068002,0.39501781331324914 l -2.0315219867328946 -0.20174275257938828" fill="#ff1a02" stroke="none" /><path d="M 120.89721153311464 102.0752229133903 l 4.427968690461004 0.43972479637573575 a25.44974882664748,25.44974882664748 0 0,0 -0.04704288937270288,0.4355587302573961 l -4.419743499587248 -0.5158798485179232" fill="#ff3c05" stroke="none" /><path d="M 120.8583938346157 102.4346265915055 l 1.028321689816114 0.1200274263924079 a22.03530289327938,22.03530289327938 0 0,0 -0.04721692254695871,0.3763653298437577 l -1.0261032580223073 -0.13771051052356054" fill="#ff0c01" stroke="none" /><path d="M 120.81339534386255 102.79330883721812 l 7.778926110842277 1.0439883877903609 a28.84866888024873,28.84866888024873 0 0,0 -0.07028902476979842,0.4916012755302316 l -7.759803035055877 -1.1777351353010017" fill="#ff6b09" stroke="none" /><path d="M 120.76222939487914 103.15116336523771 l 1.5485381636105482 0.2350275896694201 a22.56627213857112,22.56627213857112 0 0,0 -0.06159329188517298,0.38354148736436056 l -1.5442631173640866 -0.2616483067269856" fill="#ff1402" stroke="none" /><path d="M 120.70491114924044 103.5080841355445 l 1.8229845395280793 0.30887276435841926 a22.848965931519782,22.848965931519782 0 0,0 -0.06904038939169539,0.38721516857920923 l -1.8173977077971952 -0.34020668367084683" fill="#ff1802" stroke="none" /><path d="M 120.64145759157962 103.86396538481128 l 6.821772014214907 1.276997557418306 a27.94026628996165,27.94026628996165 0 0,0 -0.09256219992716307,0.4719726632585778 l -6.79877988131208 -1.3942339477448287" fill="#ff5e08" stroke="none" /><path d="M 120.5718875245553 104.21870165774334 l 1.8544560729513495 0.38029553194055665 a22.89304834014351,22.89304834014351 0 0,0 -0.08248688138975006,0.3853512485561114 l -1.8476351528371564 -0.4121605999128371" fill="#ff1802" stroke="none" /><path d="M 120.49622156327973 104.57218783832717 l 0.22227596721093026 0.04958413778347158 a21.227739307804526,21.227739307804526 0 0,0 -0.08262587607589049,0.35595011161485013 l -0.22138952520448696 -0.05340290674688664" fill="#ff0000" stroke="none" /><path d="M 120.41448212921028 104.9243191809786 l 2.2610030927557796 0.5453922772784013 a23.32585204206246,23.32585204206246 0 0,0 -0.09751170922478734,0.38951080635650986 l -2.251280069235931 -0.5842309230323072" fill="#ff1e03" stroke="none" /><path d="M 120.13307415673323 105.97154293290107 l 1.4600908646355377 0.43306825456617215 a22.522962063252116,22.522962063252116 0 0,0 -0.1134441138167671,0.37074192778569165 l -1.452419978312638 -0.458137154903921" fill="#ff1302" stroke="none" /><path d="M 120.02730092923936 106.31721596034902 l 3.942992377667974 1.2437389575233537 a25.134498214391805,25.134498214391805 0 0,0 -0.13370086749361276,0.41148895879114494 l -3.920999259158114 -1.311426816292294" fill="#ff3805" stroke="none" /><path d="M 119.79798401119884 107.00284435728193 l 1.4708701851565613 0.5202688804370909 a22.56017268580557,22.56017268580557 0 0,0 -0.13264923782045435,0.364993731901169 l -1.4616966863308802 -0.545510409344391" fill="#ff1302" stroke="none" /><path d="M 119.54520255179757 107.68017299344265 l 8.70756382230546 3.4215862603377367 a30.355689191954532,30.355689191954532 0 0,0 -0.1952844882022945,0.48468008455378225 l -8.647376719845774 -3.5709657127343326" fill="#ff7f0b" stroke="none" /><path d="M 119.41010516605496 108.01547362559984 l 0.48963509202645467 0.20219659464647138 a21.5297414333714,21.5297414333714 0 0,0 -0.14440204552731686,0.341323779951906 l -0.48608206530682885 -0.2105949002645409" fill="#ff0500" stroke="none" /><path d="M 119.26925614724726 108.34839909993367 l 3.8402663714298866 1.6637941845684991 a25.185194964650897,25.185194964650897 0 0,0 -0.17576737404050682,0.3963090272297559 l -3.811057912658107 -1.7296515482909427" fill="#ff3805" stroke="none" /><path d="M 119.12269723197855 108.67885076344098 l 3.0665439989468175 1.3917533391617323 a24.367591046214574,24.367591046214574 0 0,0 -0.17663647065239563,0.38045924346713356 l -3.0421329114545905 -1.4443326499076965" fill="#ff2d04" stroke="none" /><path d="M 118.97047184881838 109.00673069616215 l 2.505160700351916 1.1893909628865713 a23.77317164942669,23.77317164942669 0 0,0 -0.1786913202286383,0.3681570462917509 l -2.4843161235085636 -1.2323369651435976" fill="#ff2503" stroke="none" /><path d="M 118.81262510543309 109.33194174019688 l 3.5958229474181715 1.7836963244262183 a25.013915201763822,25.013915201763822 0 0,0 -0.19465749029170049,0.384077695506414 l -3.564586787340202 -1.8453282316353268" fill="#ff3605" stroke="none" /><path d="M 118.64920377521936 109.65438752849418 l 2.1833023726177028 1.1302599001647822 a23.458515139713114,23.458515139713114 0 0,0 -0.18872653779156678,0.35699948604890025 l -2.1635233266012426 -1.1676744012998166" fill="#ff2003" stroke="none" /><line stroke="#e1ed5e" stroke-width="0.3" x1="174.80103733775053" x2="179.2010983576182" y1="140.37084112569926" y2="142.7455964860345" /><path d="M 175.68104954172406 140.8457921977663 a86.0,86.0 0 0,1 -30.038265399797805,32.042727171017184" fill="none" id="id29" stroke="none" /><text fill="#e1ed5e" style="font-size:6.75px; font-family:Arial;" text-anchor="middle"><textPath startOffset="22.206326154141568" xlink:href="#id29">May</textPath></text><path d="M 118.48025628344425 109.97397251340804 l 21.791555694762554 11.761112735145149 a45.76278805721867,45.76278805721867 0 0,0 -0.38010046697379324,0.689992755201346 l -21.58587881833725 -12.1344760087443" fill="#c2ff1e" stroke="none" /><path d="M 116.498646956653 112.99209946851258 l 3.996852119712176 3.147379323690322 a26.087319871409804,26.087319871409804 0 0,0 -0.2808512259724394,0.35040508725074876 l -3.9420829816848824 -3.215712244519321" fill="#ff4506" stroke="none" /><path d="M 116.27256486870786 113.27417163493432 l 1.534351118461557 1.2516305978216353 a22.980104165979046,22.980104165979046 0 0,0 -0.25267609403750524,0.3043646325771437 l -1.5125790245305084 -1.2778564875125495" fill="#ff1902" stroke="none" /><path d="M 116.0416608686014 113.55231037782055 l 2.59600300698691 2.1931543610489883 a24.398405164731432,24.398405164731432 0 0,0 -0.2737936634093314,0.31848388569469227 l -2.5578668340068 -2.2375153459052086" fill="#ff2d04" stroke="none" /><path d="M 115.80600337817218 113.82643327865902 l 0.8958578048932195 0.783659086371423 a22.19024483625874,22.19024483625874 0 0,0 -0.2539632843110213,0.2853304421697246 l -0.88223567093386 -0.7989636982820141" fill="#ff0e01" stroke="none" /><path d="M 115.56566222782051 114.09645910891815 l 5.902640009105463 5.345504887951684 a28.963390081128004,28.963390081128004 0 0,0 -0.33784221128539915,0.3666609957032069 l -5.809751389824342 -5.446317138456226" fill="#ff6c0a" stroke="none" /><path d="M 115.32070863581623 114.36230785411682 l 1.124799376686664 1.0544365346343467 a22.54175550700051,22.54175550700051 0 0,0 -0.267810491400656,0.280798229541353 l -1.1064823339070435 -1.0736418807582067" fill="#ff1302" stroke="none" /><path d="M 115.07121518719521 114.62390073753431 l 2.9990698194554155 2.910057271421196 a25.178857870868512,25.178857870868512 0 0,0 -0.30449557174767977,0.3084524065709851 l -2.9485336226522003 -2.961250171972846" fill="#ff3805" stroke="none" /><path d="M 114.81725581225074 114.88116024355365 l 1.1167055667967092 1.1215217375562057 a22.582669368733043,22.582669368733043 0 0,0 -0.2778206527092321,0.27190598217227313 l -1.0972349617116828 -1.1405778226510508" fill="#ff1402" stroke="none" /><path d="M 114.55890576462653 115.13401014063108 l 0.14673916428852213 0.15253563944111367 a21.21165893233172,21.21165893233172 0 0,0 -0.2653115568879849,0.25086863695000894 l -0.14409177300972958 -0.15503891313704404" fill="#ff0000" stroke="none" /><path d="M 114.29624159901734 115.38237550388516 l 1.758262064385857 1.8918431897848311 a23.58274198126597,23.58274198126597 0 0,0 -0.2997259266479328,0.2737925275597572 l -1.7254365882710603 -1.9218284839311712" fill="#ff2203" stroke="none" /><path d="M 114.0293411484842 115.62618273729858 l 6.6321332427830075 7.387013038815231 a30.927394068216174,30.927394068216174 0 0,0 -0.3991955555648301,0.3522436641145855 l -6.50399533431159 -7.500079844702105" fill="#ff860c" stroke="none" /><path d="M 113.48314897796784 116.09983520530334 l 0.251118838722722 0.29985368603353685 a21.391117506881688,21.391117506881688 0 0,0 -0.2843285657133949,0.23398305259192329 l -0.24592014446463598 -0.3041318574826385" fill="#ff0300" stroke="none" /><path d="M 113.20401910651253 116.32954008644616 l 0.12762944206392524 0.15784058426314176 a21.20298503521708,21.20298503521708 0 0,0 -0.2857783831544917,0.22703963125129287 l -0.12489356619208243 -0.16001412951956065" fill="#ff0000" stroke="none" /><path d="M 112.92097659922987 116.55440617244103 l 0.8669806746600207 1.1107790592883182 a22.409072605931783,22.409072605931783 0 0,0 -0.30611995960691757,0.23471973140185598 l -0.8477319865596095 -1.1255381325175458" fill="#ff1101" stroke="none" /><path d="M 112.63410532772338 116.77436683061366 l 2.7477391658016264 3.6481874676840627 a25.567202899220405,25.567202899220405 0 0,0 -0.3538196869938813,0.2617473458040057 l -2.6845345083891807 -3.6949447622278373" fill="#ff3e05" stroke="none" /><path d="M 112.34349029814194 116.9893568818739 l 0.9507913111398274 1.3086519707939404 a22.61758279479038,22.61758279479038 0 0,0 -0.3169398346010504,0.22612815671331907 l -0.9281241486898925 -1.3248243893514786" fill="#ff1402" stroke="none" /><path d="M 112.04921762599082 117.19931262002967 l 1.4067645056769045 2.0080459384937845 a23.45178197756933,23.45178197756933 0 0,0 -0.33261675263543655,0.22877683542413163 l -1.3719908684185846 -2.03196356328301" fill="#ff2003" stroke="none" /><path d="M 111.7513745106137 117.40417183066458 l 1.74146849909839 2.5791720763067634 a24.112047739439827,24.112047739439827 0 0,0 -0.345979526146813,0.2292963642431779 l -1.6968142742116128 -2.6087664616412596" fill="#ff2904" stroke="none" /><path d="M 111.45004920935366 117.60387380957326 l 0.1835596140021599 0.28221365885382105 a21.3366581071893,21.3366581071893 0 0,0 -0.30960323851254645,0.19760343518894383 l -0.17867457344268298 -0.28533152286657376" fill="#ff0200" stroke="none" /><path d="M 111.1453310114006 117.79835938074945 l 1.9774230350972513 3.157814316186055 a24.725854682518204,24.725854682518204 0 0,0 -0.36267035912698703,0.22278175587895216 l -1.9227734760379553 -3.191384538893385" fill="#ff3204" stroke="none" /><line stroke="#e1ed5e" stroke-width="0.3" x1="143.8653032363475" x2="146.44561519142675" y1="172.8068346515853" y2="177.08958963109032" /><path d="M 144.38136562736335 173.6633856474863 a86.0,86.0 0 0,1 -40.68145358897372,12.25698825130547" fill="none" id="id30" stroke="none" /><text fill="#e1ed5e" style="font-size:6.75px; font-family:Arial;" text-anchor="middle"><textPath startOffset="21.466115282336833" xlink:href="#id30">June</textPath></text><path d="M 110.8373102113329 117.98757091392108 l 0.8579521495114659 1.4240134156121411 a22.662496946973047,22.662496946973047 0 0,0 -0.3358712939342482,0.1984386806665689 l -0.8333129845488356 -1.4385706685724595" fill="#ff1502" stroke="none" /><path d="M 110.5260780823613 118.17145234162733 l 5.786537276268541 9.989455285816746 a32.54440256388253,32.54440256388253 0 0,0 -0.48716062265568394,0.2766225156551528 l -5.613727886691659 -10.087580967266527" fill="#ff9c0e" stroke="none" /><path d="M 110.21172684928248 118.3499491758327 l 0.40868170131796433 0.7343800474651756 a21.840437259470985,21.840437259470985 0 0,0 -0.3300788840461951,0.17998532559074631 l -0.3959800054031205 -0.7413060248156924" fill="#ff0901" stroke="none" /><path d="M 109.89434966115114 118.52300852407294 l 1.1526238136491975 2.157803337909285 a23.44635584101816,23.44635584101816 0 0,0 -0.35762290849900735,0.187091403424207 l -1.1153100026236944 -2.1773241602782085" fill="#ff2003" stroke="none" /><path d="M 109.57404056367764 118.69057910512821 l 7.223503877288128 14.101827722233164 a36.84425931915848,36.84425931915848 0 0,0 -0.5669561153956714,0.28428356607527694 l -6.979693854209696 -14.224079129217744" fill="#ffd213" stroke="none" /><path d="M 109.2508944713604 118.85261126421891 l 0.6408399826971525 1.3059825851176892 a22.454739288001107,22.454739288001107 0 0,0 -0.3484626227293826,0.16728323494881367 l -0.6182646919675372 -1.3168200965660628" fill="#ff1202" stroke="none" /><path d="M 108.92500713936063 119.00905698771935 l 1.6899408853940558 3.5993453108468683 a24.976328314267043,24.976328314267043 0 0,0 -0.3907391999741477,0.17936920216060107 l -1.6277336896524885 -3.6279015833415436" fill="#ff3605" stroke="none" /><path d="M 108.59647513512805 119.15986991738527 l 1.4810439087158795 3.3009586123242367 a24.617985464291138,24.617985464291138 0 0,0 -0.3881193342287016,0.17014011035002471 l -1.4240038998294242 -3.3259632759687157" fill="#ff3104" stroke="none" /><path d="M 108.2653958097858 119.30500536409082 l 0.44268481069986715 1.0339532239997997 a22.124735129283316,22.124735129283316 0 0,0 -0.35139193412738645,0.1468818569639772 l -0.42482141707501964 -1.0414201239837502" fill="#ff0d01" stroke="none" /><path d="M 107.93186726928326 119.44442032107085 l 0.41256932655351336 1.0113849771735461 a22.09229713048472,22.09229713048472 0 0,0 -0.35334938037859875,0.1406050107527634 l -0.3950988701330484 -1.0183368323323783" fill="#ff0d01" stroke="none" /><path d="M 107.59598834532513 119.57807347666477 l 0.8325965330270798 2.145953279411306 a23.301810692525528,23.301810692525528 0 0,0 -0.3751921954928345,0.14186558441540037 l -0.7955341167739705 -2.1599671139333374" fill="#ff1e03" stroke="none" /><path d="M 107.2578585660854 119.70592522655815 l 2.744696394092737 7.4521680767289284 a28.941546910996838,28.941546910996838 0 0,0 -0.468963918996626,0.1681537764151462 l -2.616012914466376 -7.4983093941840355" fill="#ff6c09" stroke="none" /><path d="M 106.91757812671514 119.82793768551818 l 0.7521496214343294 2.1558955389879775 a23.28333410346626,23.28333410346626 0 0,0 -0.37955190389292265,0.12876461322998284 l -0.7149279846041798 -2.1685231391160835" fill="#ff1e03" stroke="none" /><path d="M 106.57524785965236 119.94407469862006 l 1.066755640930508 3.23568854619835 a24.406999848173793,24.406999848173793 0 0,0 -0.40013376562356645,0.12811019594481768 l -1.0109005302160012 -3.253571588802874" fill="#ff2e04" stroke="none" /><path d="M 106.2309692047433 120.05430185196036 l 1.9272338750907398 6.202779792423188 a27.495283485929672,27.495283485929672 0 0,0 -0.4531812237780997,0.1365397852220769 l -1.8201776768723943 -6.23503494675099" fill="#ff5808" stroke="none" /><path d="M 105.53697534728816 120.25689768951611 l 0.11226177663696055 0.41070714264458363 a21.425773488504117,21.425773488504117 0 0,0 -0.3565958383042015,0.09418020194527893 l -0.10517549552126161 -0.41257869389344654" fill="#ff0300" stroke="none" /><path d="M 105.18746579009965 120.34920634021253 l 0.5338610314988979 2.0942110707897457 a23.161186620810753,23.161186620810753 0 0,0 -0.38717421355643333,0.09515800179035602 l -0.4977335331992534 -2.1030903308941316" fill="#ff1c02" stroke="none" /><path d="M 104.83641907484287 120.43548508189849 l 3.504088405082404 14.805943244287922 a36.21494629973133,36.21494629973133 0 0,0 -0.607858993403563,0.1383467278796761 l -3.248709262285979 -14.864066705745282" fill="#ffca12" stroke="none" /><path d="M 103.06178313531738 120.77559828337769 l 0.4908939011293175 3.330939533888857 a24.366917730000196,24.366917730000196 0 0,0 -0.4154807885721795,0.05758185142653647 l -0.4334845213703076 -3.338895950807996" fill="#ff2d04" stroke="none" /><path d="M 102.34483914955558 120.86867818915974 l 0.6713736523897234 5.975113772327344 a27.012713794400913,27.012713794400913 0 0,0 -0.4625186360804169,0.047941947754341366 l -0.5684224197037038 -5.985785088537444" fill="#ff5207" stroke="none" /><path d="M 101.26447882468166 120.96189622390904 l 2.5557670239386767 42.36822482320236 a63.44524024846688,63.44524024846688 0 0,0 -1.090689939622375,0.05637621157404371 l -1.826089015902822 -42.40594084153861" fill="#34ff5a" stroke="none" /><line stroke="#e1ed5e" stroke-width="0.3" x1="102.19456741930631" x2="102.32365962044197" y1="184.97166512339345" y2="189.96999836594603" /><path d="M 102.22038585953345 185.97133177190398 a86.0,86.0 0 0,1 -42.740103519485714,-10.115201625700543" fill="none" id="id31" stroke="none" /><text fill="#e1ed5e" style="font-size:6.75px; font-family:Arial;" text-anchor="middle"><textPath startOffset="22.20632615414155" xlink:href="#id31">July</textPath></text><path d="M 99.81925306533755 120.99922214144158 l -0.013303122203625112 1.5455599224981273 a22.54561717352415,22.54561717352415 0 0,0 -0.38804261251236954,-0.006680505481791533 l 0.039905424608662574 -1.5451019397371761" fill="#ff1302" stroke="none" /><path d="M 98.73552117531835 120.96189622390904 l -1.5667523468363447 25.972835180706078 a47.020047660226155,47.020047660226155 0 0,0 -0.8074847702965281,-0.055688877439666516 l 2.013599877911803 -25.942017958750128" fill="#b4ff20" stroke="none" /><path d="M 98.37488393609728 120.93702456842531 l -0.13951419951608746 1.7974176046833847 a22.802823967416778,22.802823967416778 0 0,0 -0.3910746011145007,-0.03374356214026149 l 0.17043311837212985 -1.7947497902644598" fill="#ff1702" stroke="none" /><path d="M 98.01472825383883 120.90594882070398 l -0.6202360646800504 6.531409843528427 a27.560793192905095,27.560793192905095 0 0,0 -0.47190299256491064,-0.048914674674273496 l 0.7325716538505543 -6.5197658003983925" fill="#ff5908" stroke="none" /><path d="M 97.65516085044442 120.86867818915974 l -0.22655378080904207 2.0162909447914186 a23.028979001775706,23.028979001775706 0 0,0 -0.3935461447077472,-0.04765295745320061 l 0.2612273485681786 -2.012092458612869" fill="#ff1a02" stroke="none" /><path d="M 96.22490169976321 120.6578951692458 l -4.766937228790847 26.08538419901795 a47.51737089821703,47.51737089821703 0 0,0 -0.8033431209178814,-0.1539626210966502 l 5.215247964280423 -25.99946437957283" fill="#aeff20" stroke="none" /><path d="M 95.51606077576429 120.51570834832081 l -0.4700465153846293 2.1506395911107052 a23.20140736291084,23.20140736291084 0 0,0 -0.3894299333882928,-0.08863298496416269 l 0.5069965981657848 -2.1422298725688558" fill="#ff1d02" stroke="none" /><path d="M 95.16358092515715 120.4354850818985 l -0.5063261547634802 2.1393970253870807 a23.198496260454554,23.198496260454554 0 0,0 -0.3877979005299755,-0.09531128887422384 l 0.5430773400366662 -2.130364478198827" fill="#ff1d02" stroke="none" /><path d="M 94.11515582081647 120.15858648285463 l -3.9629770022348967 13.575213242128669 a35.141838681356404,35.141838681356404 0 0,0 -0.5792128481810116,-0.17451207980149466 l 4.196064824856154 -13.504985793221447" fill="#ffbd11" stroke="none" /><path d="M 92.40401165467489 119.57807347666478 l -1.4330992521922568 3.69370267346987 a24.961970836166323,24.961970836166323 0 0,0 -0.3992476144917173,-0.15886886533796982 l 1.4964679427258323 -3.6684869637258335" fill="#ff3505" stroke="none" /><path d="M 92.06813273071674 119.44442032107085 l -0.862388598648599 2.1140856021583283 a23.283215282957837,23.283215282957837 0 0,0 -0.3697912767395861,-0.1545727836681081 l 0.8986513348856474 -2.098927775470247" fill="#ff1e03" stroke="none" /><path d="M 90.7491055286396 118.85261126421891 l -1.5708557470744966 3.2012831670973187 a24.565922278185212,24.565922278185212 0 0,0 -0.3780181803983128,-0.18954616318041076 l 1.62572783515557 -3.1737691630076057" fill="#ff3004" stroke="none" /><path d="M 90.42595943632237 118.69057910512821 l -1.354493312126551 2.6442612426057868 a23.970987992527512,23.970987992527512 0 0,0 -0.3656250252111761,-0.19127773268462153 l 1.3998092398642226 -2.6205540909764484" fill="#ff2703" stroke="none" /><path d="M 90.10565033884886 118.52300852407294 l -1.0885134760558317 2.0377836933250912 a23.310286555459474,23.310286555459474 0 0,0 -0.35229300959561716,-0.19209823802766238 l 1.1234292975200892 -2.018744803537663" fill="#ff1e03" stroke="none" /><line stroke="#e1ed5e" stroke-width="0.3" x1="58.666819895761336" x2="56.23545636021788" y1="174.27360380694188" y2="178.64263932499728" /><path d="M 58.180547188652646 175.14741091055294 a86.0,86.0 0 0,1 -31.652253787137756,-30.449443065178592" fill="none" id="id32" stroke="none" /><text fill="#e1ed5e" style="font-size:6.75px; font-family:Arial;" text-anchor="middle"><textPath startOffset="22.20632615414155" xlink:href="#id32">August</textPath></text><path d="M 89.4739219176387 118.17145234162733 l -0.11911561422973285 0.2056324958054747 a21.237641016839508,21.237641016839508 0 0,0 -0.3147541060955198,-0.18596227387091782 l 0.12263759135363476 -0.20355164964080738" fill="#ff0100" stroke="none" /><path d="M 89.1626897886671 117.98757091392108 l -13.276704760747325 22.036433739563833 a46.7269372693727,46.7269372693727 0 0,0 -0.6853746953535714,-0.42101311624534316 l 13.654058656033206 -21.80463215649011" fill="#b7ff1f" stroke="none" /><path d="M 88.24862548938628 117.40417183066458 l -1.2920136613577236 1.9135146913687762 a23.308860709358434,23.308860709358434 0 0,0 -0.330589699503163,-0.22738260979609418 l 1.324760245483777 -1.8909912922075809" fill="#ff1e03" stroke="none" /><path d="M 87.65650970185807 116.9893568818739 l -0.46014704978659376 0.6333380800844168 a21.782848919723545,21.782848919723545 0 0,0 -0.301448727770162,-0.22300456218310868 l 0.47098074797532014 -0.6253235691615415" fill="#ff0801" stroke="none" /><path d="M 87.36589467227662 116.77436683061367 l -1.0133157166792883 1.3453845053441162 a22.684300510268073,22.684300510268073 0 0,0 -0.30987972050554524,-0.23760255573449357 l 1.0363241656783204 -1.327742607782256" fill="#ff1502" stroke="none" /><path d="M 87.07902340077011 116.55440617244103 l -4.669557207004061 5.982655107881079 a28.58926390695034,28.58926390695034 0 0,0 -0.3853322351232554,-0.3061312322014433 l 4.771846934844675 -5.9013899616745045" fill="#ff6709" stroke="none" /><path d="M 85.70375840098266 115.38237550388516 l -6.012771190776638 6.469581787273824 a29.83226504894745,29.83226504894745 0 0,0 -0.37313652415779885,-0.3528238735987384 l 6.123243549325254 -6.365123276929154" fill="#ff780b" stroke="none" /><path d="M 85.44109423537348 115.13401014063109 l -4.73958713875624 4.926809815241749 a27.836456772438922,27.836456772438922 0 0,0 -0.34245475870708286,-0.3351640585672152 l 4.823691849839117 -4.844495653751965" fill="#ff5d08" stroke="none" /><path d="M 84.9287848128048 114.62390073753433 l -1.6811061408534098 1.6312108232644043 a23.342427502987015,23.342427502987015 0 0,0 -0.27732298747175715,-0.29077204364144404 l 1.7089356797041244 -1.60203166304046" fill="#ff1f03" stroke="none" /><path d="M 84.43433777217949 114.09645910891817 l -1.7626952156147366 1.5963189143336562 a23.378093458931012,23.378093458931012 0 0,0 -0.2675579940451494,-0.30060424267254854 l 1.7899120593082243 -1.5657405019202435" fill="#ff1f03" stroke="none" /><path d="M 84.19399662182784 113.82643327865904 l -0.15278010249331175 0.13364566885691415 a21.20298503521708,21.20298503521708 0 0,0 -0.23793534490512333,-0.276772560204208 l 0.15505795696921384 -0.13099600949117582" fill="#ff0000" stroke="none" /><path d="M 83.72743513129214 113.27417163493432 l -0.16112620258277321 0.13143698520949673 a21.207935889734568,21.207935889734568 0 0,0 -0.22832068699799246,-0.2848651629405147 l 0.1633648016356266 -0.12864398869072236" fill="#ff0000" stroke="none" /><path d="M 83.28015986056508 112.70617746262583 l -2.060055952594266 1.5655315061813806 a23.587415587930476,23.587415587930476 0 0,0 -0.24288156517479484,-0.3253795476897544 l 2.086698784464146 -1.5298390789823182" fill="#ff2203" stroke="none" /><path d="M 83.06392112726016 112.41649034213515 l -3.3620198310144582 2.4648259538427992 a25.168758127652833,25.168758127652833 0 0,0 -0.2531500151129023,-0.3516032298658035 l 3.403949638502968 -2.406589118525858" fill="#ff3805" stroke="none" /><path d="M 82.85270091963577 112.12312394758628 l -2.3058606815967386 1.630241282772871 a23.823947613358065,23.823947613358065 0 0,0 -0.2338593785159275,-0.3368918768088355 l 2.3335809672748002 -1.590308143777023" fill="#ff2503" stroke="none" /><path d="M 82.6465618267979 111.8261652097733 l -1.3112002287668652 0.8935676246817318 a22.586729069437386,22.586729069437386 0 0,0 -0.216183923899338,-0.32316563400953546 l 1.3263872580769336 -0.8708650764663755" fill="#ff1402" stroke="none" /><path d="M 82.44556493220864 111.52570212397912 l -5.517012149908883 3.622300484673116 a27.599885140175193,27.599885140175193 0 0,0 -0.25732968008564044,-0.39938137803563006 l 5.578546693371569 -3.5267975067160373" fill="#ff5a08" stroke="none" /><path d="M 82.05923443525364 110.91462005526583 l -0.18610349003389323 0.11321974401528902 a21.21783759876955,21.21783759876955 0 0,0 -0.18714044283910602,-0.313658146496503 l 0.18802480857123113 -0.10999950363267491" fill="#ff0000" stroke="none" /><line stroke="#e1ed5e" stroke-width="0.3" x1="26.63291911575756" x2="22.317208475507996" y1="142.92168965132927" y2="145.44649492493687" /><path d="M 25.769776987707644 143.4266507060508 a86.0,86.0 0 0,1 -11.730757126820373,-40.83630448921669" fill="none" id="id33" stroke="none" /><text fill="#e1ed5e" style="font-size:6.75px; font-family:Arial;" text-anchor="middle"><textPath startOffset="21.46611528233685" xlink:href="#id33">September</textPath></text><path d="M 81.02952815118164 109.00673069616217 l -5.780769902021759 2.7445726252313962 a27.3992171048723,27.3992171048723 0 0,0 -0.19861220581323621,-0.4277930219503971 l 5.827156724674821 -2.6446595360021723" fill="#ff5708" stroke="none" /><path d="M 80.32549172779594 107.34259656027581 l -6.052618752712869 2.2588588756303247 a27.460389863290402,27.460389863290402 0 0,0 -0.1614615205454489,-0.444272759577324 l 6.090604534263543 -2.1543383190468837" fill="#ff5808" stroke="none" /><path d="M 80.20201598880116 107.00284435728193 l -6.115323472678522 2.1630817789011507 a27.48660958881503,27.48660958881503 0 0,0 -0.1539370149489726,-0.4474130217611645 l 6.151651318570723 -2.0574960540506897" fill="#ff5808" stroke="none" /><path d="M 79.35854240842038 103.8639653848113 l -26.623671516822093 4.983802364788061 a48.08612506518625,48.08612506518625 0 0,0 -0.14529693854803707,-0.8149023933617815 l 26.705514897709318 -4.5247812206930655" fill="#a8ff21" stroke="none" /><line stroke="#e1ed5e" stroke-width="0.3" x1="15.007084014347285" x2="10.007500721073583" y1="101.09737516637583" y2="101.16192664675087" /><path d="M 14.007167355692545 101.11028546245083 a86.0,86.0 0 0,1 10.666146001902534,-42.60595125391555" fill="none" id="id34" stroke="none" /><text fill="#e1ed5e" style="font-size:6.75px; font-family:Arial;" text-anchor="middle"><textPath startOffset="22.20632615414155" xlink:href="#id34">October</textPath></text><line stroke="#e1ed5e" stroke-width="0.3" x1="26.266209847984243" x2="21.928928074336255" y1="57.711370442889674" y2="55.22380399835377" /><path d="M 25.398753493254645 57.213857153982495 a86.0,86.0 0 0,1 29.58750427330803,-30.492523968695096" fill="none" id="id35" stroke="none" /><text fill="#e1ed5e" style="font-size:6.75px; font-family:Arial;" text-anchor="middle"><textPath startOffset="21.46611528233685" xlink:href="#id35">November</textPath></text><line stroke="#e1ed5e" stroke-width="0.3" x1="56.762969772571076" x2="54.21961505331055" y1="26.818313649435495" y2="22.513508569990535" /><path d="M 56.25429882871897 25.957352633546506 a86.0,86.0 0 0,1 42.265352541879196,-11.944610805530505" fill="none" id="id36" stroke="none" /><text fill="#e1ed5e" style="font-size:6.75px; font-family:Arial;" text-anchor="middle"><textPath startOffset="22.20632615414155" xlink:href="#id36">December</textPath></text></svg>