<?xml version="1.0" encoding="utf-8" ?>
<svg baseProfile="full" height="200mm" version="1.1" viewBox="0,0,200,200" width="200mm" xmlns="http://www.w3.org/2000/svg" xmlns:ev="http://www.w3.org/2001/xml-events" xmlns:xlink="http://www.w3.org/1999/xlink"><defs /><rect fill="#1a1a1a" height="200" width="200" x="0" y="0" /><text alignment-baseline="middle" fill="#e1ed5e" style="dominant-baseline: central; font-size:9.0px; font-family:Arial;" text-anchor="middle" x="100.0" y="100.0">2025</text><line stroke="#e1ed5e" stroke-width="0.3" x1="100.0" x2="100.0" y1="15.0" y2="10.0" /><path d="M 100.0 14.0 a86.0,86.0 0 0,1 42.46469731375804,11.215312516191453" fill="none" id="id25" stroke="none" /><text fill="#e1ed5e" style="font-size:6.75px; font-family:Arial;" text-anchor="middle"><textPath startOffset="22.20632615414155" xlink:href="#id25">January</textPath></text><path d="M 100.0 79.0 l 0.0 -2.3963522103915125 a23.396352210391512,23.396352210391512 0 0,0 0.40272974334481915,0.0034664220472865113 l -0.04124926407229079 2.3959971649527847" fill="#ff1b02" stroke="none" /><path d="M 100.36148047927253 79.00311137660856 l 0.0342383174809795 -1.9887606109386866 a22.989055310946668,22.989055310946668 0 0,0 0.3956015367337187,0.010217220555612201 l -0.06846648940956597 1.9878765982407147" fill="#ff1502" stroke="none" /><path d="M 100.72285384407766 79.0124445844662 l 0.15357107194446748 -4.458828584871113 a25.461472450144896,25.461472450144896 0 0,0 0.4378878188683951,0.018856370601968295 l -0.23029972320219416 4.45552448774495" fill="#ff3805" stroke="none" /><path d="M 101.08401301168833 79.027996857942 l 2.129145924692874 -41.19180723948471 a62.24679679712718,62.24679679712718 0 0,0 1.069571743932018,0.06451948846771514 l -2.8378797174645043 41.14905448163669" fill="#32ff4b" stroke="none" /><path d="M 101.44485096284872 79.0497635885617 l 0.3833976844467488 -5.55923921241033 a26.572444203869587,26.572444203869587 0 0,0 0.45604617065220915,0.03539795998166225 l -0.4790340444612992 5.551815990240203" fill="#ff4806" stroke="none" /><path d="M 101.80526077348638 79.07773832637324 l 0.4130133922719605 -4.786662622230532 a25.804447847698512,25.804447847698512 0 0,0 0.44220820903318686,0.041992997822932296 l -0.4953467283953915 4.778844079892422" fill="#ff3d05" stroke="none" /><path d="M 102.16513564639614 79.11191278185805 l 0.38670844209507044 -3.7307591697170515 a24.75074757903214,24.75074757903214 0 0,0 0.4233948877816382,0.04757334890083178 l -0.4508700333864339 3.7235498673456187" fill="#ff2e04" stroke="none" /><path d="M 102.52436894288641 79.15227682838746 l 0.2928671045116364 -2.4186687679452485 a23.43633531147476,23.43633531147476 0 0,0 0.40007528699596107,0.051941254489694756 l -0.3344571200154436 2.4132691902914174" fill="#ff1c02" stroke="none" /><path d="M 102.88285421437855 79.19881850522331 l 1.6856800876677769 -12.162993630001182 a33.27924799820449,33.27924799820449 0 0,0 0.5667472091507375,0.08352380630859091 l -1.89479627724717 12.132175339531623" fill="#ffa20f" stroke="none" /><path d="M 103.2404852339499 79.25152402106235 l 0.5529790724692946 -3.540665108354495 a24.583586927103617,24.583586927103617 0 0,0 0.4175355935830484,0.06889695052422079 l -0.6138438721912182 3.530621894890649" fill="#ff2c04" stroke="none" /><path d="M 103.59715602781102 79.31037775812273 l 0.8660226501538802 -4.981068751553886 a26.05579282984243,26.05579282984243 0 0,0 0.44121747875352485,0.0806296740510566 l -0.9516352500103059 4.965423596152091" fill="#ff4106" stroke="none" /><path d="M 103.95276090670814 79.375362276772 l 0.09567829720157386 -0.49922832782749743 a21.508314135019706,21.508314135019706 0 0,0 0.36301280977066736,0.07281695459278867 l -0.10425751643936658 0.4975074171575004" fill="#ff0000" stroke="none" /><path d="M 104.66035177308747 79.52364482259891 l 0.7973845390051378 -3.5034971239564765 a24.593092567777198,24.593092567777198 0 0,0 0.4119651156991442,0.0974988328269273 l -0.8575733416668055 3.489252378988681" fill="#ff2c04" stroke="none" /><path d="M 105.36241919743992 79.69619591428918 l 0.5130293782940163 -1.9424904326891583 a23.00909637003347,23.00909637003347 0 0,0 0.38206287958503443,0.10443221749947906 l -0.5463901471027616 1.9333716743633858" fill="#ff1602" stroke="none" /><path d="M 105.71112130821622 79.79150937346287 l 0.38362348872501 -1.357430749171076 a22.41059746912317,22.41059746912317 0 0,0 0.37031888325944506,0.10810623683583102 l -0.4069325897078822 1.3506261834165416" fill="#ff0d01" stroke="none" /><path d="M 106.0581310904928 79.89281104454417 l 3.012952202985112 -10.000113624852347 a31.44414445933368,31.44414445933368 0 0,0 0.516903743331391,0.16060450921155564 l -3.184641319027221 9.94676898075827" fill="#ff8a0c" stroke="none" /><path d="M 106.40334571778207 80.00007090966166 l 1.8849002323735315 -5.88721469233592 a27.181597343701522,27.181597343701522 0 0,0 0.44437663271345756,0.14650398914374346 l -1.9859596873294068 5.85389697893294" fill="#ff5007" stroke="none" /><path d="M 107.08798089147638 80.2323363322302 l 0.4431964046330878 -1.2360300626779537 a22.313085438546693,22.313085438546693 0 0,0 0.3604282355857905,0.13274876094525256 l -0.4644069659914547 1.2282180339263764" fill="#ff0c01" stroke="none" /><path d="M 107.4271985657038 80.35727306442388 l 0.7186170047610964 -1.9005278330600575 a23.03185049739585,23.03185049739585 0 0,0 0.3696248266111045,0.14340869025888792 l -0.7512249963718679 1.8878764389106228" fill="#ff1602" stroke="none" /><path d="M 107.76421540070413 80.48803036053334 l 0.738507012934104 -1.8559153335180054 a22.99745196020833,22.99745196020833 0 0,0 0.36655324425942315,0.1495262719372644 l -0.7703441267819147 1.8429281753971616" fill="#ff1502" stroke="none" /><path d="M 108.09893153111575 80.62456947434976 l 1.2776237994188797 -3.056515673512244 a24.312794988415,24.312794988415 0 0,0 0.384739841341168,0.1647255213093133 l -1.330047398550363 3.03407062424014" fill="#ff2803" stroke="none" /><path d="M 108.43124777332544 80.76684994638697 l 13.380061838851764 -30.522260048794383 a54.32618209903029,54.32618209903029 0 0,0 0.8532260138900046,0.3828176414911066 l -13.90346997120855 30.287422076786747" fill="#67ff28" stroke="none" /><path d="M 108.76106565485865 80.91482961587045 l 2.0688191470484285 -4.506730969818975 a25.958894705226122,25.958894705226122 0 0,0 0.40449123610140414,0.18991405898494054 l -2.146088594449431 4.470451928194032" fill="#ff3f05" stroke="none" /><path d="M 109.41281617654863 81.2277094730956 l 2.6636609080290476 -5.3122270203531965 a26.94262949785133,26.94262949785133 0 0,0 0.41278611798645226,0.2114450823324671 l -2.754707513604256 5.265589412708229" fill="#ff4d07" stroke="none" /><path d="M 110.05341064243156 81.56283822128135 l 1.0272004061456368 -1.883804485946277 a23.145660741043905,23.145660741043905 0 0,0 0.3481503176479466,0.19374527483673115 l -1.0594748128656184 1.865843813549366" fill="#ff1802" stroke="none" /><path d="M 110.36928655335952 81.73862282372117 l 7.0238169618462925 -12.36966208787661 a35.22471598597918,35.22471598597918 0 0,0 0.5246860123045273,0.30393200446550905 l -7.235699706616148 12.246925926021053" fill="#ffbb11" stroke="none" /><line stroke="#e1ed5e" stroke-width="0.3" x1="143.23703022742887" x2="145.7803849466894" y1="26.81831364943548" y2="22.513508569990506" /><path d="M 143.74570117128098 25.957352633546492 a86.0,86.0 0 0,1 28.547481713284135,27.462654790039103" fill="none" id="id26" stroke="none" /><text fill="#e1ed5e" style="font-size:6.75px; font-family:Arial;" text-anchor="middle"><textPath startOffset="19.985693538727396" xlink:href="#id26">February</textPath></text><path d="M 110.68208982089419 81.91981866633111 l 2.4445881610122933 -4.137635797705973 a25.805834086963408,25.805834086963408 0 0,0 0.3804983402960861,0.22924599260340386 l -2.515448567526017 4.094943195643955" fill="#ff3d05" stroke="none" /><path d="M 110.99172775467656 82.1063720568725 l 1.1810875650628292 -1.9227133285299007 a23.256500471981465,23.256500471981465 0 0,0 0.3393022060695496,0.21247101031310775 l -1.2140089235046418 1.9020979768938489" fill="#ff1902" stroke="none" /><path d="M 111.2981086023043 82.29822771554956 l 1.7762917875000566 -2.783077578724319 a24.301625860623545,24.301625860623545 0 0,0 0.3506759029915431,0.22808936199054936 l -1.8239347162758799 2.752089292574242" fill="#ff2803" stroke="none" /><path d="M 111.60114157652 82.49532879139004 l 34.803424729560035 -52.514013625829904 a84.0,84.0 0 0,0 1.1983812223738326,0.8091523508053196 l -35.70221064634041 51.90714936272591" fill="#4dd2ff" stroke="none" /><line stroke="#e1ed5e" stroke-width="0.3" x1="172.23445277983987" x2="176.4835382374775" y1="55.19839476539836" y2="52.563006222186495" /><path d="M 173.08426987136738 54.67131705675599 a86.0,86.0 0 0,1 12.851231095245387,41.99856678651699" fill="none" id="id27" stroke="none" /><text fill="#e1ed5e" style="font-size:6.75px; font-family:Arial;" text-anchor="middle"><textPath startOffset="22.20632615414155" xlink:href="#id27">March</textPath></text><line stroke="#e1ed5e" stroke-width="0.3" x1="184.98032266829074" x2="189.97916517819016" y1="98.17113171792111" y2="98.06355123074" /><path d="M 185.9800911702706 98.14961562048488 a86.0,86.0 0 0,1 -9.607161424134198,41.387399972396054" fill="none" id="id28" stroke="none" /><text fill="#e1ed5e" style="font-size:6.75px; font-family:Arial;" text-anchor="middle"><textPath startOffset="21.466115282336823" xlink:href="#id28">April</textPath></text><line stroke="#e1ed5e" stroke-width="0.3" x1="174.80103733775053" x2="179.2010983576182" y1="140.37084112569926" y2="142.7455964860345" /><path d="M 175.68104954172406 140.8457921977663 a86.0,86.0 0 0,1 -30.038265399797805,32.042727171017184" fill="none" id="id29" stroke="none" /><text fill="#e1ed5e" style="font-size:6.75px; font-family:Arial;" text-anchor="middle"><textPath startOffset="22.206326154141568" xlink:href="#id29">May</textPath></text><line stroke="#e1ed5e" stroke-width="0.3" x1="143.8653032363475" x2="146.44561519142675" y1="172.8068346515853" y2="177.08958963109032" /><path d="M 144.38136562736335 173.6633856474863 a86.0,86.0 0 0,1 -40.68145358897372,12.25698825130547" fill="none" id="id30" stroke="none" /><text fill="#e1ed5e" style="font-size:6.75px; font-family:Arial;" text-anchor="middle"><textPath startOffset="21.466115282336833" xlink:href="#id30">June</textPath></text><line stroke="#e1ed5e" stroke-width="0.3" x1="102.19456741930631" x2="102.32365962044197" y1="184.97166512339345" y2="189.96999836594603" /><path d="M 102.22038585953345 185.97133177190398 a86.0,86.0 0 0,1 -42.740103519485714,-10.115201625700543" fill="none" id="id31" stroke="none" /><text fill="#e1ed5e" style="font-size:6.75px; font-family:Arial;" text-anchor="middle"><textPath startOffset="22.20632615414155" xlink:href="#id31">July</textPath></text><line stroke="#e1ed5e" stroke-width="0.3" x1="58.666819895761336" x2="56.23545636021788" y1="174.27360380694188" y2="178.64263932499728" /><path d="M 58.180547188652646 175.14741091055294 a86.0,86.0 0 0,1 -31.652253787137756,-30.449443065178592" fill="none" id="id32" stroke="none" /><text fill="#e1ed5e" style="font-size:6.75px; font-family:Arial;" text-anchor="middle"><textPath startOffset="22.20632615414155" xlink:href="#id32">August</textPath></text><line stroke="#e1ed5e" stroke-width="0.3" x1="26.63291911575756" x2="22.317208475507996" y1="142.92168965132927" y2="145.44649492493687" /><path d="M 25.769776987707644 143.4266507060508 a86.0,86.0 0 0,1 -11.730757126820373,-40.83630448921669" fill="none" id="id33" stroke="none" /><text fill="#e1ed5e" style="font-size:6.75px; font-family:Arial;" text-anchor="middle"><textPath startOffset="21.46611528233685" xlink:href="#id33">September</textPath></text><line stroke="#e1ed5e" stroke-width="0.3" x1="15.007084014347285" x2="10.007500721073583" y1="101.09737516637583" y2="101.16192664675087" /><path d="M 14.007167355692545 101.11028546245083 a86.0,86.0 0 0,1 10.666146001902534,-42.60595125391555" fill="none" id="id34" stroke="none" /><text fill="#e1ed5e" style="font-size:6.75px; font-family:Arial;" text-anchor="middle"><textPath startOffset="22.20632615414155" xlink:href="#id34">October</textPath></text><line stroke="#e1ed5e" stroke-width="0.3" x1="26.266209847984243" x2="21.928928074336255" y1="57.711370442889674" y2="55.22380399835377" /><path d="M 25.398753493254645 57.213857153982495 a86.0,86.0 0 0,1 29.58750427330803,-30.492523968695096" fill="none" id="id35" stroke="none" /><text fill="#e1ed5e" style="font-size:6.75px; font-family:Arial;" text-anchor="middle"><textPath startOffset="21.46611528233685" xlink:href="#id35">November</textPath></text><line stroke="#e1ed5e" stroke-width="0.3" x1="56.762969772571076" x2="54.21961505331055" y1="26.818313649435495" y2="22.513508569990535" /><path d="M 56.25429882871897 25.957352633546506 a86.0,86.0 0 0,1 42.265352541879196,-11.944610805530505" fill="none" id="id36" stroke="none" /><text fill="#e1ed5e" style="font-size:6.75px; font-family:Arial;" text-anchor="middle"><textPath startOffset="22.20632615414155" xlink:href="#id36">December</textPath></text></svg>