<?xml version="1.0" encoding="utf-8" ?>
<svg baseProfile="full" height="200mm" version="1.1" viewBox="0,0,200,200" width="200mm" xmlns="http://www.w3.org/2000/svg" xmlns:ev="http://www.w3.org/2001/xml-events" xmlns:xlink="http://www.w3.org/1999/xlink"><defs /><rect fill="#1a1a1a" height="200" width="200" x="0" y="0" /><text alignment-baseline="middle" fill="#e1ed5e" style="dominant-baseline: central; font-size:9.0px; font-family:Arial;" text-anchor="middle" x="100.0" y="100.0">2026</text><line stroke="#e1ed5e" stroke-width="0.3" x1="100.0" x2="100.0" y1="15.0" y2="10.0" /><path d="M 100.0 14.0 a86.0,86.0 0 0,1 42.46469731375804,11.215312516191453" fill="none" id="id37" stroke="none" /><text fill="#e1ed5e" style="font-size:6.75px; font-family:Arial;" text-anchor="middle"><textPath startOffset="22.20632615414155" xlink:href="#id37">January</textPath></text><line stroke="#e1ed5e" stroke-width="0.3" x1="143.23703022742887" x2="145.7803849466894" y1="26.81831364943548" y2="22.513508569990506" /><path d="M 143.74570117128098 25.957352633546492 a86.0,86.0 0 0,1 28.547481713284135,27.462654790039103" fill="none" id="id38" stroke="none" /><text fill="#e1ed5e" style="font-size:6.75px; font-family:Arial;" text-anchor="middle"><textPath startOffset="19.985693538727396" xlink:href="#id38">February</textPath></text><path d="M 110.68208982089419 81.91981866633111 l 0.7954296431364813 -1.3463200953387264 a22.563741064336774,22.563741064336774 0 0,0 0.33269476959816585,0.2004448761357102 l -0.8184864789522848 1.3324286097444018" fill="#ff0100" stroke="none" /><path d="M 110.99172775467656 82.1063720568725 l 4.576820488114712 -7.450686989765033 a29.74414217633042,29.74414217633042 0 0,0 0.43395407104495376,0.2717419994773271 l -4.704393711531929 7.370800648964761" fill="#ff6709" stroke="none" /><path d="M 111.60114157652 82.49532879139004 l 6.484341124995919 -9.784059495252711 a32.73773828435266,32.73773828435266 0 0,0 0.46705108122568045,0.31535497491468173 l -6.651796900628142 9.67099260803936" fill="#ff900d" stroke="none" /><path d="M 111.90073688211348 82.69761687909136 l 0.8650754073645678 -1.2577259941940415 a22.526509134233518,22.526509134233518 0 0,0 0.3175903756443331,0.22249235400269934 l -0.8865969225925519 1.2426487974274065" fill="#ff0000" stroke="none" /><path d="M 112.19680574252982 82.90503203632743 l 1.0812157592592113 -1.515425362716352 a22.86159650516283,22.86159650516283 0 0,0 0.318380046360225,0.23131664374902047 l -1.1071411219732252 1.4965894841506566" fill="#ff0500" stroke="none" /><path d="M 112.48926042617603 83.11751280151076 l 8.218175691472606 -11.109004150112218 a34.81840746624305,34.81840746624305 0 0,0 0.47875947980407224,0.36059171446350513 l -8.408181325035063 10.965895846142866" fill="#ffab0f" stroke="none" /><path d="M 112.77801427241765 83.33499621200491 l 5.297772256851247 -6.909320403479018 a29.70661239078634,29.70661239078634 0 0,0 0.4031151156129329,0.31463774184190607 l -5.4159199276236105 6.817104272413888" fill="#ff6609" stroke="none" /><path d="M 113.34407831869373 83.78471172551755 l 1.1829185506047297 -1.437443999142111 a22.86159650516283,22.86159650516283 0 0,0 0.30171043640417433,0.25267381376084747 l -1.2074865239680215 1.4168690279874443" fill="#ff0500" stroke="none" /><path d="M 113.6212207817346 84.01681056812373 l 1.3040854458854616 -1.530218550226438 a23.010524225575853,23.010524225575853 0 0,0 0.2992531839235062,0.25950941220862245 l -1.3302324284557319 1.5075441445981443" fill="#ff0701" stroke="none" /><path d="M 113.89432698308785 84.25364557470407 l 1.3548663623160235 -1.5354616287573695 a23.04775615567911,23.04775615567911 0 0,0 0.29521872221164597,0.26505028367809674 l -1.3810960721236596 1.5119123363099751" fill="#ff0801" stroke="none" /><path d="M 114.16331599549186 84.49514656593476 l 1.456428585148587 -1.5943802819268837 a23.15945194598888,23.15945194598888 0 0,0 0.2920209662347595,0.2714016625206003 l -1.4836574351781933 1.5690740333316429" fill="#ff0901" stroke="none" /><path d="M 114.42810811169701 84.74124197986012 l 9.470952817760603 -10.016211144773116 a34.78489872915012,34.78489872915012 0 0,0 0.4315261422947002,0.41512780698978713 l -9.64196220366772 9.851700251021027" fill="#ffab0f" stroke="none" /><path d="M 114.68862486808459 84.99185889309783 l 12.497123038580138 -12.768968346441723 a38.866858617950754,38.866858617950754 0 0,0 0.47410941608938856,0.4720734395852244 l -12.715068254836849 12.55195905620638" fill="#ffdf14" stroke="none" /><path d="M 115.68641384162765 86.03803664274999 l 4.5988621086242425 -4.093296587347636 a27.1566719618745,27.1566719618745 0 0,0 0.30778613738445004,0.35185276124407744 l -4.668640109586541 4.013528269900611" fill="#ff4306" stroke="none" /><path d="M 115.9244219780498 86.31012108654704 l 3.6024419655467135 -3.0969409356932665 a25.750645353455123,25.750645353455123 0 0,0 0.28606439318182675,0.33861001217292686 l -3.655216972215657 3.0344719738912334" fill="#ff2f04" stroke="none" /><path d="M 116.38621287248628 86.86637796730983 l 9.326828585227426 -7.475494329000575 a32.95293884034948,32.95293884034948 0 0,0 0.35094239543242056,0.44566120344093313 l -9.454125061253812 7.313840731606603" fill="#ff930d" stroke="none" /><path d="M 116.60985879189232 87.15038557335679 l 7.070215480022131 -5.4696156041925175 a29.938939634630657,29.938939634630657 0 0,0 0.31182697248912444,0.41032774384883 l -7.163318392735369 5.347103084462654" fill="#ff6a09" stroke="none" /><path d="M 117.04232023915458 87.72973835380427 l 1.5107582760512344 -1.0877274379995947 a22.86159650516283,22.86159650516283 0 0,0 0.2271869848458637,0.32133987849673135 l -1.529257880700981 1.0615610591710702" fill="#ff0500" stroke="none" /><path d="M 117.2510076193507 88.02491185347247 l 9.759846135264109 -6.774967604514498 a32.88085782366958,32.88085782366958 0 0,0 0.31874943812971157,0.467725468840538 l -9.875020039062553 6.605964112403553" fill="#ff920d" stroke="none" /><line stroke="#e1ed5e" stroke-width="0.3" x1="172.23445277983987" x2="176.4835382374775" y1="55.19839476539836" y2="52.563006222186495" /><path d="M 173.08426987136738 54.67131705675599 a86.0,86.0 0 0,1 12.851231095245387,41.99856678651699" fill="none" id="id39" stroke="none" /><text fill="#e1ed5e" style="font-size:6.75px; font-family:Arial;" text-anchor="middle"><textPath startOffset="22.20632615414155" xlink:href="#id39">March</textPath></text><path d="M 117.84615892207809 88.93136811851018 l 26.716841995722504 -16.57045027884047 a52.438343923749,52.438343923749 0 0,0 0.469158875586001,0.7711738344430625 l -26.99811666959473 16.108108671190326" fill="#80ff25" stroke="none" /><path d="M 118.21658344932153 89.55222093294921 l 12.974509902975798 -7.441286306329985 a35.95695988880064,35.95695988880064 0 0,0 0.30330955650740576,0.5395538568368695 l -13.100677100775638 7.2168489395583215" fill="#ffba11" stroke="none" /><path d="M 118.56541770881063 90.18545643968196 l 13.210586042273723 -6.983730406867923 a35.942960683081814,35.942960683081814 0 0,0 0.2844467147535723,0.5494605153330101 l -13.328842190187412 6.755297169274568" fill="#ffba11" stroke="none" /><path d="M 118.73160827565052 90.50648371742162 l 6.911039944830919 -3.5026394573438444 a28.74796465448769,28.74796465448769 0 0,0 0.21990822236727542,0.4433215573108066 l -6.970308180151602 3.3831583115340877" fill="#ff5908" stroke="none" /><path d="M 119.85752413597 93.16781622104841 l 13.176761732344549 -4.533599312301015 a34.934868943606034,34.934868943606034 0 0,0 0.1907488864191625,0.5703148914167655 l -13.252847912535481 4.3061113179619355" fill="#ffad10" stroke="none" /><path d="M 119.97218684219823 93.5106431181261 l 29.116804871620978 -9.460623394159896 a51.61522041302621,51.61522041302621 0 0,0 0.2672796273339021,0.8473494593930704 l -29.275339982723086 8.958023768340407" fill="#89ff24" stroke="none" /><path d="M 120.18372546131832 94.20196356495316 l 1.5745275450648293 -0.45230342097976917 a22.638204924543288,22.638204924543288 0 0,0 0.10436560606311897,0.3754586136239927 l -1.5820799216943113 0.4251335039368246" fill="#ff0200" stroke="none" /><path d="M 120.6074358757038 95.95851677861258 l 4.274850411325681 -0.8383738916146862 a25.35628474980143,25.35628474980143 0 0,0 0.08031213926040556,0.4290306593193402 l -4.288648274495945 0.7646651548327832" fill="#ff2904" stroke="none" /><path d="M 120.67395015179393 96.31383870115 l 7.3857528572607185 -1.3168783007316487 a28.502233915806194,28.502233915806194 0 0,0 0.08196175469955716,0.4837429158256978 l -7.407326473480499 1.189549596590113" fill="#ff5607" stroke="none" /><path d="M 120.91429891909075 98.10471618934814 l 18.870005105960807 -1.7100269687548468 a39.94732922954726,39.94732922954726 0 0,0 0.05616502454928419,0.6853555602916753 l -18.89664461432959 1.3849574912554026" fill="#ffed16" stroke="none" /><path d="M 120.96714384426684 98.82574320788733 l 16.17530807944965 -0.9058918810251921 a37.200655281969816,37.200655281969816 0 0,0 0.030303284915429732,0.6396544499364638 l -16.188504972598576 0.6273263244657286" fill="#ffca12" stroke="none" /><line stroke="#e1ed5e" stroke-width="0.3" x1="184.98032266829074" x2="189.97916517819016" y1="98.17113171792111" y2="98.06355123074" /><path d="M 185.9800911702706 98.14961562048488 a86.0,86.0 0 0,1 -9.607161424134198,41.387399972396054" fill="none" id="id40" stroke="none" /><text fill="#e1ed5e" style="font-size:6.75px; font-family:Arial;" text-anchor="middle"><textPath startOffset="21.466115282336823" xlink:href="#id40">April</textPath></text><path d="M 120.95626037817324 101.35467743843564 l 21.424256973620782 1.3849301847594937 a42.46897339158062,42.46897339158062 0 0,0 -0.05343697271420165,0.7291050368127944 l -21.397243442242242 -1.7535083580690582" fill="#f2ff19" stroke="none" /><path d="M 120.8583938346157 102.4346265915055 l 9.857768520457173 1.1506152181756966 a30.92469221604448,30.92469221604448 0 0,0 -0.0662649750822736,0.5281970500962835 l -9.836502036128051 -1.3201300225593748" fill="#ff770b" stroke="none" /><path d="M 120.81339534386255 102.79330883721812 l 14.779624388552119 1.9835329475678667 a35.912132644956316,35.912132644956316 0 0,0 -0.08749896889508954,0.6119675846589417 l -14.743291368640428 -2.237646004207218" fill="#ffba11" stroke="none" /><path d="M 120.70491114924044 103.5080841355445 l 62.114733447721314 10.524252406633499 a84.0,84.0 0 0,0 -0.25381423064324515,1.4235249970671267 l -61.924372774738885 -11.591896154433844" fill="#4dd2ff" stroke="none" /><path d="M 120.49622156327973 104.57218783832717 l 16.246622011310727 3.6242098254390123 a37.64594916600477,37.64594916600477 0 0,0 -0.1465313609445908,0.6312532678672825 l -16.181830084435582 -3.9033317506548597" fill="#ffd013" stroke="none" /><path d="M 120.41448212921028 104.9243191809786 l 9.577178754478602 2.3101778796954533 a30.85186656076251,30.85186656076251 0 0,0 -0.12897356271016674,0.515185271689801 l -9.535993877473375 -2.4746909907826504" fill="#ff760a" stroke="none" /><path d="M 120.13307415673323 105.97154293290107 l 28.264090177651497 8.38323182248784 a50.481135822081015,50.481135822081015 0 0,0 -0.254264412545609,0.830950811839502 l -28.115598992599754 -8.8685096068794" fill="#96ff23" stroke="none" /><path d="M 119.9155931802556 106.66101706037122 l 18.57779320718045 6.213573272814232 a40.589356632247814,40.589356632247814 0 0,0 -0.22731811933654905,0.6606928600450309 l -18.46808425690067 -6.532438835948563" fill="#fff517" stroke="none" /><path d="M 119.79798401119884 107.00284435728193 l 17.748938718311656 6.278066255683629 a39.8265488482923,39.8265488482923 0 0,0 -0.23417202622163463,0.6443408432785829 l -17.638242431084795 -6.582654895968343" fill="#ffeb16" stroke="none" /><path d="M 119.41010516605496 108.01547362559984 l 18.088365762585227 7.469656524775699 a40.56999602859412,40.56999602859412 0 0,0 -0.2721068635075907,0.6431802462638838 l -17.957107917885327 -7.7799112967057455" fill="#fff417" stroke="none" /><path d="M 119.12269723197855 108.67885076344098 l 13.977084918684529 6.343510679777352 a36.349235504368544,36.349235504368544 0 0,0 -0.2634893477253194,0.5675326138875381 l -13.865820954119378 -6.58316336094372" fill="#ffbf11" stroke="none" /><path d="M 118.81262510543309 109.33194174019688 l 18.01800355823038 8.937772295877316 a41.112986497220014,41.112986497220014 0 0,0 -0.3199399496397549,0.6312718733501235 l -17.861484938804356 -9.246598380930134" fill="#fffb17" stroke="none" /><line stroke="#e1ed5e" stroke-width="0.3" x1="174.80103733775053" x2="179.2010983576182" y1="140.37084112569926" y2="142.7455964860345" /><path d="M 175.68104954172406 140.8457921977663 a86.0,86.0 0 0,1 -30.038265399797805,32.042727171017184" fill="none" id="id41" stroke="none" /><text fill="#e1ed5e" style="font-size:6.75px; font-family:Arial;" text-anchor="middle"><textPath startOffset="22.206326154141568" xlink:href="#id41">May</textPath></text><path d="M 117.75023020441432 111.22182372390056 l 5.852837806041105 3.7002063290221554 a27.924394360603653,27.924394360603653 0 0,0 -0.26035526709273893,0.4040771562601257 l -5.788277675571316 -3.800405085203734" fill="#ff4e07" stroke="none" /><path d="M 117.55443506779139 111.5257021239791 l 13.39364753207906 8.793857006059342 a37.02253772835584,37.02253772835584 0 0,0 -0.3543531006292353,0.529709806180654 l -13.240291326039102 -9.023103726445802" fill="#ffc812" stroke="none" /><line stroke="#e1ed5e" stroke-width="0.3" x1="143.8653032363475" x2="146.44561519142675" y1="172.8068346515853" y2="177.08958963109032" /><path d="M 144.38136562736335 173.6633856474863 a86.0,86.0 0 0,1 -40.68145358897372,12.25698825130547" fill="none" id="id42" stroke="none" /><text fill="#e1ed5e" style="font-size:6.75px; font-family:Arial;" text-anchor="middle"><textPath startOffset="21.466115282336833" xlink:href="#id42">June</textPath></text><line stroke="#e1ed5e" stroke-width="0.3" x1="102.19456741930631" x2="102.32365962044197" y1="184.97166512339345" y2="189.96999836594603" /><path d="M 102.22038585953345 185.97133177190398 a86.0,86.0 0 0,1 -42.740103519485714,-10.115201625700543" fill="none" id="id43" stroke="none" /><text fill="#e1ed5e" style="font-size:6.75px; font-family:Arial;" text-anchor="middle"><textPath startOffset="22.20632615414155" xlink:href="#id43">July</textPath></text><line stroke="#e1ed5e" stroke-width="0.3" x1="58.666819895761336" x2="56.23545636021788" y1="174.27360380694188" y2="178.64263932499728" /><path d="M 58.180547188652646 175.14741091055294 a86.0,86.0 0 0,1 -31.652253787137756,-30.449443065178592" fill="none" id="id44" stroke="none" /><text fill="#e1ed5e" style="font-size:6.75px; font-family:Arial;" text-anchor="middle"><textPath startOffset="22.20632615414155" xlink:href="#id44">August</textPath></text><line stroke="#e1ed5e" stroke-width="0.3" x1="26.63291911575756" x2="22.317208475507996" y1="142.92168965132927" y2="145.44649492493687" /><path d="M 25.769776987707644 143.4266507060508 a86.0,86.0 0 0,1 -11.730757126820373,-40.83630448921669" fill="none" id="id45" stroke="none" /><text fill="#e1ed5e" style="font-size:6.75px; font-family:Arial;" text-anchor="middle"><textPath startOffset="21.46611528233685" xlink:href="#id45">September</textPath></text><line stroke="#e1ed5e" stroke-width="0.3" x1="15.007084014347285" x2="10.007500721073583" y1="101.09737516637583" y2="101.16192664675087" /><path d="M 14.007167355692545 101.11028546245083 a86.0,86.0 0 0,1 10.666146001902534,-42.60595125391555" fill="none" id="id46" stroke="none" /><text fill="#e1ed5e" style="font-size:6.75px; font-family:Arial;" text-anchor="middle"><textPath startOffset="22.20632615414155" xlink:href="#id46">October</textPath></text><line stroke="#e1ed5e" stroke-width="0.3" x1="26.266209847984243" x2="21.928928074336255" y1="57.711370442889674" y2="55.22380399835377" /><path d="M 25.398753493254645 57.213857153982495 a86.0,86.0 0 0,1 29.58750427330803,-30.492523968695096" fill="none" id="id47" stroke="none" /><text fill="#e1ed5e" style="font-size:6.75px; font-family:Arial;" text-anchor="middle"><textPath startOffset="21.46611528233685" xlink:href="#id47">November</textPath></text><line stroke="#e1ed5e" stroke-width="0.3" x1="56.762969772571076" x2="54.21961505331055" y1="26.818313649435495" y2="22.513508569990535" /><path d="M 56.25429882871897 25.957352633546506 a86.0,86.0 0 0,1 42.265352541879196,-11.944610805530505" fill="none" id="id48" stroke="none" /><text fill="#e1ed5e" style="font-size:6.75px; font-family:Arial;" text-anchor="middle"><textPath startOffset="22.20632615414155" xlink:href="#id48">December</textPath></text></svg>