<?xml version="1.0" encoding="utf-8" ?>
<svg baseProfile="full" height="200mm" version="1.1" viewBox="0,0,200,200" width="200mm" xmlns="http://www.w3.org/2000/svg" xmlns:ev="http://www.w3.org/2001/xml-events" xmlns:xlink="http://www.w3.org/1999/xlink"><defs /><rect fill="#1a1a1a" height="200" width="200" x="0" y="0" /><text alignment-baseline="middle" fill="#e1ed5e" style="dominant-baseline: central; font-size:9.0px; font-family:Arial;" text-anchor="middle" x="100.0" y="100.0">2024</text><line stroke="#e1ed5e" stroke-width="0.3" x1="100.0" x2="100.0" y1="15.0" y2="10.0" /><path d="M 100.0 14.0 a86.0,86.0 0 0,1 42.35913384403234,11.155469271406648" fill="none" id="id13" stroke="none" /><text fill="#e1ed5e" style="font-size:6.75px; font-family:Arial;" text-anchor="middle"><textPath startOffset="22.145653131862478" xlink:href="#id13">January</textPath></text><path d="M 100.36049292484886 79.00309439819443 l 0.06038301983399302 -3.5170081852171813 a24.517526500819706,24.517526500819706 0 0,0 0.42075191061015177,0.010837076707541343 l -0.12074824451488614 3.515453391159595" fill="#ff1c02" stroke="none" /><path d="M 100.72087961077811 79.0123766808444 l 0.5761069835605228 -16.772726238507623 a37.78261733843769,37.78261733843769 0 0,0 0.6480154982086405,0.0278285737321571 l -0.8639482423699996 16.760365096349634" fill="#ffd113" stroke="none" /><path d="M 101.08105385017728 79.02784411241856 l 0.11181367387354056 -2.1691554018835815 a23.172035325492157,23.172035325492157 0 0,0 0.39707560878402137,0.023887082598727644 l -0.14903363479002427 2.166916341460162" fill="#ff0801" stroke="none" /><path d="M 101.44090949804482 79.04949213459386 l 0.1955125100089397 -2.8427089864322563 a23.84942441961753,23.84942441961753 0 0,0 0.4082010758654868,0.03159734491602173 l -0.24428258064966002 2.838933874521181" fill="#ff1202" stroke="none" /><path d="M 102.15924093988457 79.11130261209362 l 6.477722819653705 -62.666092163719114 a84.0,84.0 0 0,0 1.4330563935968135,0.16057695797211657 l -7.552515114851315 62.54565944524002" fill="#4dd2ff" stroke="none" /><path d="M 102.87502721639298 79.19773525538626 l 0.4527897201439772 -3.2761608580150265 a24.30730229919459,24.30730229919459 0 0,0 0.41284783240606565,0.06067441416778039 l -0.5089626581577249 3.267905370548364" fill="#ff1902" stroke="none" /><path d="M 103.23170211078529 79.25015418208739 l 2.248149386059182 -14.434731772052896 a35.6087527528243,35.6087527528243 0 0,0 0.6031825924952623,0.09925346605719956 l -2.495609481607515 14.394012307500027" fill="#ffb510" stroke="none" /><path d="M 103.58742460773223 79.30868818359171 l 3.3915962646689524 -19.561825972976386 a40.85366365735881,40.85366365735881 0 0,0 0.6899702622120379,0.12573556589375667 l -3.726901260432044 19.500722233151265" fill="#fff717" stroke="none" /><path d="M 103.94208987418118 79.37332000966035 l 0.7462836216351267 -3.9048712578367812 a24.975545092713784,24.975545092713784 0 0,0 0.4204258555263993,0.08409694581808377 l -0.813205962692483 3.8914849153558384" fill="#ff2203" stroke="none" /><path d="M 104.29559338865022 79.4440306129975 l 6.076579592459169 -29.078633096491643 a50.706762231920706,50.706762231920706 0 0,0 0.8505155899828529,0.18536591425260823 l -6.574857599061156 28.970035724105315" fill="#94ff23" stroke="none" /><path d="M 104.64783097203109 79.52079915486377 l 0.6306496699980978 -2.778758808684912 a23.84942441961753,23.84942441961753 0 0,0 0.39847600860259985,0.09403925303629355 l -0.6782578323405826 2.767523412002391" fill="#ff1202" stroke="none" /><path d="M 104.9986988182912 79.60360301121754 l 2.3559830087326707 -9.61321465680238 a30.89770437905665,30.89770437905665 0 0,0 0.5140711600728068,0.13067487863087385 l -2.520659462030872 9.57135454633624" fill="#ff760a" stroke="none" /><path d="M 105.3480935250658 79.69241777938227 l 0.4996524719803302 -1.8972618202952247 a22.96195183618406,22.96195183618406 0 0,0 0.3803139961650761,0.10365627083601232 l -0.532147869080099 1.8884050553150702" fill="#ff0500" stroke="none" /><path d="M 105.69591212413111 79.78721728523813 l 5.242437004157884 -18.603559491717913 a40.32810315329602,40.32810315329602 0 0,0 0.6647223393407268,0.1934909852149126 l -5.561019355880214 18.510824812200486" fill="#fff116" stroke="none" /><path d="M 106.38641147887787 79.99465700312896 l 0.4921160810084976 -1.5415466146225785 a22.61819164570872,22.61819164570872 0 0,0 0.36886744543719174,0.12125405595363721 l -0.5185062640934317 1.5328716372669198" fill="#ff0000" stroke="none" /><path d="M 106.72888874123014 80.10723608172694 l 7.119767318521205 -21.048326977462565 a43.21988198033601,43.21988198033601 0 0,0 0.7007676355809493,0.2437633602834062 l -7.480040726147173 20.923005184610567" fill="#eaff1a" stroke="none" /><path d="M 107.06938296918511 80.22567764915836 l 5.190506887520122 -14.518771554106056 a36.418692849580765,36.418692849580765 0 0,0 0.5868800353749757,0.21551047812521584 l -5.438976074549223 14.427530226972118" fill="#ffbf11" stroke="none" /><path d="M 107.74402155503746 80.48000691201159 l 1.0767068444281993 -2.7140046049273394 a23.919780578126606,23.919780578126606 0 0,0 0.3803763815889974,0.15469576296841447 l -1.1231376872076362 2.6951215853796313" fill="#ff1302" stroke="none" /><path d="M 108.07796709384702 80.6158196554323 l 4.322591600019366 -10.372646255827345 a32.237285637069434,32.237285637069434 0 0,0 0.5089882470935383,0.21725681637219968 l -4.500014922283334 10.296914789795743" fill="#ff880c" stroke="none" /><path d="M 108.73861861582097 80.90454125486305 l 1.258908208040821 -2.750941631327775 a24.02531481589022,24.02531481589022 0 0,0 0.37354935429420477,0.174839959422316 l -1.3059462762065308 2.7289254403349257" fill="#ff1502" stroke="none" /><path d="M 109.06512990194946 81.05736502329252 l 0.8158823433491219 -1.7048803030036612 a22.890047842187787,22.890047842187787 0 0,0 0.3529860660758787,0.17266317327505534 l -0.8450286586870677 1.6906233796313848" fill="#ff0400" stroke="none" /><path d="M 109.71004243097381 81.37971332152246 l 0.7552510656528656 -1.4482935019751149 a22.633388575946682,22.633388575946682 0 0,0 0.3429617800721404,0.1826078304893287 l -0.7800016615115656 1.435115203763213" fill="#ff0000" stroke="none" /><path d="M 110.34350942703115 81.72400993836675 l 0.8043144645607981 -1.4211465909554637 a22.632966438995627,22.632966438995627 0 0,0 0.3364848855674893,0.19426963926063037 l -0.8285918179886848 1.4071300544186616" fill="#ff0000" stroke="none" /><line stroke="#e1ed5e" stroke-width="0.3" x1="143.13028292997686" x2="145.6673583964461" y1="26.7553504044142" y2="22.446841604673864" /><path d="M 143.63769802327073 25.89364864446614 a86.0,86.0 0 0,1 29.32050498858742,28.57503671076993" fill="none" id="id14" stroke="none" /><text fill="#e1ed5e" style="font-size:6.75px; font-family:Arial;" text-anchor="middle"><textPath startOffset="20.669276256404974" xlink:href="#id14">February</textPath></text><path d="M 110.65571695917076 81.90426304109057 l 8.21501842329376 -13.950897257324248 a37.189937059157245,37.189937059157245 0 0,0 0.5473424443179167,0.32866341138713745 l -8.453293624169111 13.807819845401191" fill="#ffc912" stroke="none" /><path d="M 111.27062007382361 82.28071324371311 l 15.347881839198246 -24.129419466634566 a49.59696418759856,49.59696418759856 0 0,0 0.7144663934849156,0.46310848431884366 l -15.759833864940168 23.862397140611826" fill="#a0ff22" stroke="none" /><path d="M 111.5731344415666 82.4767994020092 l 1.027494950108041 -1.5557583137977002 a22.864438200490483,22.864438200490483 0 0,0 0.3256589683973062,0.21911788763569395 l -1.0540502066023483 1.5378907521048875" fill="#ff0400" stroke="none" /><path d="M 111.8722381534696 82.67804972795209 l 8.146018200458906 -11.885284001172872 a35.40894126265853,35.40894126265853 0 0,0 0.49843127874199217,0.3479437426857786 l -8.34884457037466 11.743695442681966" fill="#ffb210" stroke="none" /><path d="M 112.16784306229584 82.88440491214696 l 1.2637411214922578 -1.7776101500153365 a23.18104091378132,23.18104091378132 0 0,0 0.32234781648200633,0.23335496037821746 l -1.294069948348232 1.7556544182640443" fill="#ff0801" stroke="none" /><path d="M 112.45986205192187 83.09580414077388 l 10.452996112454429 -14.181496782575035 a38.61760422762339,38.61760422762339 0 0,0 0.5302509883077218,0.39791022702411616 l -10.694900089672917 13.999967528286906" fill="#ffdb14" stroke="none" /><path d="M 113.03279911837588 83.53348406188908 l 8.886610690679708 -11.227942305006525 a35.31916680440095,35.31916680440095 0 0,0 0.4721823272395075,0.3803566587909758 l -9.078043788274474 11.073737352422143" fill="#ffb110" stroke="none" /><path d="M 113.31354834802062 83.75963576809568 l 18.067235828223225 -22.039090018979092 a49.49818414105181,49.49818414105181 0 0,0 0.6524937039344719,0.544333454564886 l -18.44290386631959 21.725694380502336" fill="#a1ff22" stroke="none" /><path d="M 113.86319453409587 84.22622945171908 l 12.284255194780064 -13.97722742203631 a39.60821893943117,39.60821893943117 0 0,0 0.5068625549648526,0.4532396221191811 l -12.522382776568293 13.764292270033742" fill="#ffe815" stroke="none" /><path d="M 114.13192950727249 84.46653392183569 l 4.7405764308382174 -5.210723924250805 a28.044480726879627,28.044480726879627 0 0,0 0.3533206990138879,0.32702836423549786 l -4.82932690116607 5.1285778138829325" fill="#ff4e07" stroke="none" /><path d="M 114.39649973595853 84.71141617570332 l 5.287246218822529 -5.614872260530201 a28.712442095764782,28.712442095764782 0 0,0 0.3559351750250769,0.3409778460946268 l -5.3828538797129175 5.523282284129994" fill="#ff5808" stroke="none" /><path d="M 114.65682725009322 84.96080404539774 l 18.81140966129778 -19.30216350723218 a47.95260005092446,47.95260005092446 0 0,0 0.5845834792291921,0.5795870692588015 l -19.139985060656933 18.97639642774472" fill="#b3ff20" stroke="none" /><path d="M 114.91283532996326 85.21462403516908 l 42.15135445705412 -41.79108863504982 a80.35681740008309,80.35681740008309 0 0,0 0.962801708351191,0.9879193709694039 l -42.86254296655613 41.061346572012674" fill="#48f4ff" stroke="none" /><path d="M 115.41159269507618 85.73525988315684 l 1.3297654290016738 -1.230811028838805 a22.81195250624271,22.81195250624271 0 0,0 0.2635348631571608,0.28967097912275847 l -1.3506979930007121 1.2078024741583748" fill="#ff0300" stroke="none" /><path d="M 115.6541949942343 86.00192230759917 l 14.080530960971476 -12.590897610163239 a39.88894001188237,39.88894001188237 0 0,0 0.45205363777369073,0.5143540574447337 l -14.294595662703758 12.347331274907207" fill="#ffeb16" stroke="none" /><path d="M 115.8921839302757 86.27271002978787 l 1.4641956104990888 -1.2647372951770295 a22.934794358999557,22.934794358999557 0 0,0 0.2548005813714768,0.300154444168653 l -1.4856907553776777 1.2394160685588247" fill="#ff0500" stroke="none" /><path d="M 116.1254893667686 86.54754324733833 l 11.020043646615955 -9.193312351441058 a35.35124921268108,35.35124921268108 0 0,0 0.38474478340220114,0.46932607712396923 l -11.176235249256782 9.002783992618593" fill="#ffb110" stroke="none" /><path d="M 116.57777611688842 87.10902102172516 l 1.499591113981402 -1.1660911204277027 a22.899616279745022,22.899616279745022 0 0,0 0.23864455915082497,0.31239338852169457 l -1.5193876504865336 1.140176818665126" fill="#ff0400" stroke="none" /><line stroke="#e1ed5e" stroke-width="0.3" x1="172.87174338648825" x2="177.1583165268699" y1="56.24261187166439" y2="53.66864786411523" /><path d="M 173.72905801456457 55.72781907015455 a86.0,86.0 0 0,1 12.242430191666344,42.057860355516425" fill="none" id="id15" stroke="none" /><text fill="#e1ed5e" style="font-size:6.75px; font-family:Arial;" text-anchor="middle"><textPath startOffset="22.145653131862474" xlink:href="#id15">March</textPath></text><line stroke="#e1ed5e" stroke-width="0.3" x1="184.99686870605535" x2="189.99668451229388" y1="99.2704041080226" y2="99.22748670261217" /><path d="M 185.99683186730306 99.26182062694052 a86.0,86.0 0 0,1 -10.086455211305974,41.156179273409016" fill="none" id="id16" stroke="none" /><text fill="#e1ed5e" style="font-size:6.75px; font-family:Arial;" text-anchor="middle"><textPath startOffset="21.40746469413373" xlink:href="#id16">April</textPath></text><line stroke="#e1ed5e" stroke-width="0.3" x1="174.33088141563837" x2="178.70328620479359" y1="141.23008692659167" y2="143.65538615756765" /><path d="M 175.20536237346943 141.71514677278685 a86.0,86.0 0 0,1 -30.301960400862466,31.631185727798858" fill="none" id="id17" stroke="none" /><text fill="#e1ed5e" style="font-size:6.75px; font-family:Arial;" text-anchor="middle"><textPath startOffset="22.145653131862474" xlink:href="#id17">May</textPath></text><line stroke="#e1ed5e" stroke-width="0.3" x1="143.1302829299769" x2="145.66735839644613" y1="173.24464959558577" y2="177.55315839532614" /><path d="M 143.63769802327073 174.10635135553383 a86.0,86.0 0 0,1 -40.68552437913181,11.842963189579606" fill="none" id="id18" stroke="none" /><text fill="#e1ed5e" style="font-size:6.75px; font-family:Arial;" text-anchor="middle"><textPath startOffset="21.407464694133747" xlink:href="#id18">June</textPath></text><line stroke="#e1ed5e" stroke-width="0.3" x1="101.45913802915013" x2="101.54496967792366" y1="184.9874750549273" y2="189.98673829345242" /><path d="M 101.47630435890484 185.9873277026323 a86.0,86.0 0 0,1 -42.54439059252881,-10.42667462771756" fill="none" id="id19" stroke="none" /><text fill="#e1ed5e" style="font-size:6.75px; font-family:Arial;" text-anchor="middle"><textPath startOffset="22.145653131862474" xlink:href="#id19">July</textPath></text><line stroke="#e1ed5e" stroke-width="0.3" x1="58.13341422392154" x2="55.67067388415222" y1="173.97424548756322" y2="178.32567169271397" /><path d="M 57.64086615596768 174.84453072859336 a86.0,86.0 0 0,1 -31.369924170532247,-30.572349798747897" fill="none" id="id20" stroke="none" /><text fill="#e1ed5e" style="font-size:6.75px; font-family:Arial;" text-anchor="middle"><textPath startOffset="22.145653131862474" xlink:href="#id20">August</textPath></text><line stroke="#e1ed5e" stroke-width="0.3" x1="26.387840678322732" x2="22.057713659400548" y1="142.50000000000003" y2="145.00000000000006" /><path d="M 25.521815274538298 143.00000000000003 a86.0,86.0 0 0,1 -11.493303480769221,-40.785679425670985" fill="none" id="id21" stroke="none" /><text fill="#e1ed5e" style="font-size:6.75px; font-family:Arial;" text-anchor="middle"><textPath startOffset="21.40746469413373" xlink:href="#id21">September</textPath></text><line stroke="#e1ed5e" stroke-width="0.3" x1="15.003131293944662" x2="10.003315487706104" y1="100.72959589197737" y2="100.7725132973878" /><path d="M 14.003168132696942 100.73817937305945 a86.0,86.0 0 0,1 10.791469493833604,-42.45332614584628" fill="none" id="id22" stroke="none" /><text fill="#e1ed5e" style="font-size:6.75px; font-family:Arial;" text-anchor="middle"><textPath startOffset="22.145653131862435" xlink:href="#id22">October</textPath></text><line stroke="#e1ed5e" stroke-width="0.3" x1="26.387840678322718" x2="22.05771365940052" y1="57.49999999999999" y2="54.99999999999999" /><path d="M 25.521815274538284 56.99999999999999 a86.0,86.0 0 0,1 29.574782752854787,-30.34633250058573" fill="none" id="id23" stroke="none" /><text fill="#e1ed5e" style="font-size:6.75px; font-family:Arial;" text-anchor="middle"><textPath startOffset="21.40746469413373" xlink:href="#id23">November</textPath></text><line stroke="#e1ed5e" stroke-width="0.3" x1="56.869717070023135" x2="54.33264160355391" y1="26.7553504044142" y2="22.446841604673864" /><path d="M 56.362301976729285 25.89364864446614 a86.0,86.0 0 0,1 42.16139366436587,-11.88097634709845" fill="none" id="id24" stroke="none" /><text fill="#e1ed5e" style="font-size:6.75px; font-family:Arial;" text-anchor="middle"><textPath startOffset="22.145653131862474" xlink:href="#id24">December</textPath></text></svg>